<svg width="1380" height="729" viewBox="0 0 1380 729" fill="none" xmlns="http://www.w3.org/2000/svg">
<path d="M803.896 492.48H808.384V512.891H803.896V492.48Z" fill="#FDF8EE"/>
<path d="M784.663 492.48H789.151V509.118H799.1V512.891H784.663V492.48Z" fill="#FDF8EE"/>
<path d="M763.728 502.771C763.728 503.629 763.824 504.467 764.014 505.287C764.224 506.087 764.548 506.812 764.986 507.459C765.425 508.107 765.996 508.632 766.701 509.032C767.407 509.413 768.264 509.604 769.274 509.604C770.284 509.604 771.142 509.413 771.847 509.032C772.552 508.632 773.124 508.107 773.562 507.459C774.001 506.812 774.315 506.087 774.506 505.287C774.715 504.467 774.82 503.629 774.82 502.771C774.82 501.875 774.715 501.008 774.506 500.17C774.315 499.331 774.001 498.588 773.562 497.94C773.124 497.273 772.552 496.749 771.847 496.368C771.142 495.967 770.284 495.767 769.274 495.767C768.264 495.767 767.407 495.967 766.701 496.368C765.996 496.749 765.425 497.273 764.986 497.94C764.548 498.588 764.224 499.331 764.014 500.17C763.824 501.008 763.728 501.875 763.728 502.771ZM759.24 502.771C759.24 501.247 759.469 499.836 759.926 498.54C760.384 497.225 761.041 496.082 761.899 495.11C762.756 494.138 763.805 493.376 765.043 492.823C766.301 492.27 767.712 491.994 769.274 491.994C770.856 491.994 772.266 492.27 773.505 492.823C774.744 493.376 775.792 494.138 776.65 495.11C777.507 496.082 778.165 497.225 778.622 498.54C779.08 499.836 779.308 501.247 779.308 502.771C779.308 504.258 779.08 505.649 778.622 506.945C778.165 508.222 777.507 509.337 776.65 510.29C775.792 511.242 774.744 511.995 773.505 512.548C772.266 513.082 770.856 513.348 769.274 513.348C767.712 513.348 766.301 513.082 765.043 512.548C763.805 511.995 762.756 511.242 761.899 510.29C761.041 509.337 760.384 508.222 759.926 506.945C759.469 505.649 759.24 504.258 759.24 502.771Z" fill="#FDF8EE"/>
<path d="M749.324 512.891H744.264L737.66 492.48H742.263L746.808 506.831H746.865L751.468 492.48H756.099L749.324 512.891Z" fill="#FDF8EE"/>
<path d="M729.114 492.48H733.602V512.891H729.114V492.48Z" fill="#FDF8EE"/>
<path d="M713.869 496.253H707.751V492.48H724.474V496.253H718.357V512.891H713.869V496.253Z" fill="#FDF8EE"/>
<path d="M688.391 492.48H692.879V512.891H688.391V492.48Z" fill="#FDF8EE"/>
<path d="M655.229 492.48H659.718V500.942L667.693 492.48H673.296L665.321 500.541L674.068 512.891H668.437L662.29 503.715L659.718 506.316V512.891H655.229V492.48Z" fill="#FDF8EE"/>
<path d="M644.512 492.48H649V512.891H644.512V492.48Z" fill="#FDF8EE"/>
<path d="M626.718 506.116C626.718 506.802 626.842 507.383 627.09 507.86C627.338 508.336 627.662 508.727 628.062 509.032C628.481 509.318 628.967 509.537 629.52 509.689C630.073 509.823 630.644 509.889 631.235 509.889C631.635 509.889 632.064 509.861 632.522 509.804C632.979 509.727 633.408 509.594 633.808 509.403C634.208 509.213 634.542 508.956 634.809 508.632C635.075 508.289 635.209 507.86 635.209 507.345C635.209 506.792 635.028 506.345 634.666 506.002C634.323 505.658 633.865 505.373 633.293 505.144C632.722 504.915 632.074 504.715 631.349 504.544C630.625 504.372 629.892 504.181 629.148 503.972C628.386 503.781 627.643 503.553 626.919 503.286C626.194 503 625.546 502.638 624.975 502.199C624.403 501.761 623.936 501.218 623.574 500.57C623.231 499.903 623.059 499.103 623.059 498.169C623.059 497.121 623.278 496.215 623.717 495.453C624.174 494.672 624.765 494.024 625.489 493.509C626.213 492.994 627.033 492.613 627.948 492.366C628.862 492.118 629.777 491.994 630.692 491.994C631.759 491.994 632.779 492.118 633.751 492.366C634.742 492.594 635.618 492.975 636.381 493.509C637.143 494.043 637.743 494.729 638.182 495.567C638.639 496.387 638.868 497.387 638.868 498.569H634.523C634.485 497.959 634.351 497.454 634.122 497.054C633.913 496.654 633.627 496.339 633.265 496.11C632.903 495.882 632.483 495.72 632.007 495.624C631.55 495.529 631.045 495.482 630.492 495.482C630.13 495.482 629.768 495.52 629.406 495.596C629.043 495.672 628.71 495.806 628.405 495.996C628.119 496.187 627.881 496.425 627.69 496.711C627.5 496.997 627.404 497.359 627.404 497.797C627.404 498.197 627.481 498.521 627.633 498.769C627.786 499.017 628.081 499.245 628.519 499.455C628.977 499.665 629.596 499.874 630.378 500.084C631.178 500.294 632.217 500.56 633.494 500.884C633.875 500.961 634.399 501.104 635.066 501.313C635.752 501.504 636.428 501.818 637.095 502.257C637.763 502.695 638.334 503.286 638.811 504.029C639.306 504.753 639.554 505.687 639.554 506.831C639.554 507.764 639.373 508.632 639.011 509.432C638.649 510.232 638.106 510.928 637.381 511.519C636.676 512.091 635.79 512.538 634.723 512.862C633.675 513.186 632.455 513.348 631.064 513.348C629.939 513.348 628.843 513.205 627.776 512.92C626.728 512.653 625.794 512.224 624.975 511.633C624.174 511.042 623.536 510.29 623.059 509.375C622.583 508.46 622.354 507.374 622.373 506.116H626.718Z" fill="#FDF8EE"/>
<path d="M617.507 505.173C617.507 507.936 616.735 509.994 615.192 511.347C613.648 512.681 611.513 513.348 608.788 513.348C606.025 513.348 603.881 512.681 602.356 511.347C600.85 510.013 600.098 507.955 600.098 505.173V492.48H604.586V505.173C604.586 505.725 604.633 506.268 604.729 506.802C604.824 507.336 605.024 507.812 605.329 508.231C605.634 508.632 606.053 508.965 606.587 509.232C607.14 509.48 607.873 509.603 608.788 509.603C610.389 509.603 611.494 509.251 612.104 508.546C612.714 507.822 613.019 506.697 613.019 505.173V492.48H617.507V505.173Z" fill="#FDF8EE"/>
<path d="M571.962 492.48H578.28L583.054 506.516H583.111L587.628 492.48H593.945V512.891H589.743V498.426H589.686L584.683 512.891H581.224L576.221 498.569H576.164V512.891H571.962V492.48Z" fill="#FDF8EE"/>
<path d="M357.362 414.633C356.545 385.883 376.249 366.995 374.065 338.51C371.594 313.864 360.098 320.174 359.016 290.586C358.199 266.757 372.982 251.973 397.629 251.973C437.61 251.973 458.417 275.517 459.234 300.163C459.785 315.498 447.452 327.259 435.139 327.259C428.012 327.259 422.826 320.684 422.54 313.844C422.275 304.267 429.115 295.773 428.829 285.093C428.278 271.412 412.678 264.021 398.711 264.021C381.191 264.021 375.984 278.253 376.535 293.322C377.087 309.76 385.561 328.648 385.847 343.145C386.663 364.504 373.248 373.529 374.065 393.806C374.616 409.141 384.744 423.373 396.791 423.373C408.839 423.373 413.76 407.772 423.622 403.117C443.061 393.54 453.475 403.117 452.638 382.044C452.373 370.813 446.88 352.477 436.201 352.477C429.36 352.477 424.97 359.869 421.682 366.995C418.129 373.284 413.739 380.676 406.899 380.676C399.242 380.676 393.749 371.651 393.218 363.422C392.952 348.373 406.633 336.856 423.071 336.856C446.614 336.856 463.603 353.825 464.685 381.493C465.237 396.011 460.03 426.395 448.534 426.395C440.591 426.395 433.199 417.9 424.174 417.9C410.207 417.9 415.679 449.122 388.031 449.122C370.512 449.122 358.178 434.073 357.362 414.613V414.633Z" fill="#FDF8EE"/>
<path d="M470.995 428.049C470.995 411.897 477.57 394.929 483.308 380.676C486.861 370.548 491.251 359.869 491.251 349.189C490.986 329.199 476.733 316.886 476.733 297.447C476.733 279.927 488.229 263.775 505.749 263.775C509.588 263.775 513.406 264.592 516.979 264.592C531.763 264.592 537.521 247.889 550.385 247.889C559.697 247.889 564.618 262.407 564.618 271.433C564.618 284.848 553.938 294.976 543.545 294.976C533.151 294.976 524.657 282.377 513.978 282.377C500.297 282.377 489.618 295.793 489.618 311.679C489.618 324.829 496.458 339.613 508.505 339.613C520.553 339.613 527.679 322.91 539.727 322.91C548.752 322.91 550.957 328.382 551.508 337.142C551.508 351.66 543.851 361.788 532.621 361.788C520.573 361.788 523.595 348.638 513.733 348.638C504.422 348.638 488.27 389.17 483.88 409.978C481.96 421.76 483.328 431.888 490.455 431.888C495.927 431.888 496.478 417.921 509.628 417.921C511.813 417.921 513.467 418.472 515.387 418.472C534.826 418.472 535.091 384.801 553.448 384.801C561.657 384.801 564.128 393.826 564.128 402.32C564.128 423.945 555.102 444.221 538.399 444.486C526.352 444.486 520.594 427.783 512.671 429.437C507.75 429.437 504.177 435.461 500.624 440.117C496.519 445.589 490.496 449.693 484.737 449.693C474.875 449.693 471.056 437.095 471.056 428.069L470.995 428.049Z" fill="#FDF8EE"/>
<path d="M576.685 420.657C576.685 394.377 606.804 387.251 606.804 357.133C606.804 327.014 574.766 310.311 574.766 284.031C574.766 265.695 584.628 256.649 600.229 256.649C625.691 256.649 645.682 311.128 645.682 341.532C645.682 357.684 640.761 373.019 640.761 389.17C640.761 408.058 648.153 425.313 663.488 425.313C673.064 425.313 676.903 417.921 676.903 407.507C676.903 385.597 662.671 366.158 662.671 340.981C662.671 330.567 668.143 322.358 668.143 312.496C667.878 296.61 655.279 282.377 655.279 268.145C655.279 256.649 663.773 248.706 673.615 248.706C688.665 248.706 700.446 264.592 700.446 281.009C700.446 310.311 678.537 312.496 678.537 348.087C678.537 375.735 689.767 389.987 689.767 413.796C689.767 429.682 682.927 440.627 665.407 440.627C644.865 440.627 632.287 421.739 632.287 399.278C632.287 383.392 636.391 376 636.391 353.559C636.391 336.305 628.999 307.003 617.503 307.003C610.377 307.003 606.824 314.946 606.824 320.419C606.824 333.834 618.871 347.25 618.871 362.033C618.871 374.632 614.216 380.656 614.216 393.785C614.216 397.624 615.849 411.856 615.849 419.248C615.849 432.112 611.459 446.63 598.044 446.63C584.628 446.63 576.685 432.949 576.685 420.616V420.657Z" fill="#FDF8EE"/>
<path d="M704.816 417.104C704.816 383.433 727.543 365.076 728.36 332.221C728.36 315.253 722.888 294.711 722.888 283.48C722.888 265.675 734.118 250.891 749.453 250.891C762.052 250.891 766.707 258.834 766.707 269.779C766.707 306.186 734.955 300.714 734.955 349.455C734.955 380.125 719.62 385.332 719.62 411.06C719.62 419.269 722.908 427.212 730.565 427.212C753.557 427.212 754.925 369.445 780.94 369.445C791.068 369.445 796.274 380.941 796.274 392.989C796.274 411.325 787.515 432.97 771.914 432.97C762.603 432.97 760.132 424.475 753.578 424.475C742.347 424.475 739.345 448.019 725.379 448.019C713.066 448.019 704.837 431.867 704.837 417.084L704.816 417.104Z" fill="#FDF8EE"/>
<path d="M803.646 387.516C803.646 374.366 812.672 365.055 823.637 365.055C855.123 365.055 845.261 422.005 872.092 422.005C879.218 422.005 882.22 415.43 882.22 408.038C882.22 394.888 875.379 382.024 875.379 368.343C875.379 351.374 875.114 339.592 859.493 339.592C825.27 339.592 805.545 321.521 805.545 288.401C805.28 268.962 815.959 249.788 826.618 249.788C836.195 249.788 838.665 261.019 838.665 274.434C838.665 291.137 833.744 293.322 833.744 306.472C833.744 320.439 846.057 332.201 857.839 332.201C869.07 331.935 877.278 320.705 877.278 308.923C877.278 297.141 870.152 285.379 870.152 274.148C870.152 260.468 878.095 250.319 888.488 250.319C902.721 250.319 912.032 267.573 912.032 284.276C912.032 320.153 879.994 314.946 879.994 345.616C879.994 365.321 894.512 380.941 894.512 404.75C894.512 429.948 879.177 449.918 857.002 449.918C831.805 449.918 803.605 411.305 803.605 387.496L803.646 387.516Z" fill="#FDF8EE"/>
<path d="M918.647 429.682C918.647 421.188 919.464 417.9 923.854 411.346C927.959 405.057 932.88 399.033 936.453 392.172C939.189 387.251 941.109 380.941 941.109 374.918C941.109 363.973 932.349 355.213 932.349 346.167C932.349 334.671 942.763 326.463 942.763 315.498C942.763 297.978 921.404 287.85 921.404 271.147C921.404 257.18 934.554 250.074 948.235 250.074C967.94 250.074 961.651 257.2 983.56 257.2C1003.27 257.2 1015.6 262.959 1015.6 284.583C1015.6 301.551 1006.84 313.333 1006.84 330.302C1007.1 351.374 1021.62 370.283 1021.62 391.907C1021.62 403.403 1018.33 414.899 1012.31 423.659C999.161 443.363 987.665 441.464 963.304 441.464C948.255 441.464 946.05 448.039 934.289 448.039C923.609 448.039 918.688 438.463 918.688 429.703L918.647 429.682ZM992.3 389.987C992.3 366.158 972.595 353.028 972.595 331.935C972.595 322.91 975.331 314.13 978.884 306.207C984.091 293.343 987.093 291.158 987.093 281.009C987.093 268.697 975.597 264.041 964.918 264.041C954.238 264.041 951.502 271.167 950.399 279.376C950.134 287.584 950.665 295.262 950.665 303.471C950.665 311.128 950.114 318.52 947.112 325.932C945.193 331.404 941.64 336.611 942.456 343.452C943.273 348.107 947.112 366.178 947.112 373.305C947.112 377.409 946.295 381.799 946.295 386.72C946.847 392.744 948.48 398.216 950.399 403.689C953.136 413.265 952.033 428.049 963.264 428.886C978.864 428.886 992.279 408.344 992.279 390.008L992.3 389.987Z" fill="#FDF8EE"/>
<path d="M688.967 2C674.02 2 676.756 10.7803 663.524 17.7229C650.293 24.6858 649.455 23.0931 636.224 30.0357C622.992 36.9987 622.032 35.1405 608.78 42.1035C595.548 49.0665 595.977 49.8833 582.745 56.8463C569.514 63.7888 570.514 65.6878 557.283 72.6304C544.051 79.5934 544.582 80.5939 531.35 87.5365C518.118 94.479 516.587 91.5795 503.355 98.5221C490.123 105.485 489.919 105.077 476.688 112.04C463.456 119.003 464.395 120.8 451.163 127.742C437.932 134.705 438.095 134.991 424.843 141.954C411.611 148.917 409.937 145.711 396.705 152.674C383.473 159.637 384.556 161.679 371.324 168.642C358.092 175.605 358.215 175.85 344.983 182.813C331.751 189.776 332.527 191.246 319.296 198.209C306.064 205.172 304.063 201.354 290.831 208.317C277.599 215.28 279.192 218.322 265.96 225.285C252.729 232.248 251.81 230.492 238.558 237.455C225.326 244.418 226.286 246.235 213.034 253.198C199.802 260.161 199.148 258.916 185.917 265.879C172.685 272.842 173.318 274.067 160.086 281.03C146.855 287.993 146.895 288.074 133.664 295.037C120.432 302 118.594 298.529 105.363 305.472C92.1104 312.435 93.2743 314.62 80.0222 321.583C66.7905 328.546 65.9124 326.912 52.6807 333.855C39.4286 340.818 39.837 341.593 26.5848 348.556C13.3327 355.519 2 348.597 2 363.565C2 378.512 13.0468 372.141 26.2786 379.083C39.5103 386.046 39.1427 386.741 52.3744 393.683C65.6061 400.646 67.3418 397.338 80.5735 404.281C89.3946 408.923 98.2226 413.551 107.057 418.166C120.289 425.108 119.431 426.762 132.643 433.705C145.874 440.668 146.732 439.034 159.964 445.997C173.195 452.94 173.502 452.368 186.733 459.311C199.965 466.274 198.413 469.214 211.645 476.177C224.877 483.14 225.326 482.262 238.558 489.225C247.379 493.867 256.2 498.509 265.021 503.151C278.253 510.114 278.927 508.828 292.158 515.791C305.39 522.754 306.309 521.018 319.541 527.981C332.772 534.944 332.098 536.23 345.33 543.193C358.562 550.156 358.296 550.646 371.549 557.589C384.78 564.552 383.964 566.104 397.195 573.046C410.427 580.009 412.163 576.701 425.394 583.664C438.626 590.627 438.381 591.077 451.633 598.04C464.865 605.003 462.884 608.78 476.116 615.743C489.348 622.706 490.123 621.236 503.355 628.199C516.587 635.162 517.547 633.324 530.778 640.287C544.01 647.25 542.356 650.415 555.588 657.378C568.819 664.341 569.493 663.055 582.745 670.018C595.998 676.981 595.508 677.879 608.76 684.842C621.991 691.805 622.379 691.07 635.611 698.033C648.863 704.996 648.353 705.956 661.605 712.919C674.857 719.882 673.958 726.804 688.926 726.804C703.873 726.804 702.872 719.677 716.124 712.735C729.376 705.792 728.335 703.852 741.587 696.889C754.819 689.926 755.043 690.376 768.275 683.413C781.507 676.45 781.119 675.694 794.351 668.752C807.582 661.809 808.644 663.81 821.855 656.868C835.067 649.925 833.27 646.433 846.502 639.491C859.733 632.548 861.285 635.509 874.517 628.546C887.749 621.583 888.218 622.481 901.45 615.539C914.682 608.576 913.028 605.452 926.259 598.509C939.491 591.546 940.287 593.057 953.519 586.115C966.751 579.172 965.955 577.641 979.186 570.678C992.418 563.715 993.745 566.247 1006.98 559.284C1020.21 552.321 1019.43 550.83 1032.66 543.888C1045.9 536.925 1045.43 536.026 1058.66 529.063C1071.89 522.1 1073.28 524.755 1086.53 517.792C1099.76 510.829 1099.52 510.359 1112.75 503.417C1125.98 496.454 1126.04 496.576 1139.29 489.613C1152.53 482.65 1152.81 483.201 1166.04 476.238C1179.28 469.275 1177.52 465.927 1190.75 458.984C1203.98 452.021 1204.08 452.225 1217.34 445.283C1230.57 438.32 1231.53 440.137 1244.76 433.195C1257.99 426.232 1258.69 427.538 1271.92 420.596C1285.17 413.633 1284.48 412.326 1297.71 405.363C1310.94 398.4 1311.9 400.238 1325.15 393.275C1338.4 386.312 1336.3 382.31 1349.53 375.347C1362.76 368.384 1377.79 378.573 1377.79 363.606C1377.79 348.659 1363.36 357.745 1350.12 350.782C1336.89 343.819 1337.01 343.595 1323.78 336.632C1310.55 329.669 1310.78 329.24 1297.54 322.297C1284.31 315.334 1283.94 316.029 1270.71 309.066C1257.48 302.123 1259.38 298.509 1246.17 291.546C1232.94 284.583 1231.63 287.094 1218.38 280.131C1205.15 273.189 1204.68 274.087 1191.44 267.145C1178.21 260.182 1177.8 260.958 1164.57 254.015C1151.34 247.052 1152.95 243.969 1139.72 237.026C1126.49 230.063 1125.45 232.023 1112.22 225.081C1098.99 218.118 1098.37 219.282 1085.14 212.339C1071.91 205.376 1072.65 203.988 1059.41 197.025C1046.18 190.062 1046.81 188.837 1033.58 181.894C1020.35 174.931 1019.86 175.85 1006.63 168.887C993.398 161.924 993.439 161.842 980.207 154.9C966.976 147.957 968.017 145.956 954.785 139.014C941.553 132.051 939.369 136.196 926.137 129.233C912.905 122.27 913.763 120.636 900.531 113.673C887.299 106.71 888.627 104.158 875.395 97.2152C862.163 90.2522 862.061 90.4564 848.809 83.5139C835.577 76.5509 835.026 77.6127 821.774 70.6497C808.522 63.6867 809.379 62.0736 796.148 55.1106C782.916 48.1476 781.956 49.965 768.704 43.002C755.472 36.039 756.269 34.5075 743.037 27.565C729.785 20.602 726.191 26.4215 714.103 17.6208C701.688 8.57502 703.852 2.08168 688.885 2.08168L688.967 2Z" stroke="#FDF8EE" stroke-width="4" stroke-miterlimit="10"/>
</svg>
