<svg width="32" height="29" viewBox="0 0 32 29" fill="none" xmlns="http://www.w3.org/2000/svg">
<line y1="3.5" x2="14" y2="3.5" stroke="black"/>
<line y1="14.5" x2="14" y2="14.5" stroke="black"/>
<line y1="24.5" x2="14" y2="24.5" stroke="black"/>
<line y1="7.5" x2="11" y2="7.5" stroke="black"/>
<line y1="17.5" x2="11" y2="17.5" stroke="black"/>
<line y1="28.5" x2="11" y2="28.5" stroke="black"/>
<line y1="0.5" x2="13" y2="0.5" stroke="black"/>
<line y1="10.5" x2="13" y2="10.5" stroke="black"/>
<line y1="21.5" x2="13" y2="21.5" stroke="black"/>
<line x1="13" y1="7.5" x2="23" y2="7.5" stroke="black"/>
<line x1="13" y1="17.5" x2="23" y2="17.5" stroke="black"/>
<line x1="13" y1="28.5" x2="23" y2="28.5" stroke="black"/>
<line x1="21" y1="0.5" x2="32" y2="0.5" stroke="black"/>
<line x1="21" y1="10.5" x2="32" y2="10.5" stroke="black"/>
<line x1="21" y1="21.5" x2="32" y2="21.5" stroke="black"/>
<line x1="25" y1="7.5" x2="32" y2="7.5" stroke="black"/>
<line x1="25" y1="17.5" x2="32" y2="17.5" stroke="black"/>
<line x1="25" y1="28.5" x2="32" y2="28.5" stroke="black"/>
<line x1="16" y1="3.5" x2="23" y2="3.5" stroke="black"/>
<line x1="16" y1="14.5" x2="23" y2="14.5" stroke="black"/>
<line x1="16" y1="24.5" x2="23" y2="24.5" stroke="black"/>
<line x1="25" y1="3.5" x2="32" y2="3.5" stroke="black"/>
<line x1="25" y1="14.5" x2="32" y2="14.5" stroke="black"/>
<line x1="25" y1="24.5" x2="32" y2="24.5" stroke="black"/>
<line x1="14" y1="0.5" x2="19" y2="0.5" stroke="black"/>
<line x1="14" y1="10.5" x2="19" y2="10.5" stroke="black"/>
<line x1="14" y1="21.5" x2="19" y2="21.5" stroke="black"/>
</svg>
