<?xml version="1.0" encoding="UTF-8"?>
<svg id="b" data-name="Layer 2" xmlns="http://www.w3.org/2000/svg" viewBox="0 0 14.28 7.52">
  <g id="c" data-name="Layer 1">
    <path d="M7.13,0c-.16,0-.13.09-.26.16-.14.07-.15.06-.28.13-.14.07-.15.05-.28.13-.14.07-.13.08-.27.15-.14.07-.13.09-.26.16-.14.07-.13.08-.27.15-.14.07-.15.04-.29.11-.14.07-.14.07-.28.14s-.13.09-.26.16c-.14.07-.14.08-.27.15-.14.07-.15.04-.29.11s-.13.09-.26.17-.14.07-.27.15-.13.09-.27.16-.16.03-.3.1c-.14.07-.12.1-.26.18-.14.07-.15.05-.28.13-.14.07-.13.09-.26.16-.14.07-.14.06-.28.13-.14.07-.13.08-.27.16s-.14.07-.27.15c-.14.07-.16.04-.29.11-.14.07-.13.09-.26.17-.14.07-.15.06-.28.13-.14.07-.13.08-.27.15-.14.07-.26,0-.26.16s.11.09.25.16c.14.07.13.08.27.15.14.07.16.04.29.11.09.05.18.1.27.14.14.07.13.09.27.16.14.07.15.06.28.13.14.07.14.07.28.14.14.07.12.1.26.18.14.07.14.06.28.14.09.05.18.1.27.14.14.07.14.06.28.13.14.07.15.05.28.13.14.07.13.09.27.16.14.07.13.08.27.15.14.07.13.09.27.16.14.07.16.04.29.11s.13.08.27.15c.14.07.12.11.25.18.14.07.15.06.28.13s.15.05.28.13.12.11.26.18c.14.07.14.06.28.13s.13.08.27.15c.14.07.14.06.28.14.14.07.13.08.27.15.14.07.13.14.28.14s.14-.07.28-.15.13-.09.26-.16c.14-.07.14-.07.28-.14s.13-.08.27-.15c.14-.07.15-.05.29-.12s.12-.11.26-.18c.14-.07.15-.04.29-.11.14-.07.14-.06.28-.13.14-.07.12-.1.26-.18.14-.07.15-.06.28-.13s.13-.09.27-.16.15-.05.29-.12c.14-.07.13-.09.27-.16.14-.07.13-.08.27-.15s.15-.04.29-.12c.14-.07.13-.08.27-.15.14-.07.14-.07.28-.14.14-.07.14-.07.28-.14s.12-.11.26-.18c.14-.07.14-.07.28-.14.14-.07.15-.05.28-.13.14-.07.14-.06.28-.13.14-.07.13-.09.27-.16s.15-.05.28-.13.12-.11.25-.19.29.03.29-.12-.15-.06-.29-.13-.14-.07-.27-.15c-.14-.07-.13-.08-.27-.15-.14-.07-.14-.07-.28-.14-.14-.07-.12-.11-.25-.18-.14-.07-.15-.05-.29-.12-.14-.07-.14-.06-.28-.13-.14-.07-.14-.06-.28-.14-.14-.07-.12-.1-.26-.18-.14-.07-.15-.05-.29-.12-.14-.07-.14-.06-.28-.13-.14-.07-.13-.09-.27-.16s-.13-.08-.27-.16c-.14-.07-.14-.06-.28-.13s-.14-.07-.27-.15-.13-.09-.26-.16c-.14-.07-.16-.03-.3-.1-.14-.07-.13-.09-.27-.16s-.12-.1-.26-.17c-.14-.07-.14-.07-.28-.14-.14-.07-.14-.06-.28-.13s-.13-.09-.27-.16-.15-.05-.28-.13c-.14-.07-.13-.09-.27-.16-.14-.07-.17-.01-.3-.1C7.26.07,7.28,0,7.13,0h0Z" style="fill: #1e1e1e; stroke-width: 0px;"/>
  </g>
</svg>