<?xml version="1.0" encoding="UTF-8"?>
<svg id="b" data-name="Layer 2" xmlns="http://www.w3.org/2000/svg" viewBox="0 0 482 274.6">
  <g id="c" data-name="Layer 1">
    <g>
      <rect x="1" y="1" width="480" height="272.6" rx="10.61" ry="10.61" style="fill: none; stroke: #f2ebdd; stroke-miterlimit: 10; stroke-width: 2px;"/>
      <g>
        <path d="M2.87,86.47c-.76,1.42-1.35,2.41-1.87,3.2v-4.12s.03-.05.04-.07c1.25-2.35,1.77-3.54,2.31-4.8.54-1.24,1.1-2.52,2.39-4.95,1.26-2.38,1.88-3.6,2.49-4.78.61-1.18,1.24-2.41,2.51-4.81,1.32-2.48,2.23-3.61,3.11-4.7.86-1.06,1.67-2.06,2.89-4.36,1.31-2.45,2.12-3.61,2.91-4.73.79-1.12,1.53-2.18,2.77-4.51,1.2-2.25,1.44-3.52,1.69-4.87.28-1.45.56-2.95,1.9-5.47,1.31-2.46,2.16-3.61,2.98-4.72.82-1.1,1.59-2.14,2.82-4.45,1.27-2.4,1.91-3.59,2.56-4.79.64-1.19,1.28-2.37,2.54-4.75,1.26-2.36,1.79-3.54,2.35-4.8.55-1.23,1.12-2.51,2.41-4.93,1.29-2.43,2.07-3.61,2.81-4.75.61-.91,1.18-1.79,2.03-3.31h2.35c-1.19,2.23-1.93,3.36-2.65,4.45-.75,1.15-1.46,2.23-2.71,4.57-1.26,2.36-1.79,3.55-2.35,4.81-.55,1.23-1.12,2.51-2.41,4.93-1.27,2.38-1.91,3.57-2.55,4.76s-1.29,2.38-2.56,4.77c-1.31,2.46-2.16,3.61-2.98,4.72-.81,1.1-1.58,2.14-2.82,4.46-1.19,2.25-1.43,3.52-1.69,4.88-.27,1.44-.55,2.94-1.89,5.47-1.31,2.44-2.12,3.6-2.91,4.72-.78,1.12-1.53,2.18-2.77,4.52-1.31,2.48-2.23,3.61-3.11,4.7-.86,1.06-1.67,2.06-2.89,4.36-1.27,2.38-1.89,3.6-2.5,4.78-.61,1.19-1.23,2.42-2.51,4.81-1.25,2.35-1.76,3.54-2.31,4.81-.54,1.24-1.1,2.52-2.38,4.95Z" style="fill: #f2ebdd; stroke-width: 0px;"/>
        <path d="M49.96,273.05c.04.18.08.37.11.55h-2.12s-.01-.08-.02-.12c-.27-1.34-.53-2.62-1.7-4.89-1.22-2.35-1.94-3.42-2.71-4.56-.75-1.14-1.54-2.31-2.82-4.77-1.24-2.39-1.89-3.59-2.52-4.76-.64-1.18-1.29-2.39-2.55-4.8-1.2-2.33-1.97-3.37-2.78-4.48-.82-1.12-1.67-2.27-2.95-4.75-1.3-2.5-1.65-3.94-1.99-5.32-.33-1.33-.64-2.59-1.83-4.87-1.24-2.39-1.89-3.6-2.53-4.76-.64-1.18-1.3-2.39-2.56-4.8-1.21-2.33-1.95-3.39-2.73-4.5-.8-1.13-1.62-2.29-2.9-4.76-1.25-2.42-1.85-3.66-2.43-4.87-.57-1.19-1.17-2.42-2.4-4.81-1.3-2.5-1.68-3.91-2.05-5.28-.35-1.32-.68-2.57-1.88-4.87-1.22-2.37-1.91-3.48-2.63-4.64-.72-1.15-1.45-2.34-2.71-4.78-.09-.17-.17-.34-.26-.49v-4.07c.58.86,1.24,1.93,2.1,3.59,1.23,2.37,1.91,3.47,2.63,4.64.71,1.15,1.45,2.34,2.71,4.78,1.3,2.5,1.68,3.91,2.05,5.28.35,1.32.68,2.57,1.88,4.87,1.25,2.42,1.85,3.66,2.43,4.87.57,1.19,1.17,2.42,2.4,4.81,1.22,2.34,1.96,3.4,2.75,4.52.79,1.12,1.61,2.29,2.89,4.74,1.24,2.39,1.89,3.59,2.53,4.76.65,1.17,1.31,2.39,2.56,4.8,1.3,2.5,1.65,3.94,1.99,5.33.33,1.33.64,2.58,1.83,4.86,1.2,2.33,1.97,3.38,2.78,4.48.82,1.12,1.67,2.27,2.95,4.74,1.24,2.4,1.89,3.6,2.52,4.77s1.29,2.39,2.54,4.79c1.22,2.35,1.94,3.43,2.7,4.57.76,1.13,1.55,2.31,2.82,4.76,1.32,2.54,1.61,4.01,1.9,5.44Z" style="fill: #f2ebdd; stroke-width: 0px;"/>
        <path d="M201.76,207.4l-.13.3c-.09.23-.18.46-.28.7-.43,1.07-.97,2.29-2.01,4.24-1.34,2.52-2.38,3.61-3.39,4.65-.95.99-1.85,1.92-3.06,4.18-1.27,2.4-1.96,3.6-2.63,4.75-.66,1.15-1.35,2.33-2.61,4.72-1.21,2.27-1.52,3.53-1.86,4.86-.35,1.39-.71,2.83-2.04,5.32-1.29,2.44-2.1,3.61-2.88,4.73-.78,1.13-1.51,2.19-2.75,4.53-1.28,2.39-1.98,3.59-2.65,4.74-.7,1.2-1.35,2.34-2.62,4.72-1.29,2.43-2.07,3.61-2.82,4.74-.76,1.14-1.48,2.22-2.73,4.57-1.12,2.11-1.6,3.29-2.03,4.45h-2.23c.05-.12.09-.25.14-.37.48-1.29.98-2.62,2.28-5.07,1.3-2.43,2.08-3.61,2.83-4.74.76-1.14,1.47-2.22,2.72-4.57,1.29-2.42,1.99-3.62,2.66-4.78.66-1.14,1.35-2.32,2.6-4.67,1.3-2.45,2.1-3.61,2.89-4.73.78-1.12,1.51-2.19,2.75-4.52,1.21-2.28,1.52-3.53,1.86-4.86.35-1.39.71-2.83,2.04-5.33,1.28-2.41,1.97-3.61,2.64-4.78.67-1.14,1.35-2.32,2.6-4.69,1.35-2.51,2.39-3.6,3.4-4.64.95-.99,1.85-1.93,3.05-4.18,1-1.87,1.51-3.05,1.93-4.07.09-.23.18-.45.27-.67l.13-.31,1.93.78Z" style="fill: #f2ebdd; stroke-width: 0px;"/>
        <path d="M204.4,66.84l-1.85.95c-.18-.34-.33-.66-.48-.95-.72-1.45-1.13-2.41-1.54-3.33-.52-1.21-1.06-2.45-2.29-4.82-1.19-2.3-2.04-3.28-2.93-4.31-.93-1.08-1.89-2.2-3.19-4.7-1.27-2.45-1.77-3.77-2.26-5.05-.49-1.28-.95-2.49-2.17-4.85-1.21-2.35-1.94-3.42-2.7-4.55-.76-1.14-1.55-2.31-2.83-4.76-1.28-2.49-1.7-3.88-2.1-5.23-.39-1.3-.76-2.54-1.96-4.85-1.21-2.35-1.94-3.43-2.7-4.56-.76-1.14-1.55-2.31-2.82-4.77-1.23-2.36-1.94-3.52-2.62-4.64-.7-1.16-1.42-2.35-2.69-4.79-.11-.22-.22-.43-.32-.63h2.35c1.12,2.15,1.77,3.21,2.44,4.33.71,1.15,1.43,2.34,2.69,4.77,1.22,2.35,1.94,3.42,2.7,4.56.76,1.14,1.55,2.31,2.82,4.77,1.29,2.49,1.7,3.88,2.1,5.22.39,1.31.77,2.55,1.96,4.86,1.22,2.35,1.94,3.42,2.7,4.56.77,1.13,1.56,2.3,2.83,4.76,1.28,2.46,1.78,3.78,2.27,5.06.48,1.28.95,2.48,2.16,4.83,1.19,2.28,2.03,3.26,2.92,4.3.93,1.08,1.9,2.2,3.2,4.71,1.26,2.43,1.82,3.7,2.35,4.94.41.95.81,1.86,1.5,3.26.14.28.29.58.46.91Z" style="fill: #f2ebdd; stroke-width: 0px;"/>
        <path d="M285.89,67.14l-1.78-1.07c.19-.32.37-.6.54-.87.63-.96,1.17-1.63,1.69-2.28.86-1.06,1.67-2.06,2.89-4.36,1.3-2.44,2.11-3.61,2.9-4.73s1.53-2.17,2.77-4.51c1.2-2.25,1.44-3.53,1.69-4.88.28-1.45.56-2.95,1.9-5.47,1.31-2.46,2.16-3.61,2.99-4.72.81-1.1,1.58-2.14,2.81-4.46,1.28-2.4,1.92-3.59,2.57-4.79.64-1.18,1.28-2.37,2.54-4.75,1.25-2.35,1.79-3.54,2.35-4.79.55-1.24,1.12-2.51,2.41-4.93,1.29-2.44,2.07-3.62,2.81-4.75.75-1.15,1.47-2.23,2.71-4.57.04-.07.08-.14.11-.21h2.39c-.2.36-.42.75-.65,1.19-1.3,2.43-2.07,3.6-2.81,4.74-.76,1.14-1.47,2.23-2.72,4.58-1.25,2.36-1.78,3.54-2.34,4.8-.56,1.23-1.13,2.51-2.41,4.93-1.27,2.38-1.91,3.57-2.55,4.75-.65,1.2-1.29,2.39-2.56,4.79-1.31,2.45-2.16,3.6-2.98,4.71-.82,1.1-1.59,2.14-2.82,4.46-1.2,2.25-1.44,3.53-1.69,4.88-.28,1.44-.56,2.94-1.9,5.47-1.3,2.45-2.12,3.62-2.91,4.74-.78,1.12-1.53,2.17-2.77,4.5-1.31,2.47-2.23,3.6-3.11,4.69-.48.59-.93,1.16-1.46,1.95-.19.28-.39.6-.61.96Z" style="fill: #f2ebdd; stroke-width: 0px;"/>
        <path d="M320.55,269.08c1.04,2,1.43,3.34,1.7,4.52h-2.16c-.24-.95-.61-2.02-1.4-3.55-1.22-2.35-1.94-3.43-2.7-4.57-.76-1.13-1.55-2.31-2.82-4.76-1.25-2.4-1.9-3.6-2.53-4.77-.64-1.17-1.3-2.39-2.55-4.79-1.21-2.34-1.97-3.38-2.78-4.48-.82-1.12-1.66-2.27-2.95-4.74-1.3-2.52-1.65-3.95-1.99-5.34-.33-1.32-.64-2.58-1.83-4.87-1.23-2.39-1.89-3.59-2.53-4.75-.64-1.17-1.3-2.39-2.55-4.8-1.21-2.33-1.96-3.39-2.74-4.5-.79-1.13-1.61-2.29-2.89-4.76-1.11-2.15-1.7-3.36-2.24-4.46-.09-.2-.19-.39-.28-.59l-.11-.24,1.88-.9.12.24c.13.29.27.57.41.87.5,1.01,1.07,2.17,2.08,4.12,1.21,2.34,1.96,3.4,2.74,4.52.79,1.12,1.61,2.29,2.89,4.74,1.24,2.39,1.9,3.6,2.53,4.76.64,1.17,1.3,2.38,2.56,4.8,1.3,2.5,1.65,3.94,1.99,5.32.33,1.33.64,2.58,1.83,4.87,1.21,2.33,1.97,3.37,2.77,4.47.82,1.12,1.67,2.28,2.95,4.75,1.25,2.39,1.9,3.6,2.53,4.76.64,1.18,1.3,2.39,2.54,4.81,1.22,2.34,1.94,3.42,2.71,4.56.75,1.13,1.54,2.31,2.82,4.76Z" style="fill: #f2ebdd; stroke-width: 0px;"/>
        <path d="M481,78.87v4.04c-.53-.71-1.08-1.6-1.72-2.82-1.29-2.5-1.67-3.92-2.03-5.29-.35-1.32-.68-2.57-1.87-4.87-1.26-2.43-1.82-3.71-2.36-4.95-.52-1.2-1.07-2.45-2.29-4.82-1.19-2.29-2.04-3.27-2.93-4.31-.92-1.08-1.88-2.2-3.18-4.7-1.28-2.46-1.78-3.78-2.27-5.07-.49-1.27-.95-2.48-2.16-4.82-1.22-2.35-1.94-3.43-2.71-4.56-.77-1.13-1.56-2.3-2.83-4.76-1.29-2.49-1.7-3.87-2.1-5.22-.39-1.31-.75-2.54-1.96-4.86-1.22-2.35-1.94-3.43-2.7-4.56-.76-1.14-1.55-2.31-2.82-4.77-1.23-2.37-1.91-3.48-2.62-4.65-.7-1.16-1.43-2.35-2.69-4.78-.41-.8-.74-1.49-1-2.1h2.29c.16.35.35.73.56,1.14,1.23,2.37,1.9,3.48,2.62,4.66.7,1.15,1.43,2.35,2.68,4.78,1.22,2.35,1.94,3.43,2.71,4.57.75,1.13,1.55,2.31,2.82,4.76,1.29,2.49,1.7,3.88,2.11,5.23.39,1.31.75,2.54,1.96,4.85,1.21,2.35,1.93,3.42,2.7,4.56.77,1.13,1.56,2.3,2.83,4.76,1.27,2.45,1.78,3.77,2.26,5.05.49,1.28.95,2.49,2.17,4.84,1.19,2.3,2.03,3.28,2.92,4.31.93,1.08,1.89,2.2,3.19,4.71,1.26,2.43,1.82,3.71,2.36,4.94.55,1.27,1.06,2.46,2.3,4.83,1.29,2.5,1.67,3.92,2.03,5.29.33,1.26.65,2.47,1.73,4.59Z" style="fill: #f2ebdd; stroke-width: 0px;"/>
        <path d="M478.96,193.38c.78-1.46,1.43-2.44,2.04-3.22v3.87c-.05.11-.12.22-.18.34-1.23,2.33-1.68,3.54-2.15,4.82-.47,1.3-.96,2.63-2.27,5.08-1.25,2.34-1.72,3.55-2.23,4.82-.51,1.27-1.03,2.58-2.33,5.02-1.34,2.51-2.38,3.6-3.39,4.64-.95.99-1.85,1.92-3.05,4.18-1.28,2.4-1.97,3.6-2.64,4.76-.66,1.15-1.35,2.33-2.61,4.71-1.22,2.28-1.53,3.54-1.86,4.86-.35,1.39-.71,2.83-2.04,5.33-1.3,2.44-2.1,3.61-2.88,4.73-.79,1.13-1.52,2.19-2.76,4.52-1.28,2.41-1.98,3.6-2.65,4.76-.66,1.14-1.35,2.33-2.61,4.7-1.29,2.43-2.07,3.59-2.82,4.73-.77,1.15-1.48,2.23-2.73,4.57-.68,1.27-1.12,2.21-1.45,3h-2.27c.4-1.01.92-2.2,1.86-3.98,1.3-2.44,2.08-3.61,2.83-4.75.76-1.14,1.48-2.22,2.72-4.56,1.28-2.41,1.98-3.61,2.65-4.76.66-1.15,1.35-2.33,2.61-4.7,1.3-2.44,2.11-3.61,2.89-4.73.78-1.13,1.51-2.19,2.75-4.52,1.21-2.28,1.53-3.53,1.86-4.86.34-1.39.7-2.83,2.04-5.33,1.28-2.41,1.98-3.61,2.65-4.78.66-1.14,1.34-2.32,2.6-4.68,1.34-2.52,2.38-3.61,3.39-4.65.95-.99,1.85-1.92,3.06-4.18,1.24-2.34,1.72-3.54,2.22-4.81.51-1.27,1.03-2.58,2.34-5.03,1.23-2.32,1.67-3.53,2.14-4.82.48-1.29.97-2.63,2.27-5.08Z" style="fill: #f2ebdd; stroke-width: 0px;"/>
        <path d="M308.26,273.6h-2.42c-.05-.08-.1-.16-.15-.24-.7-1.15-1.42-2.34-2.69-4.77-1.29-2.49-1.69-3.89-2.08-5.24-.38-1.32-.74-2.55-1.94-4.87-1.23-2.38-1.9-3.57-2.55-4.72-.66-1.17-1.34-2.38-2.6-4.79-1.25-2.42-1.86-3.62-2.48-4.83-.61-1.2-1.22-2.41-2.46-4.8-1.26-2.42-1.84-3.68-2.41-4.89-.56-1.2-1.15-2.44-2.38-4.82-1.19-2.29-2.04-3.25-2.95-4.28-.95-1.07-1.94-2.18-3.24-4.7-1.26-2.43-1.88-3.67-2.48-4.87-.16-.31-.31-.62-.48-.95-.13-.26-.27-.54-.42-.83l1.86-.94c.18.34.34.66.48.95.15.29.29.57.42.84.63,1.25,1.21,2.42,2.46,4.84,1.19,2.28,2.05,3.25,2.96,4.28.95,1.07,1.94,2.18,3.24,4.7,1.26,2.42,1.84,3.68,2.41,4.89.57,1.2,1.14,2.44,2.38,4.82,1.24,2.4,1.86,3.61,2.48,4.82.61,1.2,1.22,2.41,2.47,4.81,1.23,2.39,1.9,3.58,2.55,4.73.66,1.16,1.34,2.37,2.59,4.79,1.3,2.49,1.7,3.9,2.09,5.25.38,1.31.73,2.55,1.93,4.86,1.23,2.37,1.91,3.48,2.62,4.65.25.41.51.83.79,1.31Z" style="fill: #f2ebdd; stroke-width: 0px;"/>
        <path d="M213.18,214.29c-.13.29-.26.57-.39.85,0,.03-.02.05-.04.08-.52,1.2-1.1,2.46-2.34,4.79-1.25,2.36-1.82,3.59-2.37,4.78-.56,1.23-1.15,2.5-2.43,4.92-1.33,2.49-2.3,3.61-3.23,4.68-.9,1.03-1.75,2-2.96,4.28-1.24,2.32-1.67,3.53-2.13,4.82-.46,1.31-.95,2.65-2.25,5.11-1.25,2.35-1.76,3.54-2.29,4.81-.53,1.24-1.08,2.54-2.37,4.97-1.29,2.42-2.08,3.59-2.85,4.71-.77,1.14-1.49,2.22-2.74,4.57-1.3,2.43-2.07,3.61-2.82,4.75-.25.39-.5.77-.77,1.19h-2.43c.56-.96,1.01-1.65,1.45-2.33.76-1.14,1.47-2.23,2.72-4.58,1.3-2.45,2.1-3.62,2.86-4.76.77-1.13,1.49-2.2,2.73-4.53,1.25-2.34,1.75-3.54,2.29-4.8.53-1.25,1.08-2.54,2.37-4.97,1.24-2.33,1.67-3.55,2.13-4.83.47-1.3.95-2.65,2.25-5.1,1.33-2.49,2.29-3.6,3.23-4.67.9-1.03,1.75-2,2.96-4.29,1.27-2.37,1.81-3.55,2.39-4.81.56-1.22,1.14-2.48,2.42-4.89,1.19-2.25,1.76-3.48,2.27-4.64.02-.04.03-.07.05-.11.13-.28.26-.57.39-.86l1.9.86Z" style="fill: #f2ebdd; stroke-width: 0px;"/>
        <path d="M33.36,270.8c.48.79.97,1.6,1.63,2.8h-2.41c-.37-.65-.69-1.17-1.01-1.71-.7-1.15-1.42-2.34-2.68-4.77-1.3-2.5-1.7-3.89-2.09-5.24-.38-1.32-.74-2.56-1.94-4.87-1.24-2.39-1.91-3.58-2.56-4.73-.66-1.16-1.34-2.37-2.59-4.79-1.25-2.41-1.86-3.62-2.47-4.83-.62-1.2-1.23-2.41-2.47-4.8-1.26-2.43-1.85-3.69-2.42-4.91-.56-1.2-1.14-2.43-2.37-4.81-1.18-2.28-2.04-3.25-2.95-4.27-.95-1.07-1.94-2.18-3.24-4.7-1.26-2.43-1.87-3.67-2.47-4.87-.1-.21-.21-.41-.32-.63v-4.61c1.08,2.08,1.64,3.22,2.19,4.32.59,1.19,1.21,2.42,2.46,4.83,1.18,2.29,2.04,3.26,2.95,4.28.95,1.07,1.94,2.18,3.24,4.7,1.25,2.41,1.84,3.66,2.41,4.88.58,1.25,1.14,2.44,2.38,4.83,1.24,2.4,1.86,3.61,2.47,4.82.61,1.2,1.22,2.4,2.47,4.81,1.24,2.39,1.91,3.58,2.56,4.73.66,1.16,1.33,2.37,2.59,4.79,1.29,2.49,1.69,3.89,2.09,5.24.38,1.32.73,2.55,1.93,4.87,1.23,2.36,1.9,3.47,2.62,4.64Z" style="fill: #f2ebdd; stroke-width: 0px;"/>
        <path d="M481,219.63v4.51c-.4.83-.7,1.49-1,2.13-.56,1.22-1.14,2.49-2.42,4.9-1.33,2.5-2.3,3.61-3.24,4.68-.9,1.03-1.75,2-2.96,4.28-1.24,2.32-1.67,3.54-2.13,4.83-.47,1.3-.94,2.64-2.25,5.1-1.25,2.35-1.76,3.54-2.29,4.8-.53,1.25-1.08,2.54-2.37,4.97-1.29,2.43-2.08,3.6-2.84,4.72-.77,1.14-1.5,2.21-2.75,4.56-1.19,2.26-1.95,3.43-2.64,4.49h-2.46c.19-.3.38-.59.57-.87.75-1.14,1.46-2.23,2.71-4.58,1.3-2.45,2.09-3.62,2.86-4.75.76-1.14,1.49-2.21,2.73-4.54,1.25-2.35,1.75-3.54,2.29-4.8.53-1.25,1.08-2.54,2.37-4.97,1.23-2.33,1.67-3.54,2.12-4.83.47-1.3.95-2.65,2.25-5.11,1.33-2.49,2.29-3.6,3.23-4.67.9-1.03,1.75-2,2.96-4.29,1.26-2.36,1.83-3.6,2.38-4.79.56-1.23,1.14-2.49,2.42-4.9.16-.31.31-.6.46-.87Z" style="fill: #f2ebdd; stroke-width: 0px;"/>
        <path d="M211.9,62.57v-.03c-.16-.31-.32-.6-.48-.86-.5-.86-.91-1.5-1.33-2.16-.74-1.15-1.49-2.33-2.77-4.77-1.26-2.44-1.79-3.75-2.3-5.01-.52-1.27-1-2.47-2.23-4.84-1.21-2.32-1.95-3.38-2.74-4.49-.8-1.13-1.63-2.3-2.9-4.77-1.27-2.46-1.76-3.79-2.22-5.09-.47-1.29-.91-2.5-2.12-4.85-1.19-2.29-2.03-3.27-2.91-4.31-.92-1.09-1.88-2.21-3.18-4.72-1.31-2.53-1.61-4.01-1.89-5.43-.27-1.35-.53-2.62-1.71-4.89-1.21-2.35-1.93-3.43-2.7-4.56-.17-.26-.34-.52-.52-.79h2.49c.69,1.04,1.44,2.21,2.58,4.41,1.31,2.53,1.61,4.01,1.9,5.44.27,1.34.52,2.61,1.7,4.88,1.19,2.3,2.03,3.29,2.91,4.33.92,1.08,1.88,2.2,3.18,4.71,1.27,2.46,1.76,3.8,2.23,5.09.46,1.29.9,2.5,2.11,4.84,1.22,2.35,1.96,3.4,2.75,4.52.79,1.13,1.62,2.29,2.89,4.75,1.27,2.44,1.79,3.75,2.3,5.01.52,1.27,1,2.47,2.22,4.83,1.23,2.36,1.93,3.45,2.67,4.61.4.62.82,1.27,1.32,2.12.18.31.37.65.57,1.02l-1.82,1.01Z" style="fill: #f2ebdd; stroke-width: 0px;"/>
        <path d="M307.8,1c-.31.49-.6.92-.88,1.34-.76,1.14-1.47,2.22-2.72,4.57-1.24,2.33-1.69,3.54-2.17,4.82-.49,1.29-.98,2.62-2.29,5.06-1.25,2.35-1.74,3.55-2.27,4.82-.52,1.25-1.06,2.55-2.35,4.97-1.3,2.45-1.94,3.65-2.59,4.87-.62,1.17-1.26,2.36-2.5,4.68-1.25,2.36-1.79,3.55-2.35,4.8-.56,1.23-1.13,2.51-2.42,4.93-1.32,2.48-2.27,3.6-3.2,4.68-.89,1.03-1.73,2.01-2.94,4.3-1.27,2.37-1.82,3.55-2.42,4.79-.19.4-.37.79-.59,1.23-.12.26-.26.54-.4.84l-1.87-.93c.2-.4.38-.76.54-1.1.16-.33.3-.64.45-.94.58-1.21,1.18-2.46,2.46-4.88,1.32-2.49,2.28-3.6,3.2-4.68.89-1.04,1.73-2.02,2.95-4.3,1.25-2.36,1.78-3.55,2.35-4.8.56-1.23,1.13-2.5,2.42-4.92,1.24-2.33,1.87-3.52,2.5-4.68.65-1.23,1.29-2.42,2.59-4.87,1.25-2.34,1.74-3.53,2.26-4.79.53-1.26,1.06-2.56,2.36-5,1.24-2.33,1.69-3.54,2.17-4.82.49-1.29.98-2.62,2.29-5.07,1.29-2.43,2.07-3.61,2.82-4.74.04-.06.08-.12.12-.18h2.48Z" style="fill: #f2ebdd; stroke-width: 0px;"/>
        <path d="M34.4,1c-.74,1.1-1.44,2.18-2.65,4.45-1.24,2.34-1.7,3.55-2.18,4.83-.48,1.28-.98,2.61-2.28,5.06-1.24,2.34-1.74,3.54-2.27,4.81-.52,1.25-1.06,2.55-2.35,4.98-1.47,2.75-2.09,3.92-2.84,5.32l-2.25,4.23c-1.25,2.35-1.79,3.54-2.36,4.79-.55,1.24-1.12,2.5-2.41,4.92-1.32,2.49-2.28,3.61-3.2,4.68-.89,1.04-1.73,2.02-2.95,4.31-1.26,2.36-1.84,3.59-2.41,4.78-.58,1.21-1.17,2.47-2.46,4.88-.31.57-.56,1.08-.79,1.53v-4.53c.59-1.16.98-1.98,1.36-2.77.58-1.21,1.17-2.46,2.46-4.87,1.32-2.48,2.27-3.6,3.2-4.68.89-1.03,1.72-2.01,2.94-4.3,1.25-2.36,1.79-3.54,2.35-4.8.56-1.23,1.13-2.5,2.42-4.92l2.25-4.22c.75-1.41,1.37-2.57,2.83-5.33,1.25-2.34,1.74-3.54,2.27-4.81.52-1.25,1.06-2.55,2.35-4.98,1.24-2.33,1.69-3.54,2.17-4.82.49-1.29.99-2.62,2.29-5.07.84-1.58,1.46-2.62,2-3.47h2.51Z" style="fill: #f2ebdd; stroke-width: 0px;"/>
        <path d="M481,51.41v4.84s-.01-.03-.02-.04c-1.27-2.45-1.8-3.76-2.31-5.02-.51-1.27-1-2.47-2.22-4.82-1.21-2.33-1.95-3.38-2.74-4.5-.79-1.13-1.62-2.3-2.9-4.77-1.27-2.46-1.76-3.8-2.23-5.1-.46-1.28-.91-2.5-2.12-4.84-1.19-2.3-2.03-3.29-2.91-4.33-.92-1.08-1.87-2.2-3.18-4.71-1.31-2.53-1.6-4-1.89-5.43-.27-1.35-.52-2.62-1.71-4.89-1.22-2.36-1.93-3.43-2.7-4.57-.44-.65-.88-1.32-1.41-2.23h2.42c.24.38.47.73.71,1.08.76,1.13,1.55,2.31,2.82,4.77,1.32,2.53,1.61,4.01,1.9,5.44.27,1.34.52,2.61,1.7,4.88,1.19,2.29,2.03,3.28,2.91,4.32.92,1.08,1.88,2.2,3.18,4.72,1.27,2.46,1.76,3.8,2.23,5.09.46,1.28.91,2.5,2.12,4.84,1.22,2.35,1.96,3.41,2.76,4.52.79,1.13,1.61,2.29,2.88,4.74,1.27,2.44,1.79,3.75,2.3,5,.14.34.27.67.41,1.01Z" style="fill: #f2ebdd; stroke-width: 0px;"/>
        <path d="M416.17,135.13c-1.15-.06-2.33-.12-3.46-.71-1.65-.89-2.49-1.36-3.3-1.81-.83-.46-1.68-.93-3.39-1.85-1.66-.88-2.49-1.36-3.29-1.82-.83-.47-1.67-.96-3.38-1.87-1.71-.91-2.6-1.32-3.46-1.73-.84-.39-1.7-.8-3.36-1.68-1.55-.83-2.2-1.44-2.89-2.09-.75-.71-1.53-1.45-3.34-2.41-1.77-.94-2.76-1.25-3.71-1.54-.91-.29-1.76-.56-3.36-1.4-1.7-.91-2.61-1.32-3.48-1.71-.88-.39-1.71-.76-3.36-1.64-1.7-.91-2.6-1.32-3.46-1.72-.89-.4-1.71-.78-3.37-1.67-1.58-.83-2.25-1.42-2.96-2.04-.77-.67-1.57-1.37-3.35-2.32-1.75-.93-2.71-1.28-3.64-1.6-.89-.33-1.74-.63-3.35-1.49-1.72-.91-2.63-1.3-3.52-1.68-.89-.37-1.72-.72-3.36-1.6-1.63-.87-2.38-1.38-3.18-1.91-.8-.55-1.63-1.11-3.36-2.03-1.63-.87-2.39-1.37-3.19-1.89-.81-.53-1.64-1.09-3.37-2.01-1.71-.91-2.61-1.31-3.49-1.7-.87-.39-1.7-.77-3.35-1.65-1.69-.89-2.52-1.34-3.36-1.79-.83-.46-1.67-.91-3.36-1.81-1.61-.86-2.33-1.4-3.1-1.96-.79-.59-1.61-1.2-3.36-2.13-1.82-.97-2.94-1.18-3.94-1.37-.92-.18-1.8-.34-3.34-1.16-1.63-.87-2.36-1.39-3.15-1.94-.79-.56-1.62-1.14-3.36-2.07-1.59-.84-2.28-1.41-3.02-2-.78-.63-1.59-1.29-3.35-2.23-1.68-.89-2.53-1.33-3.37-1.76-.63-.33-1.26-.65-2.23-1.16-.29-.15-.62-.32-.98-.52-.03-.02-.08-.04-.11-.06l-.06-.03c-.25-.13-.48-.26-.7-.37-1.28-.66-2.06-1-2.81-1.33-.89-.38-1.72-.74-3.37-1.62-1.08-.58-1.78-1.01-2.36-1.39-.26-.18-.49-.34-.72-.5l-.08-.05c-.29-.21-.59-.42-.93-.64-.59-.39-1.32-.83-2.42-1.42-1.74-.92-2.69-1.28-3.61-1.62-.89-.32-1.74-.64-3.36-1.5-1.63-.87-2.37-1.38-3.16-1.93-.8-.55-1.63-1.12-3.36-2.05-1.72-.91-2.88-1.06-3.9-1.19-1.06-.13-1.89-.24-3.33-1.3-1.01-.75-1.6-1.41-2.13-2-1.21-1.35-2.17-2.19-4.9-2.2-2.72-.02-3.67,1.07-4.59,2.12-.58.66-1.19,1.35-2.4,1.98-1.63.85-2.48,1.17-3.37,1.5-.91.34-1.86.7-3.6,1.6-1.63.85-2.48,1.15-3.37,1.47-.93.32-1.89.66-3.64,1.58-1.73.89-2.57,1.4-3.39,1.89-.83.5-1.61.97-3.26,1.83-1.77.92-2.6,1.51-3.4,2.08-.01.01-.03.02-.04.03-.28.2-.57.4-.89.62-.27.18-.55.35-.84.52-.4.24-.84.48-1.34.74-1.73.9-2.57,1.42-3.38,1.92-.73.46-1.43.89-2.76,1.59-.15.09-.32.18-.5.27-.14.07-.26.14-.42.2-.35.18-.67.32-.95.44-.8.34-1.38.5-2,.66-.97.27-1.98.54-3.77,1.47-1.68.86-2.54,1.28-3.37,1.68-.86.41-1.74.83-3.45,1.73-1.75.9-2.59,1.49-3.38,2.05-.78.55-1.52,1.07-3.15,1.91-1.69.88-2.54,1.34-3.36,1.79-.86.47-1.67.92-3.36,1.8-1.59.82-2.45,1.04-3.37,1.26-.99.25-2.02.5-3.82,1.44-1.76.91-2.58,1.51-3.38,2.1-.77.56-1.5,1.09-3.11,1.93-1.71.89-2.58,1.35-3.41,1.81-.81.44-1.66.9-3.33,1.77-1.74.9-2.57,1.46-3.38,2-.8.54-1.55,1.04-3.19,1.89-1.56.81-2.43.98-3.36,1.17-1.02.21-2.08.42-3.9,1.37-1.8.93-2.61,1.61-3.38,2.27-.71.62-1.39,1.19-2.98,2.02-1.63.84-2.47,1.15-3.37,1.48-.92.33-1.88.68-3.63,1.59-1.76.91-2.58,1.5-3.39,2.07-.78.55-1.51,1.06-3.14,1.91-1.65.86-2.48,1.2-3.37,1.55-.9.37-1.82.74-3.55,1.64-1.74.9-2.58,1.45-3.4,1.97-.8.51-1.56,1.01-3.21,1.86-1.69.88-2.53,1.33-3.38,1.77-.84.44-1.68.89-3.37,1.76-1.57.82-2.45,1.02-3.37,1.22-1.01.23-2.05.47-3.86,1.41-1.77.92-2.59,1.53-3.39,2.13-.76.57-1.48,1.1-3.09,1.94-1.63.85-2.48,1.16-3.37,1.5-.92.34-1.87.69-3.61,1.6-1.72.89-2.56,1.39-3.38,1.88-.84.49-1.62.96-3.29,1.83-1.08.56-2.14.71-3.07.85-1.67.24-3.76.55-3.78,3.86-.02,3.33,1.97,3.69,3.72,4.01.91.16,1.94.35,3,.91,1.66.89,2.45,1.36,3.28,1.86.8.49,1.65,1,3.35,1.9,1.79.96,2.82,1.22,3.82,1.47.91.22,1.78.44,3.35,1.27,1.68.9,2.53,1.35,3.37,1.79.84.45,1.68.9,3.36,1.79,1.62.87,2.36,1.39,3.14,1.93.79.56,1.62,1.14,3.36,2.07,1.73.92,2.67,1.29,3.58,1.64.9.34,1.74.66,3.36,1.53,1.7.91,2.59,1.33,3.45,1.74.87.41,1.7.81,3.36,1.69,1.57.84,2.25,1.43,2.97,2.04.77.67,1.56,1.35,3.35,2.3,1.71.91,2.61,1.32,3.48,1.71.88.4,1.71.77,3.36,1.65l6.72,3.59c1.72.91,2.65,1.3,3.54,1.67.89.37,1.72.71,3.36,1.58,1.74.93,2.69,1.29,3.6,1.63.89.34,1.74.66,3.36,1.52,1.65.88,2.4,1.38,3.2,1.91.8.53,1.63,1.09,3.35,2.01,1.67.88,2.5,1.36,3.3,1.83.82.47,1.67.97,3.37,1.87,1.63.87,2.37,1.38,3.15,1.93.8.56,1.63,1.13,3.36,2.05,1.8.96,2.83,1.22,3.82,1.47.92.23,1.78.44,3.35,1.28,1.68.89,2.47,1.35,3.32,1.84.82.47,1.66.96,3.35,1.86,1.56.83,2.2,1.45,2.88,2.11.75.72,1.53,1.48,3.34,2.44,1.73.92,2.66,1.3,3.57,1.65.89.36,1.73.7,3.36,1.56,1.73.93,2.68,1.28,3.6,1.62.09.03.18.07.27.1.3.11.61.22.96.37.31.13.62.27.96.43.37.18.75.38,1.18.6,1.58.84,2.24,1.43,2.95,2.06.77.68,1.57,1.38,3.35,2.34.84.44,1.48.76,2.01,1,.35.17.66.3.95.42.21.09.4.17.6.25l.36.15c.77.32,1.58.68,2.99,1.43,1.65.87,2.42,1.36,3.24,1.87.81.5,1.65,1.03,3.37,1.94,1.71.91,2.6,1.33,3.46,1.73.88.41,1.71.8,3.36,1.68,1.65.88,2.42,1.36,3.24,1.87.81.51,1.65,1.04,3.37,1.96,1.14.61,1.84,1.22,2.45,1.76,1.18,1.03,2.19,1.92,4.97,1.94h.02l.04-.03c2.76.01,3.83-.92,4.94-1.91.65-.57,1.32-1.16,2.48-1.76,1.75-.91,2.57-1.5,3.37-2.07.78-.56,1.51-1.08,3.14-1.93,1.68-.88,2.51-1.27,3.39-1.69.85-.41,1.73-.83,3.42-1.71,1.72-.89,2.56-1.4,3.38-1.88.83-.5,1.61-.96,3.28-1.83,1.63-.84,2.48-1.13,3.37-1.43.29-.1.59-.2.92-.33.29-.1.61-.23.97-.38.31-.13.62-.28.95-.44.26-.13.54-.26.82-.41,1.81-.94,2.6-1.66,3.37-2.35.7-.64,1.36-1.24,2.92-2.05.66-.33,1.19-.57,1.61-.74.29-.11.53-.19.74-.26l.15-.05c.3-.1.59-.17.87-.24.09-.02.17-.05.26-.07.91-.24,1.9-.54,3.53-1.39,1.66-.86,2.49-1.22,3.37-1.61.88-.38,1.79-.78,3.51-1.67,1.79-.94,2.59-1.62,3.37-2.29.71-.62,1.39-1.2,2.97-2.02,1.64-.85,2.48-1.18,3.37-1.52.91-.34,1.85-.7,3.59-1.61,1.75-.9,2.58-1.46,3.39-2,.79-.54,1.54-1.04,3.17-1.89,1.61-.83,2.47-1.09,3.37-1.36.96-.29,1.95-.59,3.73-1.51,1.75-.91,2.59-1.47,3.4-2.01.79-.53,1.54-1.03,3.17-1.88,1.73-.89,2.57-1.41,3.39-1.91s1.6-.97,3.26-1.83c1.59-.84,2.46-1.09,3.37-1.35.96-.27,1.96-.57,3.74-1.49,1.7-.89,2.55-1.37,3.37-1.83.85-.48,1.65-.93,3.33-1.8,1.71-.9,2.56-1.32,3.42-1.76.84-.42,1.69-.86,3.36-1.72,1.68-.87,2.54-1.28,3.38-1.67.86-.4,1.75-.82,3.45-1.71,1.82-.94,2.62-1.64,3.38-2.33.7-.63,1.37-1.22,2.94-2.04,1.69-.88,2.54-1.3,3.39-1.72.85-.43,1.71-.86,3.41-1.74,1.63-.85,2.48-1.15,3.37-1.47.93-.33,1.88-.67,3.63-1.58,1.64-.85,2.48-1.18,3.37-1.54.89-.36,1.83-.73,3.57-1.63,1.73-.91,2.57-1.45,3.38-1.98.81-.53,1.56-1.02,3.21-1.87,1.63-.85,2.48-1.15,3.38-1.47.92-.33,1.87-.67,3.63-1.58,1.83-.95,2.61-1.71,3.37-2.45.67-.66,1.31-1.28,2.87-2.09,1.14-.6,2.37-.59,3.56-.58,1.77.01,4.2.01,4.22-3.29.02-3.31-2.38-3.43-4.13-3.52ZM416.08,139.88c-1.3-.01-2.93-.02-4.53.81-1.82.95-2.61,1.72-3.36,2.45-.68.67-1.32,1.29-2.88,2.1-1.62.84-2.47,1.15-3.37,1.46-.92.33-1.88.67-3.63,1.58-1.74.91-2.58,1.45-3.39,1.98-.81.52-1.56,1.02-3.21,1.87-1.65.86-2.49,1.2-3.38,1.55-.9.36-1.82.73-3.56,1.63-1.62.84-2.47,1.15-3.37,1.47-.93.33-1.88.67-3.64,1.58-1.68.88-2.53,1.3-3.38,1.72-.85.43-1.71.86-3.41,1.74-1.8.94-2.6,1.64-3.37,2.33-.7.63-1.37,1.22-2.95,2.04-1.67.87-2.54,1.27-3.38,1.67-.85.4-1.75.82-3.45,1.7-1.66.87-2.51,1.3-3.34,1.72-.87.44-1.72.87-3.44,1.77-1.72.89-2.57,1.37-3.4,1.84-.8.46-1.64.93-3.3,1.79-1.6.83-2.46,1.08-3.37,1.34-.97.28-1.97.57-3.75,1.49-1.72.9-2.57,1.41-3.38,1.91-.83.5-1.61.97-3.27,1.84-1.73.9-2.57,1.46-3.37,2-.8.53-1.55,1.03-3.19,1.89-1.61.83-2.46,1.09-3.37,1.36-.96.29-1.95.58-3.73,1.5-1.74.91-2.58,1.47-3.38,2.01-.8.54-1.54,1.04-3.18,1.89-1.64.85-2.48,1.18-3.38,1.51-.9.35-1.84.71-3.58,1.61-1.81.94-2.61,1.63-3.38,2.3-.72.62-1.39,1.2-2.98,2.02-1.66.86-2.49,1.23-3.38,1.61-.87.38-1.77.78-3.5,1.67-1.58.82-2.44,1.05-3.35,1.29-.26.08-.52.14-.8.22l-.16.05c-.9.28-1.78.65-2.84,1.19-1.81.94-2.6,1.66-3.36,2.35-.7.64-1.37,1.24-2.94,2.06-.6.31-1.13.56-1.64.78-.68.29-1.19.46-1.73.65-.93.31-1.9.64-3.66,1.55-1.72.9-2.56,1.4-3.38,1.89-.83.49-1.62.96-3.28,1.82-1.66.87-2.52,1.28-3.36,1.68-.86.4-1.74.83-3.46,1.72-1.76.92-2.59,1.51-3.39,2.08-.77.56-1.5,1.08-3.12,1.92-1.38.72-2.21,1.46-2.89,2.05-1.02.9-1.58,1.4-3.55,1.39h-.02c-2.01-.01-2.58-.52-3.61-1.42-.66-.58-1.49-1.31-2.85-2.04-1.66-.88-2.42-1.36-3.24-1.87s-1.66-1.04-3.37-1.95c-1.71-.91-2.6-1.33-3.46-1.73-.88-.41-1.71-.8-3.36-1.68-1.66-.88-2.43-1.37-3.25-1.88-.81-.5-1.65-1.03-3.36-1.94-1.72-.91-2.64-1.29-3.53-1.66-.19-.08-.38-.16-.58-.24-.67-.29-1.48-.65-2.79-1.35-1.57-.84-2.24-1.43-2.95-2.06-.77-.68-1.56-1.38-3.35-2.33-.88-.47-1.62-.82-2.31-1.11-.49-.2-.9-.36-1.32-.51-.89-.33-1.73-.64-3.35-1.5-1.73-.92-2.66-1.29-3.56-1.65-.89-.36-1.73-.69-3.36-1.56-1.56-.83-2.2-1.45-2.88-2.11-.75-.72-1.53-1.48-3.34-2.44-1.66-.88-2.49-1.36-3.29-1.82-.82-.48-1.67-.97-3.38-1.88-1.79-.96-2.82-1.22-3.82-1.47-.91-.23-1.78-.45-3.35-1.28-1.63-.87-2.37-1.39-3.15-1.93-.8-.56-1.63-1.13-3.36-2.06-1.67-.88-2.5-1.36-3.3-1.83-.82-.48-1.67-.97-3.36-1.87-1.63-.88-2.39-1.38-3.19-1.91-.8-.53-1.64-1.08-3.37-2.01-1.75-.92-2.69-1.28-3.6-1.63-.9-.33-1.74-.65-3.36-1.51-1.73-.92-2.65-1.3-3.54-1.67-.89-.37-1.73-.72-3.36-1.59l-6.73-3.59c-1.71-.91-2.61-1.31-3.48-1.71-.88-.39-1.71-.77-3.36-1.65-1.57-.84-2.25-1.42-2.97-2.04-.77-.66-1.56-1.34-3.35-2.3-1.69-.91-2.58-1.33-3.44-1.73-.87-.42-1.7-.81-3.36-1.7-1.74-.92-2.68-1.29-3.59-1.64-.88-.34-1.73-.66-3.35-1.53-1.63-.87-2.37-1.39-3.15-1.93-.79-.56-1.62-1.14-3.35-2.07-1.69-.89-2.53-1.34-3.37-1.79-.84-.44-1.68-.89-3.36-1.78-1.8-.96-2.83-1.22-3.83-1.47-.91-.22-1.78-.44-3.35-1.28-1.65-.87-2.46-1.36-3.25-1.84-.82-.5-1.66-1-3.38-1.91-1.34-.72-2.59-.95-3.6-1.13-1.71-.3-2.02-.36-2.01-1.94.01-1.53.31-1.57,2-1.81,1.04-.15,2.33-.34,3.72-1.07,1.73-.89,2.58-1.4,3.4-1.89.8-.47,1.62-.96,3.27-1.82,1.63-.85,2.48-1.16,3.37-1.5.92-.34,1.87-.69,3.61-1.6,1.77-.92,2.59-1.53,3.38-2.13.76-.56,1.48-1.1,3.1-1.94,1.57-.82,2.44-1.01,3.36-1.22,1.01-.23,2.05-.47,3.86-1.41,1.7-.88,2.54-1.32,3.39-1.77.84-.44,1.68-.88,3.37-1.76,1.72-.9,2.56-1.44,3.37-1.96.81-.52,1.58-1.01,3.23-1.87,1.65-.85,2.49-1.19,3.37-1.55.9-.36,1.82-.74,3.56-1.64,1.74-.91,2.58-1.49,3.37-2.06.78-.55,1.52-1.07,3.15-1.92,1.64-.85,2.49-1.15,3.38-1.48.92-.33,1.87-.68,3.62-1.58,1.79-.94,2.59-1.62,3.37-2.28.72-.62,1.4-1.19,2.98-2.02,1.57-.81,2.44-.98,3.37-1.17,1.02-.21,2.08-.42,3.91-1.37,1.73-.91,2.57-1.46,3.37-2,.8-.53,1.55-1.04,3.19-1.89,1.69-.88,2.54-1.34,3.37-1.79.82-.45,1.67-.91,3.36-1.79,1.77-.91,2.59-1.52,3.39-2.1.77-.56,1.49-1.1,3.11-1.94,1.58-.82,2.44-1.04,3.36-1.26,1-.24,2.02-.5,3.82-1.43,1.72-.89,2.58-1.36,3.41-1.82.82-.45,1.66-.9,3.33-1.77,1.75-.91,2.58-1.49,3.38-2.06.78-.54,1.51-1.06,3.14-1.91,1.69-.87,2.52-1.27,3.39-1.7.85-.4,1.73-.83,3.43-1.71,1.58-.82,2.44-1.05,3.35-1.3.9-.24,1.82-.48,3.31-1.22.16-.08.32-.15.48-.24,1.73-.9,2.58-1.42,3.39-1.93.82-.5,1.59-.99,3.24-1.84.91-.47,1.66-.91,2.37-1.37.37-.25.69-.47,1-.7.78-.55,1.51-1.07,3.14-1.92,1.72-.89,2.57-1.4,3.38-1.89.83-.5,1.61-.97,3.28-1.84,1.62-.84,2.47-1.14,3.37-1.46.92-.33,1.88-.66,3.63-1.58,1.64-.85,2.49-1.17,3.38-1.5.91-.34,1.85-.69,3.6-1.6,1.56-.81,2.36-1.72,3-2.45.83-.94,1.25-1.42,3.02-1.41h-.01c2.02.02,2.41.46,3.35,1.52.56.63,1.26,1.41,2.44,2.29,1.88,1.38,3.11,1.54,4.31,1.69.93.12,1.8.23,3.18.97,1.63.87,2.37,1.38,3.16,1.92.8.56,1.63,1.13,3.37,2.06,1.75.92,2.7,1.28,3.62,1.61.89.33,1.74.64,3.35,1.51,1.61.85,2.35,1.37,3.13,1.91l.08.06c.82.58,1.64,1.14,3.3,2.02,1.72.92,2.63,1.31,3.51,1.7.88.38,1.72.74,3.34,1.61l.18.1c1.6.84,2.42,1.27,3.26,1.69.83.44,1.68.87,3.34,1.75,1.59.85,2.28,1.41,3.02,2.01.78.63,1.59,1.28,3.36,2.22,1.62.87,2.36,1.38,3.14,1.94.8.56,1.63,1.14,3.36,2.07,1.82.97,2.9,1.17,3.94,1.37.93.17,1.81.34,3.35,1.16,1.61.86,2.34,1.4,3.1,1.96.79.59,1.61,1.2,3.36,2.13,1.68.9,2.51,1.35,3.35,1.8.83.45,1.68.9,3.36,1.8,1.71.91,2.62,1.32,3.49,1.71.88.39,1.71.76,3.36,1.64,1.64.88,2.4,1.37,3.2,1.9.81.54,1.64,1.09,3.36,2,1.63.87,2.38,1.38,3.17,1.91.81.55,1.64,1.11,3.36,2.03,1.73.92,2.64,1.31,3.53,1.69.88.37,1.72.72,3.36,1.6,1.75.93,2.7,1.27,3.63,1.6.89.32,1.74.62,3.35,1.48,1.58.84,2.26,1.43,2.97,2.05.76.67,1.56,1.37,3.34,2.32,1.72.91,2.61,1.32,3.48,1.72.88.41,1.71.79,3.36,1.66,1.71.91,2.62,1.32,3.49,1.71s1.71.76,3.35,1.64c1.77.94,2.76,1.25,3.72,1.55.9.28,1.75.54,3.35,1.4,1.56.83,2.21,1.44,2.9,2.09.75.71,1.54,1.44,3.34,2.41,1.7.9,2.59,1.32,3.45,1.72.88.42,1.71.8,3.37,1.69,1.67.89,2.47,1.35,3.31,1.83.82.47,1.67.96,3.35,1.86,1.69.9,2.5,1.35,3.35,1.82.82.46,1.67.93,3.35,1.82,1.53.82,3.08.9,4.32.96,2.01.1,2.17.21,2.16,1.42,0,1.15-.14,1.23-2.13,1.22Z" style="fill: #f2ebdd; stroke-width: 0px;"/>
        <path d="M207.28,152.52c-.09-.35-.37-.67-.72-.81-.05-.02-.1-.04-.15-.05-.06,0-.13-.02-.2-.02s-.14,0-.21.02c-.4.1-.76.45-.86.85-.02.07-.03.13-.03.2,0,.06.01.12.02.18s.03.11.05.17c.12.29.37.54.67.66.05.02.11.04.17.05s.12.02.18.02c.08,0,.16,0,.24-.02.48-.07.78-.37.84-.84,0-.07.02-.14.02-.21s-.01-.13-.02-.2ZM213.69,151.87c-.12-.65-.6-1.13-1.26-1.25-.11-.02-.22-.03-.34-.03s-.24,0-.36.03c-.66.12-1.14.59-1.26,1.24-.02.11-.03.22-.03.34s.01.24.03.36c.12.64.6,1.11,1.26,1.23.11.02.22.03.34.03s.24-.01.36-.03c.56-.1.98-.45,1.16-.95.09-.19.13-.4.13-.63,0-.11,0-.23-.03-.34ZM221.2,151.39s0-.05-.01-.08c-.01-.03-.01-.05-.02-.08-.01-.05-.02-.1-.04-.15-.03-.1-.07-.2-.12-.3-.04-.09-.09-.18-.15-.27-.08-.11-.17-.22-.26-.32-.23-.25-.54-.44-.89-.54-.11-.03-.21-.06-.32-.07-.11-.02-.22-.03-.33-.03-.16,0-.31.01-.46.04-.14.03-.28.07-.41.13-.13.06-.25.12-.37.2-.11.07-.22.16-.32.26-.08.08-.16.17-.23.27-.03.05-.07.09-.1.15-.03.05-.06.1-.09.16-.05.09-.09.19-.12.29-.03.1-.06.2-.07.31-.02.11-.03.22-.03.33v.02c0,.09.01.18.02.26.01.09.02.18.05.27.02.11.06.21.1.31.04.08.08.15.12.23.03.06.07.11.11.16.06.11.14.2.24.29.04.04.08.08.13.12.1.09.21.16.32.22.08.05.15.09.23.12.13.06.27.1.41.13.14.02.29.04.44.04h.02c.09,0,.18-.01.26-.02.09-.01.18-.02.27-.05.09-.02.18-.05.26-.08.21-.08.41-.19.59-.34.07-.06.15-.13.21-.2.06-.06.12-.13.17-.2.13-.16.22-.35.29-.54.02-.04.03-.09.04-.13.03-.08.05-.17.06-.26.02-.11.03-.21.03-.32s-.01-.22-.03-.33ZM229.81,150.89c-.02-.16-.05-.32-.1-.47-.03-.08-.06-.17-.09-.25-.13-.32-.33-.61-.59-.86-.06-.06-.12-.12-.19-.18-.07-.05-.14-.11-.21-.15-.28-.2-.61-.34-.97-.41-.17-.04-.35-.06-.54-.06h-.02c-.14,0-.27.01-.4.03-.14.02-.27.05-.4.09s-.25.08-.37.14-.24.13-.35.2c-.15.1-.28.21-.4.33-.13.12-.24.25-.34.39-.1.14-.18.3-.25.46-.07.16-.12.33-.16.5-.04.17-.06.35-.06.54-.01,1.49,1.21,2.71,2.72,2.71h.02c.14,0,.28-.01.41-.03.14-.02.27-.05.39-.09h.01c.25-.08.49-.2.7-.34h.01c.11-.08.21-.16.31-.24.09-.09.18-.18.26-.28.08-.1.16-.2.23-.31s.13-.23.18-.35c.07-.16.12-.32.16-.5.04-.17.06-.36.06-.54v-.02c0-.11-.01-.21-.02-.31ZM239.51,150.47c0-.07-.01-.13-.02-.19.01-.02.01-.03,0-.04h-.01c-.01-.08-.02-.16-.04-.24-.01-.07-.03-.15-.06-.22-.03-.1-.07-.2-.11-.3t0-.01c-.26-.58-.69-1.08-1.22-1.44-.07-.06-.15-.1-.23-.14t-.01,0c-.19-.1-.38-.18-.59-.25-.13-.04-.27-.08-.41-.1-.03,0-.07,0-.11,0-.14-.03-.29-.04-.43-.04-.23,0-.46.02-.68.07-.11.02-.21.05-.32.08-.08.02-.16.05-.23.08-.08.03-.15.06-.22.1-.11.06-.22.12-.32.18-.16.1-.3.21-.44.33-.13.12-.26.25-.37.39-.07.09-.13.17-.19.26-.08.12-.15.24-.22.37-.05.1-.09.21-.13.32-.04.1-.07.21-.09.32-.02.08-.04.16-.05.24-.03.15-.04.31-.04.47s.01.31.04.46c-.01.01-.01.03,0,.04h.01c.01.08.02.16.04.24.01.07.03.15.06.22.03.1.07.2.11.3t0,0c.26.58.69,1.08,1.22,1.44.07.06.15.1.23.14t.01,0c.19.1.38.18.59.25.13.04.27.08.41.1.03,0,.07,0,.11,0,.14.03.29.04.43.04.35,0,.68-.05,1-.14,1.41-.4,2.41-1.64,2.3-3.07,0-.09,0-.18-.02-.27ZM250.42,149.77h0c-.01-.11-.03-.21-.05-.31-.06-.32-.17-.63-.33-.92-.03-.08-.08-.15-.12-.22-.07-.12-.14-.24-.23-.34-.08-.12-.17-.22-.27-.32-.06-.06-.11-.12-.17-.17-.08-.07-.16-.14-.24-.21-.11-.09-.22-.17-.34-.23-.04-.03-.07-.05-.11-.07-.12-.07-.25-.13-.37-.19-.16-.07-.32-.13-.49-.18-.33-.1-.69-.15-1.05-.15h-.02c-.15,0-.3,0-.45.03-.27.03-.54.09-.79.18-.13.04-.26.09-.38.15-.1.04-.2.09-.29.15-.12.06-.23.13-.33.21-.36.25-.67.57-.92.93-.14.2-.26.41-.35.64-.05.1-.09.22-.12.33-.03.09-.06.18-.08.27-.02.06-.03.12-.04.18-.02.08-.03.16-.04.24-.02.15-.03.29-.03.44v.04c0,.15.01.29.03.44.02.18.05.36.11.53.01.08.03.15.06.22.02.07.05.14.08.21.04.1.09.2.14.3.07.14.15.27.23.4.05.07.1.14.16.21.04.06.09.11.14.16.12.14.25.27.39.39.07.06.14.12.22.17.08.06.15.11.23.15.1.07.21.13.33.18.16.09.33.16.51.21.06.02.11.04.16.05.06.02.11.03.17.04.11.03.23.05.34.06l.21.03c.1.01.19.01.29.01h.02c.15,0,.3-.01.45-.03.14-.02.27-.04.4-.07.13-.02.26-.06.39-.11.09-.03.18-.06.27-.1.19-.08.36-.17.53-.28.13-.08.26-.17.38-.27.43-.34.77-.77,1.01-1.27.05-.09.09-.18.12-.27.04-.09.08-.19.1-.29.04-.1.06-.19.08-.29.03-.11.05-.23.06-.35.02-.14.03-.28.03-.43v-.04c0-.15-.01-.29-.03-.44ZM260.13,150.58c0-.07-.01-.13-.02-.19.01-.02.01-.03,0-.04h-.01c0-.09-.02-.16-.04-.23-.01-.08-.03-.15-.06-.23-.03-.1-.07-.2-.11-.3t0-.01c-.26-.58-.69-1.08-1.22-1.44-.07-.06-.15-.1-.23-.14t-.01,0c-.19-.1-.38-.18-.59-.25-.13-.04-.27-.08-.41-.1-.03-.01-.07-.01-.11-.01-.14-.03-.29-.04-.43-.04-.23,0-.46.02-.68.07-1.15.24-2.1,1.1-2.47,2.19-.04.13-.08.26-.1.4-.01.04-.01.09-.02.13-.02.14-.03.28-.03.42,0,.16,0,.31.04.46-.01.01-.01.03,0,.04h.01c.01.09.02.16.04.23.01.08.03.15.06.23.03.1.07.2.11.3t0,.01c.26.58.69,1.08,1.22,1.44.07.06.15.1.23.14t.01,0c.19.1.38.18.59.25.13.04.27.08.41.1.03.01.07.01.11.01.14.03.29.04.43.04.12,0,.24-.01.36-.02.22-.02.43-.06.63-.12,0-.01,0,0,0,0,1.41-.4,2.4-1.64,2.3-3.07,0-.09,0-.18-.02-.27ZM268.86,151.1c-.02-.16-.05-.32-.1-.47-.03-.08-.06-.17-.09-.25-.14-.32-.33-.61-.59-.86-.06-.06-.12-.12-.19-.18-.07-.05-.14-.11-.21-.15-.15-.11-.31-.19-.48-.26-.07-.03-.15-.06-.22-.08-.09-.03-.18-.05-.27-.07-.09-.02-.18-.03-.27-.04s-.19-.02-.28-.02c-.38,0-.75.07-1.08.21-.16.07-.31.16-.46.25-.14.1-.28.21-.4.33-.12.12-.23.25-.33.39-.04.06-.08.12-.12.18-.01.02-.02.03-.02.05-.08.15-.15.3-.21.47-.04.14-.07.29-.09.44-.02.12-.03.24-.03.36v.02c0,.14.01.27.03.4.01.09.03.18.06.27.02.09.05.19.09.28.03.09.07.18.12.27.08.17.19.34.32.49.06.07.12.13.18.19.08.08.16.15.24.21.26.2.55.36.86.45.04.02.07.02.1.03.23.06.46.1.71.1,1.51.01,2.74-1.19,2.75-2.68v-.02c0-.11-.01-.21-.02-.31ZM276.36,151.68c-.01-.09-.03-.18-.06-.26-.02-.09-.05-.17-.08-.25-.05-.12-.11-.23-.18-.33-.04-.07-.09-.14-.15-.2-.04-.06-.09-.11-.14-.16-.07-.07-.14-.13-.22-.19-.1-.08-.21-.15-.33-.21-.1-.05-.22-.1-.34-.13-.09-.03-.19-.05-.29-.07-.05-.01-.11-.02-.18-.02-.06-.01-.12-.01-.18-.01-.16,0-.31.01-.46.04-.15.03-.28.07-.41.13-.12.05-.25.12-.36.2-.06.03-.12.08-.17.12-.11.09-.21.18-.3.29-.18.21-.32.45-.4.72-.03.11-.06.21-.07.32-.02.11-.03.21-.03.32s.01.22.03.33c.01.09.03.18.06.26.01.07.04.14.07.21.02.06.05.11.07.16.04.09.09.17.14.25.08.11.17.22.27.32.07.07.14.13.22.19.09.07.18.13.28.18.12.07.25.12.39.17.07.02.14.04.21.05.05.01.11.02.16.03.09.01.19.02.28.02s.19,0,.28-.02c.34-.04.67-.16.94-.35.1-.06.19-.13.27-.2.02-.02.04-.04.06-.06.1-.1.19-.2.27-.32.1-.15.19-.31.25-.49.02-.04.03-.08.04-.13.03-.09.05-.18.06-.27.02-.1.03-.21.03-.31,0-.11-.01-.22-.03-.33ZM282.77,152.24c-.1-.56-.46-.98-.97-1.16-.09-.04-.2-.07-.3-.09-.11-.03-.22-.04-.33-.04-.12,0-.24.01-.35.03-.56.1-.98.45-1.17.96-.09.19-.13.4-.13.63,0,.11.01.23.03.34.12.65.59,1.13,1.25,1.25.11.02.23.03.35.03.11,0,.22-.01.32-.03.1-.02.2-.05.29-.09.19-.07.36-.19.52-.32.07-.07.14-.15.2-.23.06-.08.11-.16.15-.24.02-.05.05-.09.06-.15,0,0,.01-.01.01-.02.03-.06.05-.13.06-.21.03-.1.04-.21.04-.32s-.01-.23-.03-.34ZM288.1,152.95c-.09-.35-.37-.67-.72-.81-.05-.02-.1-.04-.15-.05-.06-.01-.13-.02-.2-.02s-.13,0-.2.02c-.4.1-.76.45-.87.84-.02.07-.03.14-.03.21,0,.06.01.12.02.18s.03.12.05.17c.12.29.37.54.67.66.02.02.05.03.08.03.03.01.06.02.09.02.06.01.12.02.18.02.07,0,.13,0,.2-.02.04,0,.07-.01.1-.02.03-.01.07-.02.1-.03.34-.15.6-.51.7-1,0-.07-.01-.13-.02-.2Z" style="fill: #f2ebdd; stroke-width: 0px;"/>
        <path d="M179.83,132.89c.96-.27.96-.67,1.1-1.88v-.27c.14-1.48.56-2.02,1.93-2.28l.82-.27,4.01,15.52c.94,3.24-1.92,1.61-1.38,3.9l.4,1.62c4.24-1.19,8.34-2.25,12.71-3.17l-.4-1.62c-.53-2.29-2.32.52-3.12-2.58l-4.01-15.52.82-.27c1.37-.39,2.05-.12,2.86,1.09l.13.14c.81,1.08.95,1.35,1.91,1.09l1.64-.39-1.74-6.75c-7.11,1.45-14.22,3.29-21.06,5.28l1.74,6.75,1.64-.39h0Z" style="fill: #f2ebdd; stroke-width: 0px;"/>
        <path d="M205.26,125.62l2.25,13.63c.53,3.37-1.92,1.47-1.66,3.77l.27,1.62c4.1-.79,8.34-1.44,12.43-1.95l-.27-1.62c-.39-2.29-2.19.39-2.72-3.11l-2.11-13.63c-.53-3.37,1.92-1.47,1.66-3.77l-.39-2.16c-4.24.51-8.34,1.17-12.43,1.95l.26,2.16c.39,2.29,2.19-.25,2.71,3.11Z" style="fill: #f2ebdd; stroke-width: 0px;"/>
        <path d="M221.52,122.06l8.09,19.45c1.92-.13,3.96-.25,5.87-.37l5.7-19.65c.69-2.15,2.61-1.61,2.47-2.95l-.12-2.02c-2.87-.01-5.6.11-8.47.23l.12,2.16c.13,1.62,2.04.55,2.17,2.3,0,.54-.14,1.48-.42,2.42l-2.09,8.21h-.14s-4.05-9.46-4.05-9.46c-1.21-2.7,2.19-1.34,2.06-3.36l-.12-2.29c-4.51.25-9.02.62-13.52,1.14l.12,1.89c.13,1.76,1.5.54,2.31,2.3h0Z" style="fill: #f2ebdd; stroke-width: 0px;"/>
        <path d="M278.44,124.12l-2.39,13.61c-.56,3.37-2.33.79-2.75,3.08l-.29,1.75c6,.7,12.01,1.68,17.87,2.92l1.54-7.27-1.36-.28c-3.14-.42-1.66,3.77-6.84,2.93h-.28s2.68-15.49,2.68-15.49c.56-3.37,2.33-.8,2.75-3.08l.42-2.02c-4.09-.69-8.32-1.39-12.55-1.96l-.42,2.02c-.29,2.16,2.18.42,1.61,3.78h.01Z" style="fill: #f2ebdd; stroke-width: 0px;"/>
        <path d="M300.41,128.28l-3.48,13.33c-.84,3.36-2.46.66-3.02,2.81l-.42,1.62c4.09.97,8.18,1.93,12.27,3.03l.42-1.62c.56-2.15-2.18-.55-1.21-3.92l3.48-13.33c.84-3.36,2.46-.66,3.02-2.81l.56-2.15c-4.09-1.1-8.18-2.2-12.28-3.03l-.69,2.15c-.56,2.15,2.18.55,1.34,3.92Z" style="fill: #f2ebdd; stroke-width: 0px;"/>
        <path d="M246.61,154.01c2.11.01,3.83-1.67,3.84-3.75.01-2.09-1.69-3.78-3.8-3.8-2.11-.01-3.83,1.67-3.84,3.75-.01,2.09,1.69,3.78,3.8,3.8Z" style="fill: #f2ebdd; stroke-width: 0px;"/>
        <path d="M236.23,153.95c1.81,0,3.29-1.43,3.3-3.22.01-1.79-1.45-3.24-3.26-3.25-1.81,0-3.29,1.43-3.3,3.22s1.45,3.24,3.26,3.25Z" style="fill: #f2ebdd; stroke-width: 0px;"/>
        <path d="M227.09,153.9c1.51,0,2.74-1.19,2.75-2.68,0-1.49-1.21-2.7-2.72-2.71-1.51,0-2.74,1.19-2.75,2.68,0,1.49,1.21,2.7,2.72,2.71Z" style="fill: #f2ebdd; stroke-width: 0px;"/>
        <path d="M219.03,153.86c1.21,0,2.19-.95,2.2-2.14,0-1.19-.97-2.16-2.17-2.17-1.21,0-2.19.95-2.2,2.14,0,1.19.97,2.16,2.17,2.17Z" style="fill: #f2ebdd; stroke-width: 0px;"/>
        <path d="M212.07,153.82c.91,0,1.64-.72,1.65-1.61,0-.9-.73-1.62-1.63-1.63-.91,0-1.64.72-1.65,1.61,0,.9.73,1.62,1.63,1.63Z" style="fill: #f2ebdd; stroke-width: 0px;"/>
        <path d="M206.2,153.79c.6,0,1.1-.48,1.1-1.07,0-.59-.48-1.08-1.09-1.08-.6,0-1.1.48-1.1,1.07,0,.59.48,1.08,1.09,1.08Z" style="fill: #f2ebdd; stroke-width: 0px;"/>
        <path d="M256.85,154.06c1.81.01,3.29-1.43,3.3-3.22.01-1.79-1.45-3.24-3.26-3.25-1.81-.01-3.29,1.43-3.3,3.22-.01,1.79,1.45,3.24,3.26,3.25Z" style="fill: #f2ebdd; stroke-width: 0px;"/>
        <path d="M266.13,154.11c1.51,0,2.74-1.19,2.75-2.68,0-1.49-1.21-2.7-2.72-2.71-1.51,0-2.74,1.19-2.75,2.68,0,1.49,1.21,2.7,2.72,2.71Z" style="fill: #f2ebdd; stroke-width: 0px;"/>
        <path d="M274.19,154.16c1.21,0,2.19-.95,2.2-2.14,0-1.19-.97-2.16-2.17-2.17-1.21,0-2.19.95-2.2,2.14,0,1.19.97,2.16,2.17,2.17Z" style="fill: #f2ebdd; stroke-width: 0px;"/>
        <path d="M281.15,154.19c.91,0,1.64-.72,1.65-1.61,0-.9-.72-1.62-1.63-1.63-.91,0-1.64.72-1.65,1.61,0,.9.73,1.62,1.63,1.63Z" style="fill: #f2ebdd; stroke-width: 0px;"/>
        <path d="M287.02,154.22c.6,0,1.1-.48,1.1-1.07,0-.59-.48-1.08-1.09-1.08-.6,0-1.1.48-1.1,1.07s.48,1.08,1.09,1.08Z" style="fill: #f2ebdd; stroke-width: 0px;"/>
        <path d="M262.78,116.89c-1.36-.41-2.72-.68-4.09-.69-1.5-.14-2.87-.02-4.23.25-5.33,1.05-9.59,4.79-10.03,11.67-.45,7.41,4.17,11.62,9.89,12.99.96.28,2.05.42,3,.42,1.1,0,2.19,0,3.14-.12,5.74-.77,10.68-4.52,11.12-11.8.32-7.01-3.62-11.21-8.8-12.72ZM261.63,129.01c-.46,9.3-2.79,9.43-4.15,9.42-1.36-.01-3.68-.42-3.23-9.73.46-9.29,2.79-9.42,4.15-9.41,1.5.01,3.69.43,3.23,9.72Z" style="fill: #f2ebdd; stroke-width: 0px;"/>
      </g>
    </g>
  </g>
</svg>