<svg fill="none" xmlns="http://www.w3.org/2000/svg">
<path d="M470.39 1H11.61C5.75026 1 1 5.75026 1 11.61V262.99C1 268.85 5.75026 273.6 11.61 273.6H470.39C476.25 273.6 481 268.85 481 262.99V11.61C481 5.75026 476.25 1 470.39 1Z" stroke="#FDF8EE" stroke-width="2" stroke-miterlimit="10"/>
<path d="M2.87 86.47C2.11 87.89 1.52 88.88 1 89.67V85.55C1 85.55 1.03 85.5 1.04 85.48C2.29 83.13 2.81 81.94 3.35 80.68C3.89 79.44 4.45 78.16 5.74 75.73C7 73.35 7.62 72.13 8.23 70.95C8.84 69.77 9.47 68.54 10.74 66.14C12.06 63.66 12.97 62.53 13.85 61.44C14.71 60.38 15.52 59.38 16.74 57.08C18.05 54.63 18.86 53.47 19.65 52.35C20.44 51.23 21.18 50.17 22.42 47.84C23.62 45.59 23.86 44.32 24.11 42.97C24.39 41.52 24.67 40.02 26.01 37.5C27.32 35.04 28.17 33.89 28.99 32.78C29.81 31.68 30.58 30.64 31.81 28.33C33.08 25.93 33.72 24.74 34.37 23.54C35.01 22.35 35.65 21.17 36.91 18.79C38.17 16.43 38.7 15.25 39.26 13.99C39.81 12.76 40.38 11.48 41.67 9.06C42.96 6.63 43.74 5.45 44.48 4.31C45.09 3.4 45.66 2.52 46.51 1H48.86C47.67 3.23 46.93 4.36 46.21 5.45C45.46 6.6 44.75 7.68 43.5 10.02C42.24 12.38 41.71 13.57 41.15 14.83C40.6 16.06 40.03 17.34 38.74 19.76C37.47 22.14 36.83 23.33 36.19 24.52C35.55 25.71 34.9 26.9 33.63 29.29C32.32 31.75 31.47 32.9 30.65 34.01C29.84 35.11 29.07 36.15 27.83 38.47C26.64 40.72 26.4 41.99 26.14 43.35C25.87 44.79 25.59 46.29 24.25 48.82C22.94 51.26 22.13 52.42 21.34 53.54C20.56 54.66 19.81 55.72 18.57 58.06C17.26 60.54 16.34 61.67 15.46 62.76C14.6 63.82 13.79 64.82 12.57 67.12C11.3 69.5 10.68 70.72 10.07 71.9C9.46 73.09 8.84 74.32 7.56 76.71C6.31 79.06 5.8 80.25 5.25 81.52C4.71 82.76 4.15 84.04 2.87 86.47Z" fill="#FDF8EE"/>
<path d="M49.96 273.05C50 273.23 50.04 273.42 50.07 273.6H47.95C47.95 273.6 47.94 273.52 47.93 273.48C47.66 272.14 47.4 270.86 46.23 268.59C45.01 266.24 44.29 265.17 43.52 264.03C42.77 262.89 41.98 261.72 40.7 259.26C39.46 256.87 38.81 255.67 38.18 254.5C37.54 253.32 36.89 252.11 35.63 249.7C34.43 247.37 33.66 246.33 32.85 245.22C32.03 244.1 31.18 242.95 29.9 240.47C28.6 237.97 28.25 236.53 27.91 235.15C27.58 233.82 27.27 232.56 26.08 230.28C24.84 227.89 24.19 226.68 23.55 225.52C22.91 224.34 22.25 223.13 20.99 220.72C19.78 218.39 19.04 217.33 18.26 216.22C17.46 215.09 16.64 213.93 15.36 211.46C14.11 209.04 13.51 207.8 12.93 206.59C12.36 205.4 11.76 204.17 10.53 201.78C9.23 199.28 8.85 197.87 8.48 196.5C8.13 195.18 7.8 193.93 6.6 191.63C5.38 189.26 4.69 188.15 3.97 186.99C3.25 185.84 2.52 184.65 1.26 182.21C1.17 182.04 1.09 181.87 1 181.72V177.65C1.58 178.51 2.24 179.58 3.1 181.24C4.33 183.61 5.01 184.71 5.73 185.88C6.44 187.03 7.18 188.22 8.44 190.66C9.74 193.16 10.12 194.57 10.49 195.94C10.84 197.26 11.17 198.51 12.37 200.81C13.62 203.23 14.22 204.47 14.8 205.68C15.37 206.87 15.97 208.1 17.2 210.49C18.42 212.83 19.16 213.89 19.95 215.01C20.74 216.13 21.56 217.3 22.84 219.75C24.08 222.14 24.73 223.34 25.37 224.51C26.02 225.68 26.68 226.9 27.93 229.31C29.23 231.81 29.58 233.25 29.92 234.64C30.25 235.97 30.56 237.22 31.75 239.5C32.95 241.83 33.72 242.88 34.53 243.98C35.35 245.1 36.2 246.25 37.48 248.72C38.72 251.12 39.37 252.32 40 253.49C40.63 254.66 41.29 255.88 42.54 258.28C43.76 260.63 44.48 261.71 45.24 262.85C46 263.98 46.79 265.16 48.06 267.61C49.38 270.15 49.67 271.62 49.96 273.05Z" fill="#FDF8EE"/>
<path d="M201.76 207.4L201.63 207.7C201.54 207.93 201.45 208.16 201.35 208.4C200.92 209.47 200.38 210.69 199.34 212.64C198 215.16 196.96 216.25 195.95 217.29C195 218.28 194.1 219.21 192.89 221.47C191.62 223.87 190.93 225.07 190.26 226.22C189.6 227.37 188.91 228.55 187.65 230.94C186.44 233.21 186.13 234.47 185.79 235.8C185.44 237.19 185.08 238.63 183.75 241.12C182.46 243.56 181.65 244.73 180.87 245.85C180.09 246.98 179.36 248.04 178.12 250.38C176.84 252.77 176.14 253.97 175.47 255.12C174.77 256.32 174.12 257.46 172.85 259.84C171.56 262.27 170.78 263.45 170.03 264.58C169.27 265.72 168.55 266.8 167.3 269.15C166.18 271.26 165.7 272.44 165.27 273.6H163.04C163.09 273.48 163.13 273.35 163.18 273.23C163.66 271.94 164.16 270.61 165.46 268.16C166.76 265.73 167.54 264.55 168.29 263.42C169.05 262.28 169.76 261.2 171.01 258.85C172.3 256.43 173 255.23 173.67 254.07C174.33 252.93 175.02 251.75 176.27 249.4C177.57 246.95 178.37 245.79 179.16 244.67C179.94 243.55 180.67 242.48 181.91 240.15C183.12 237.87 183.43 236.62 183.77 235.29C184.12 233.9 184.48 232.46 185.81 229.96C187.09 227.55 187.78 226.35 188.45 225.18C189.12 224.04 189.8 222.86 191.05 220.49C192.4 217.98 193.44 216.89 194.45 215.85C195.4 214.86 196.3 213.92 197.5 211.67C198.5 209.8 199.01 208.62 199.43 207.6C199.52 207.37 199.61 207.15 199.7 206.93L199.83 206.62L201.76 207.4Z" fill="#FDF8EE"/>
<path d="M204.4 66.84L202.55 67.79C202.37 67.45 202.22 67.13 202.07 66.84C201.35 65.39 200.94 64.43 200.53 63.51C200.01 62.3 199.47 61.06 198.24 58.69C197.05 56.39 196.2 55.41 195.31 54.38C194.38 53.3 193.42 52.18 192.12 49.68C190.85 47.23 190.35 45.91 189.86 44.63C189.37 43.35 188.91 42.14 187.69 39.78C186.48 37.43 185.75 36.36 184.99 35.23C184.23 34.09 183.44 32.92 182.16 30.47C180.88 27.98 180.46 26.59 180.06 25.24C179.67 23.94 179.3 22.7 178.1 20.39C176.89 18.04 176.16 16.96 175.4 15.83C174.64 14.69 173.85 13.52 172.58 11.06C171.35 8.7 170.64 7.54 169.96 6.42C169.26 5.26 168.54 4.07 167.27 1.63C167.16 1.41 167.05 1.2 166.95 1H169.3C170.42 3.15 171.07 4.21 171.74 5.33C172.45 6.48 173.17 7.67 174.43 10.1C175.65 12.45 176.37 13.52 177.13 14.66C177.89 15.8 178.68 16.97 179.95 19.43C181.24 21.92 181.65 23.31 182.05 24.65C182.44 25.96 182.82 27.2 184.01 29.51C185.23 31.86 185.95 32.93 186.71 34.07C187.48 35.2 188.27 36.37 189.54 38.83C190.82 41.29 191.32 42.61 191.81 43.89C192.29 45.17 192.76 46.37 193.97 48.72C195.16 51 196 51.98 196.89 53.02C197.82 54.1 198.79 55.22 200.09 57.73C201.35 60.16 201.91 61.43 202.44 62.67C202.85 63.62 203.25 64.53 203.94 65.93C204.08 66.21 204.23 66.51 204.4 66.84Z" fill="#FDF8EE"/>
<path d="M285.89 67.14L284.11 66.07C284.3 65.75 284.48 65.47 284.65 65.2C285.28 64.24 285.82 63.57 286.34 62.92C287.2 61.86 288.01 60.86 289.23 58.56C290.53 56.12 291.34 54.95 292.13 53.83C292.92 52.71 293.66 51.66 294.9 49.32C296.1 47.07 296.34 45.79 296.59 44.44C296.87 42.99 297.15 41.49 298.49 38.97C299.8 36.51 300.65 35.36 301.48 34.25C302.29 33.15 303.06 32.11 304.29 29.79C305.57 27.39 306.21 26.2 306.86 25C307.5 23.82 308.14 22.63 309.4 20.25C310.65 17.9 311.19 16.71 311.75 15.46C312.3 14.22 312.87 12.95 314.16 10.53C315.45 8.09 316.23 6.91 316.97 5.78C317.72 4.63 318.44 3.55 319.68 1.21C319.72 1.14 319.76 1.07 319.79 1H322.18C321.98 1.36 321.76 1.75 321.53 2.19C320.23 4.62 319.46 5.79 318.72 6.93C317.96 8.07 317.25 9.16 316 11.51C314.75 13.87 314.22 15.05 313.66 16.31C313.1 17.54 312.53 18.82 311.25 21.24C309.98 23.62 309.34 24.81 308.7 25.99C308.05 27.19 307.41 28.38 306.14 30.78C304.83 33.23 303.98 34.38 303.16 35.49C302.34 36.59 301.57 37.63 300.34 39.95C299.14 42.2 298.9 43.48 298.65 44.83C298.37 46.27 298.09 47.77 296.75 50.3C295.45 52.75 294.63 53.92 293.84 55.04C293.06 56.16 292.31 57.21 291.07 59.54C289.76 62.01 288.84 63.14 287.96 64.23C287.48 64.82 287.03 65.39 286.5 66.18C286.31 66.46 286.11 66.78 285.89 67.14Z" fill="#FDF8EE"/>
<path d="M320.55 269.08C321.59 271.08 321.98 272.42 322.25 273.6H320.09C319.85 272.65 319.48 271.58 318.69 270.05C317.47 267.7 316.75 266.62 315.99 265.48C315.23 264.35 314.44 263.17 313.17 260.72C311.92 258.32 311.27 257.12 310.64 255.95C310 254.78 309.34 253.56 308.09 251.16C306.88 248.82 306.12 247.78 305.31 246.68C304.49 245.56 303.65 244.41 302.36 241.94C301.06 239.42 300.71 237.99 300.37 236.6C300.04 235.28 299.73 234.02 298.54 231.73C297.31 229.34 296.65 228.14 296.01 226.98C295.37 225.81 294.71 224.59 293.46 222.18C292.25 219.85 291.5 218.79 290.72 217.68C289.93 216.55 289.11 215.39 287.83 212.92C286.72 210.77 286.13 209.56 285.59 208.46C285.5 208.26 285.4 208.07 285.31 207.87L285.2 207.63L287.08 206.73L287.2 206.97C287.33 207.26 287.47 207.54 287.61 207.84C288.11 208.85 288.68 210.01 289.69 211.96C290.9 214.3 291.65 215.36 292.43 216.48C293.22 217.6 294.04 218.77 295.32 221.22C296.56 223.61 297.22 224.82 297.85 225.98C298.49 227.15 299.15 228.36 300.41 230.78C301.71 233.28 302.06 234.72 302.4 236.1C302.73 237.43 303.04 238.68 304.23 240.97C305.44 243.3 306.2 244.34 307 245.44C307.82 246.56 308.67 247.72 309.95 250.19C311.2 252.58 311.85 253.79 312.48 254.95C313.12 256.13 313.78 257.34 315.02 259.76C316.24 262.1 316.96 263.18 317.73 264.32C318.48 265.45 319.27 266.63 320.55 269.08Z" fill="#FDF8EE"/>
<path d="M481 78.87V82.91C480.47 82.2 479.92 81.31 479.28 80.09C477.99 77.59 477.61 76.17 477.25 74.8C476.9 73.48 476.57 72.23 475.38 69.93C474.12 67.5 473.56 66.22 473.02 64.98C472.5 63.78 471.95 62.53 470.73 60.16C469.54 57.87 468.69 56.89 467.8 55.85C466.88 54.77 465.92 53.65 464.62 51.15C463.34 48.69 462.84 47.37 462.35 46.08C461.86 44.81 461.4 43.6 460.19 41.26C458.97 38.91 458.25 37.83 457.48 36.7C456.71 35.57 455.92 34.4 454.65 31.94C453.36 29.45 452.95 28.07 452.55 26.72C452.16 25.41 451.8 24.18 450.59 21.86C449.37 19.51 448.65 18.43 447.89 17.3C447.13 16.16 446.34 14.99 445.07 12.53C443.84 10.16 443.16 9.05 442.45 7.88C441.75 6.72 441.02 5.53 439.76 3.1C439.35 2.3 439.02 1.61 438.76 1H441.05C441.21 1.35 441.4 1.73 441.61 2.14C442.84 4.51 443.51 5.62 444.23 6.8C444.93 7.95 445.66 9.15 446.91 11.58C448.13 13.93 448.85 15.01 449.62 16.15C450.37 17.28 451.17 18.46 452.44 20.91C453.73 23.4 454.14 24.79 454.55 26.14C454.94 27.45 455.3 28.68 456.51 30.99C457.72 33.34 458.44 34.41 459.21 35.55C459.98 36.68 460.77 37.85 462.04 40.31C463.31 42.76 463.82 44.08 464.3 45.36C464.79 46.64 465.25 47.85 466.47 50.2C467.66 52.5 468.5 53.48 469.39 54.51C470.32 55.59 471.28 56.71 472.58 59.22C473.84 61.65 474.4 62.93 474.94 64.16C475.49 65.43 476 66.62 477.24 68.99C478.53 71.49 478.91 72.91 479.27 74.28C479.6 75.54 479.92 76.75 481 78.87Z" fill="#FDF8EE"/>
<path d="M478.96 193.38C479.74 191.92 480.39 190.94 481 190.16V194.03C480.95 194.14 480.88 194.25 480.82 194.37C479.59 196.7 479.14 197.91 478.67 199.19C478.2 200.49 477.71 201.82 476.4 204.27C475.15 206.61 474.68 207.82 474.17 209.09C473.66 210.36 473.14 211.67 471.84 214.11C470.5 216.62 469.46 217.71 468.45 218.75C467.5 219.74 466.6 220.67 465.4 222.93C464.12 225.33 463.43 226.53 462.76 227.69C462.1 228.84 461.41 230.02 460.15 232.4C458.93 234.68 458.62 235.94 458.29 237.26C457.94 238.65 457.58 240.09 456.25 242.59C454.95 245.03 454.15 246.2 453.37 247.32C452.58 248.45 451.85 249.51 450.61 251.84C449.33 254.25 448.63 255.44 447.96 256.6C447.3 257.74 446.61 258.93 445.35 261.3C444.06 263.73 443.28 264.89 442.53 266.03C441.76 267.18 441.05 268.26 439.8 270.6C439.12 271.87 438.68 272.81 438.35 273.6H436.08C436.48 272.59 437 271.4 437.94 269.62C439.24 267.18 440.02 266.01 440.77 264.87C441.53 263.73 442.25 262.65 443.49 260.31C444.77 257.9 445.47 256.7 446.14 255.55C446.8 254.4 447.49 253.22 448.75 250.85C450.05 248.41 450.86 247.24 451.64 246.12C452.42 244.99 453.15 243.93 454.39 241.6C455.6 239.32 455.92 238.07 456.25 236.74C456.59 235.35 456.95 233.91 458.29 231.41C459.57 229 460.27 227.8 460.94 226.63C461.6 225.49 462.28 224.31 463.54 221.95C464.88 219.43 465.92 218.34 466.93 217.3C467.88 216.31 468.78 215.38 469.99 213.12C471.23 210.78 471.71 209.58 472.21 208.31C472.72 207.04 473.24 205.73 474.55 203.28C475.78 200.96 476.22 199.75 476.69 198.46C477.17 197.17 477.66 195.83 478.96 193.38Z" fill="#FDF8EE"/>
<path d="M308.26 273.6H305.84C305.79 273.52 305.74 273.44 305.69 273.36C304.99 272.21 304.27 271.02 303 268.59C301.71 266.1 301.31 264.7 300.92 263.35C300.54 262.03 300.18 260.8 298.98 258.48C297.75 256.1 297.08 254.91 296.43 253.76C295.77 252.59 295.09 251.38 293.83 248.97C292.58 246.55 291.97 245.35 291.35 244.14C290.74 242.94 290.13 241.73 288.89 239.34C287.63 236.92 287.05 235.66 286.48 234.45C285.92 233.25 285.33 232.01 284.1 229.63C282.91 227.34 282.06 226.38 281.15 225.35C280.2 224.28 279.21 223.17 277.91 220.65C276.65 218.22 276.03 216.98 275.43 215.78C275.27 215.47 275.12 215.16 274.95 214.83C274.82 214.57 274.68 214.29 274.53 214L276.39 213.06C276.57 213.4 276.73 213.72 276.87 214.01C277.02 214.3 277.16 214.58 277.29 214.85C277.92 216.1 278.5 217.27 279.75 219.69C280.94 221.97 281.8 222.94 282.71 223.97C283.66 225.04 284.65 226.15 285.95 228.67C287.21 231.09 287.79 232.35 288.36 233.56C288.93 234.76 289.5 236 290.74 238.38C291.98 240.78 292.6 241.99 293.22 243.2C293.83 244.4 294.44 245.61 295.69 248.01C296.92 250.4 297.59 251.59 298.24 252.74C298.9 253.9 299.58 255.11 300.83 257.53C302.13 260.02 302.53 261.43 302.92 262.78C303.3 264.09 303.65 265.33 304.85 267.64C306.08 270.01 306.76 271.12 307.47 272.29C307.72 272.7 307.98 273.12 308.26 273.6Z" fill="#FDF8EE"/>
<path d="M213.18 214.29C213.05 214.58 212.92 214.86 212.79 215.14C212.79 215.17 212.77 215.19 212.75 215.22C212.23 216.42 211.65 217.68 210.41 220.01C209.16 222.37 208.59 223.6 208.04 224.79C207.48 226.02 206.89 227.29 205.61 229.71C204.28 232.2 203.31 233.32 202.38 234.39C201.48 235.42 200.63 236.39 199.42 238.67C198.18 240.99 197.75 242.2 197.29 243.49C196.83 244.8 196.34 246.14 195.04 248.6C193.79 250.95 193.28 252.14 192.75 253.41C192.22 254.65 191.67 255.95 190.38 258.38C189.09 260.8 188.3 261.97 187.53 263.09C186.76 264.23 186.04 265.31 184.79 267.66C183.49 270.09 182.72 271.27 181.97 272.41C181.72 272.8 181.47 273.18 181.2 273.6H178.77C179.33 272.64 179.78 271.95 180.22 271.27C180.98 270.13 181.69 269.04 182.94 266.69C184.24 264.24 185.04 263.07 185.8 261.93C186.57 260.8 187.29 259.73 188.53 257.4C189.78 255.06 190.28 253.86 190.82 252.6C191.35 251.35 191.9 250.06 193.19 247.63C194.43 245.3 194.86 244.08 195.32 242.8C195.79 241.5 196.27 240.15 197.57 237.7C198.9 235.21 199.86 234.1 200.8 233.03C201.7 232 202.55 231.03 203.76 228.74C205.03 226.37 205.57 225.19 206.15 223.93C206.71 222.71 207.29 221.45 208.57 219.04C209.76 216.79 210.33 215.56 210.84 214.4C210.86 214.36 210.87 214.33 210.89 214.29C211.02 214.01 211.15 213.72 211.28 213.43L213.18 214.29Z" fill="#FDF8EE"/>
<path d="M33.36 270.8C33.84 271.59 34.33 272.4 34.99 273.6H32.58C32.21 272.95 31.89 272.43 31.57 271.89C30.87 270.74 30.15 269.55 28.89 267.12C27.59 264.62 27.19 263.23 26.8 261.88C26.42 260.56 26.06 259.32 24.86 257.01C23.62 254.62 22.95 253.43 22.3 252.28C21.64 251.12 20.96 249.91 19.71 247.49C18.46 245.08 17.85 243.87 17.24 242.66C16.62 241.46 16.01 240.25 14.77 237.86C13.51 235.43 12.92 234.17 12.35 232.95C11.79 231.75 11.21 230.52 9.98 228.14C8.8 225.86 7.94 224.89 7.03 223.87C6.08 222.8 5.09 221.69 3.79 219.17C2.53 216.74 1.92 215.5 1.32 214.3C1.22 214.09 1.11 213.89 1 213.67V209.06C2.08 211.14 2.64 212.28 3.19 213.38C3.78 214.57 4.4 215.8 5.65 218.21C6.83 220.5 7.69 221.47 8.6 222.49C9.55 223.56 10.54 224.67 11.84 227.19C13.09 229.6 13.68 230.85 14.25 232.07C14.83 233.32 15.39 234.51 16.63 236.9C17.87 239.3 18.49 240.51 19.1 241.72C19.71 242.92 20.32 244.12 21.57 246.53C22.81 248.92 23.48 250.11 24.13 251.26C24.79 252.42 25.46 253.63 26.72 256.05C28.01 258.54 28.41 259.94 28.81 261.29C29.19 262.61 29.54 263.84 30.74 266.16C31.97 268.52 32.64 269.63 33.36 270.8Z" fill="#FDF8EE"/>
<path d="M481 219.63V224.14C480.6 224.97 480.3 225.63 480 226.27C479.44 227.49 478.86 228.76 477.58 231.17C476.25 233.67 475.28 234.78 474.34 235.85C473.44 236.88 472.59 237.85 471.38 240.13C470.14 242.45 469.71 243.67 469.25 244.96C468.78 246.26 468.31 247.6 467 250.06C465.75 252.41 465.24 253.6 464.71 254.86C464.18 256.11 463.63 257.4 462.34 259.83C461.05 262.26 460.26 263.43 459.5 264.55C458.73 265.69 458 266.76 456.75 269.11C455.56 271.37 454.8 272.54 454.11 273.6H451.65C451.84 273.3 452.03 273.01 452.22 272.73C452.97 271.59 453.68 270.5 454.93 268.15C456.23 265.7 457.02 264.53 457.79 263.4C458.55 262.26 459.28 261.19 460.52 258.86C461.77 256.51 462.27 255.32 462.81 254.06C463.34 252.81 463.89 251.52 465.18 249.09C466.41 246.76 466.85 245.55 467.3 244.26C467.77 242.96 468.25 241.61 469.55 239.15C470.88 236.66 471.84 235.55 472.78 234.48C473.68 233.45 474.53 232.48 475.74 230.19C477 227.83 477.57 226.59 478.12 225.4C478.68 224.17 479.26 222.91 480.54 220.5C480.7 220.19 480.85 219.9 481 219.63Z" fill="#FDF8EE"/>
<path d="M211.9 62.57V62.54C211.74 62.23 211.58 61.94 211.42 61.68C210.92 60.82 210.51 60.18 210.09 59.52C209.35 58.37 208.6 57.19 207.32 54.75C206.06 52.31 205.53 51 205.02 49.74C204.5 48.47 204.02 47.27 202.79 44.9C201.58 42.58 200.84 41.52 200.05 40.41C199.25 39.28 198.42 38.11 197.15 35.64C195.88 33.18 195.39 31.85 194.93 30.55C194.46 29.26 194.02 28.05 192.81 25.7C191.62 23.41 190.78 22.43 189.9 21.39C188.98 20.3 188.02 19.18 186.72 16.67C185.41 14.14 185.11 12.66 184.83 11.24C184.56 9.89 184.3 8.62 183.12 6.35C181.91 4 181.19 2.92 180.42 1.79C180.25 1.53 180.08 1.27 179.9 1H182.39C183.08 2.04 183.83 3.21 184.97 5.41C186.28 7.94 186.58 9.42 186.87 10.85C187.14 12.19 187.39 13.46 188.57 15.73C189.76 18.03 190.6 19.02 191.48 20.06C192.4 21.14 193.36 22.26 194.66 24.77C195.93 27.23 196.42 28.57 196.89 29.86C197.35 31.15 197.79 32.36 199 34.7C200.22 37.05 200.96 38.1 201.75 39.22C202.54 40.35 203.37 41.51 204.64 43.97C205.91 46.41 206.43 47.72 206.94 48.98C207.46 50.25 207.94 51.45 209.16 53.81C210.39 56.17 211.09 57.26 211.83 58.42C212.23 59.04 212.65 59.69 213.15 60.54C213.33 60.85 213.52 61.19 213.72 61.56L211.9 62.57Z" fill="#FDF8EE"/>
<path d="M307.8 1C307.49 1.49 307.2 1.92 306.92 2.34C306.16 3.48 305.45 4.56 304.2 6.91C302.96 9.24 302.51 10.45 302.03 11.73C301.54 13.02 301.05 14.35 299.74 16.79C298.49 19.14 298 20.34 297.47 21.61C296.95 22.86 296.41 24.16 295.12 26.58C293.82 29.03 293.18 30.23 292.53 31.45C291.91 32.62 291.27 33.81 290.03 36.13C288.78 38.49 288.24 39.68 287.68 40.93C287.12 42.16 286.55 43.44 285.26 45.86C283.94 48.34 282.99 49.46 282.06 50.54C281.17 51.57 280.33 52.55 279.12 54.84C277.85 57.21 277.3 58.39 276.7 59.63C276.51 60.03 276.33 60.42 276.11 60.86C275.99 61.12 275.85 61.4 275.71 61.7L273.84 60.77C274.04 60.37 274.22 60.01 274.38 59.67C274.54 59.34 274.68 59.03 274.83 58.73C275.41 57.52 276.01 56.27 277.29 53.85C278.61 51.36 279.57 50.25 280.49 49.17C281.38 48.13 282.22 47.15 283.44 44.87C284.69 42.51 285.22 41.32 285.79 40.07C286.35 38.84 286.92 37.57 288.21 35.15C289.45 32.82 290.08 31.63 290.71 30.47C291.36 29.24 292 28.05 293.3 25.6C294.55 23.26 295.04 22.07 295.56 20.81C296.09 19.55 296.62 18.25 297.92 15.81C299.16 13.48 299.61 12.27 300.09 10.99C300.58 9.7 301.07 8.37 302.38 5.92C303.67 3.49 304.45 2.31 305.2 1.18C305.24 1.12 305.28 1.06 305.32 1H307.8Z" fill="#FDF8EE"/>
<path d="M34.4 1C33.66 2.1 32.96 3.18 31.75 5.45C30.51 7.79 30.05 9 29.57 10.28C29.09 11.56 28.59 12.89 27.29 15.34C26.05 17.68 25.55 18.88 25.02 20.15C24.5 21.4 23.96 22.7 22.67 25.13C21.2 27.88 20.58 29.05 19.83 30.45L17.58 34.68C16.33 37.03 15.79 38.22 15.22 39.47C14.67 40.71 14.1 41.97 12.81 44.39C11.49 46.88 10.53 48 9.61 49.07C8.72 50.11 7.88 51.09 6.66 53.38C5.4 55.74 4.82 56.97 4.25 58.16C3.67 59.37 3.08 60.63 1.79 63.04C1.48 63.61 1.23 64.12 1 64.57V60.04C1.59 58.88 1.98 58.06 2.36 57.27C2.94 56.06 3.53 54.81 4.82 52.4C6.14 49.92 7.09 48.8 8.02 47.72C8.91 46.69 9.74 45.71 10.96 43.42C12.21 41.06 12.75 39.88 13.31 38.62C13.87 37.39 14.44 36.12 15.73 33.7L17.98 29.48C18.73 28.07 19.35 26.91 20.81 24.15C22.06 21.81 22.55 20.61 23.08 19.34C23.6 18.09 24.14 16.79 25.43 14.36C26.67 12.03 27.12 10.82 27.6 9.54C28.09 8.25 28.59 6.92 29.89 4.47C30.73 2.89 31.35 1.85 31.89 1H34.4Z" fill="#FDF8EE"/>
<path d="M481 51.41V56.25C481 56.25 480.99 56.22 480.98 56.21C479.71 53.76 479.18 52.45 478.67 51.19C478.16 49.92 477.67 48.72 476.45 46.37C475.24 44.04 474.5 42.99 473.71 41.87C472.92 40.74 472.09 39.57 470.81 37.1C469.54 34.64 469.05 33.3 468.58 32C468.12 30.72 467.67 29.5 466.46 27.16C465.27 24.86 464.43 23.87 463.55 22.83C462.63 21.75 461.68 20.63 460.37 18.12C459.06 15.59 458.77 14.12 458.48 12.69C458.21 11.34 457.96 10.07 456.77 7.8C455.55 5.44 454.84 4.37 454.07 3.23C453.63 2.58 453.19 1.91 452.66 1H455.08C455.32 1.38 455.55 1.73 455.79 2.08C456.55 3.21 457.34 4.39 458.61 6.85C459.93 9.38 460.22 10.86 460.51 12.29C460.78 13.63 461.03 14.9 462.21 17.17C463.4 19.46 464.24 20.45 465.12 21.49C466.04 22.57 467 23.69 468.3 26.21C469.57 28.67 470.06 30.01 470.53 31.3C470.99 32.58 471.44 33.8 472.65 36.14C473.87 38.49 474.61 39.55 475.41 40.66C476.2 41.79 477.02 42.95 478.29 45.4C479.56 47.84 480.08 49.15 480.59 50.4C480.73 50.74 480.86 51.07 481 51.41Z" fill="#FDF8EE"/>
<path d="M416.17 135.13C415.02 135.07 413.84 135.01 412.71 134.42C411.06 133.53 410.22 133.06 409.41 132.61C408.58 132.15 407.73 131.68 406.02 130.76C404.36 129.88 403.53 129.4 402.73 128.94C401.9 128.47 401.06 127.98 399.35 127.07C397.64 126.16 396.75 125.75 395.89 125.34C395.05 124.95 394.19 124.54 392.53 123.66C390.98 122.83 390.33 122.22 389.64 121.57C388.89 120.86 388.11 120.12 386.3 119.16C384.53 118.22 383.54 117.91 382.59 117.62C381.68 117.33 380.83 117.06 379.23 116.22C377.53 115.31 376.62 114.9 375.75 114.51C374.87 114.12 374.04 113.75 372.39 112.87C370.69 111.96 369.79 111.55 368.93 111.15C368.04 110.75 367.22 110.37 365.56 109.48C363.98 108.65 363.31 108.06 362.6 107.44C361.83 106.77 361.03 106.07 359.25 105.12C357.5 104.19 356.54 103.84 355.61 103.52C354.72 103.19 353.87 102.89 352.26 102.03C350.54 101.12 349.63 100.73 348.74 100.35C347.85 99.98 347.02 99.63 345.38 98.75C343.75 97.88 343 97.37 342.2 96.84C341.4 96.29 340.57 95.73 338.84 94.81C337.21 93.94 336.45 93.44 335.65 92.92C334.84 92.39 334.01 91.83 332.28 90.91C330.57 90 329.67 89.6 328.79 89.21C327.92 88.82 327.09 88.44 325.44 87.56C323.75 86.67 322.92 86.22 322.08 85.77C321.25 85.31 320.41 84.86 318.72 83.96C317.11 83.1 316.39 82.56 315.62 82C314.83 81.41 314.01 80.8 312.26 79.87C310.44 78.9 309.32 78.69 308.32 78.5C307.4 78.32 306.52 78.16 304.98 77.34C303.35 76.47 302.62 75.95 301.83 75.4C301.04 74.84 300.21 74.26 298.47 73.33C296.88 72.49 296.19 71.92 295.45 71.33C294.67 70.7 293.86 70.04 292.1 69.1C290.42 68.21 289.57 67.77 288.73 67.34C288.1 67.01 287.47 66.69 286.5 66.18C286.21 66.03 285.88 65.86 285.52 65.66C285.49 65.64 285.44 65.62 285.41 65.6L285.35 65.57C285.1 65.44 284.87 65.31 284.65 65.2C283.37 64.54 282.59 64.2 281.84 63.87C280.95 63.49 280.12 63.13 278.47 62.25C277.39 61.67 276.69 61.24 276.11 60.86C275.85 60.68 275.62 60.52 275.39 60.36L275.31 60.31C275.02 60.1 274.72 59.89 274.38 59.67C273.79 59.28 273.06 58.84 271.96 58.25C270.22 57.33 269.27 56.97 268.35 56.63C267.46 56.31 266.61 55.99 264.99 55.13C263.36 54.26 262.62 53.75 261.83 53.2C261.03 52.65 260.2 52.08 258.47 51.15C256.75 50.24 255.59 50.09 254.57 49.96C253.51 49.83 252.68 49.72 251.24 48.66C250.23 47.91 249.64 47.25 249.11 46.66C247.9 45.31 246.94 44.47 244.21 44.46C241.49 44.44 240.54 45.53 239.62 46.58C239.04 47.24 238.43 47.93 237.22 48.56C235.59 49.41 234.74 49.73 233.85 50.06C232.94 50.4 231.99 50.76 230.25 51.66C228.62 52.51 227.77 52.81 226.88 53.13C225.95 53.45 224.99 53.79 223.24 54.71C221.51 55.6 220.67 56.11 219.85 56.6C219.02 57.1 218.24 57.57 216.59 58.43C214.82 59.35 213.99 59.94 213.19 60.51C213.18 60.52 213.16 60.53 213.15 60.54C212.87 60.74 212.58 60.94 212.26 61.16C211.99 61.34 211.71 61.51 211.42 61.68C211.02 61.92 210.58 62.16 210.08 62.42C208.35 63.32 207.51 63.84 206.7 64.34C205.97 64.8 205.27 65.23 203.94 65.93C203.79 66.02 203.62 66.11 203.44 66.2C203.3 66.27 203.18 66.34 203.02 66.4C202.67 66.58 202.35 66.72 202.07 66.84C201.27 67.18 200.69 67.34 200.07 67.5C199.1 67.77 198.09 68.04 196.3 68.97C194.62 69.83 193.76 70.25 192.93 70.65C192.07 71.06 191.19 71.48 189.48 72.38C187.73 73.28 186.89 73.87 186.1 74.43C185.32 74.98 184.58 75.5 182.95 76.34C181.26 77.22 180.41 77.68 179.59 78.13C178.73 78.6 177.92 79.05 176.23 79.93C174.64 80.75 173.78 80.97 172.86 81.19C171.87 81.44 170.84 81.69 169.04 82.63C167.28 83.54 166.46 84.14 165.66 84.73C164.89 85.29 164.16 85.82 162.55 86.66C160.84 87.55 159.97 88.01 159.14 88.47C158.33 88.91 157.48 89.37 155.81 90.24C154.07 91.14 153.24 91.7 152.43 92.24C151.63 92.78 150.88 93.28 149.24 94.13C147.68 94.94 146.81 95.11 145.88 95.3C144.86 95.51 143.8 95.72 141.98 96.67C140.18 97.6 139.37 98.28 138.6 98.94C137.89 99.56 137.21 100.13 135.62 100.96C133.99 101.8 133.15 102.11 132.25 102.44C131.33 102.77 130.37 103.12 128.62 104.03C126.86 104.94 126.04 105.53 125.23 106.1C124.45 106.65 123.72 107.16 122.09 108.01C120.44 108.87 119.61 109.21 118.72 109.56C117.82 109.93 116.9 110.3 115.17 111.2C113.43 112.1 112.59 112.65 111.77 113.17C110.97 113.68 110.21 114.18 108.56 115.03C106.87 115.91 106.03 116.36 105.18 116.8C104.34 117.24 103.5 117.69 101.81 118.56C100.24 119.38 99.36 119.58 98.44 119.78C97.43 120.01 96.39 120.25 94.58 121.19C92.81 122.11 91.99 122.72 91.19 123.32C90.43 123.89 89.71 124.42 88.1 125.26C86.47 126.11 85.62 126.42 84.73 126.76C83.81 127.1 82.86 127.45 81.12 128.36C79.4 129.25 78.56 129.75 77.74 130.24C76.9 130.73 76.12 131.2 74.45 132.07C73.37 132.63 72.31 132.78 71.38 132.92C69.71 133.16 67.62 133.47 67.6 136.78C67.58 140.11 69.57 140.47 71.32 140.79C72.23 140.95 73.26 141.14 74.32 141.7C75.98 142.59 76.77 143.06 77.6 143.56C78.4 144.05 79.25 144.56 80.95 145.46C82.74 146.42 83.77 146.68 84.77 146.93C85.68 147.15 86.55 147.37 88.12 148.2C89.8 149.1 90.65 149.55 91.49 149.99C92.33 150.44 93.17 150.89 94.85 151.78C96.47 152.65 97.21 153.17 97.99 153.71C98.78 154.27 99.61 154.85 101.35 155.78C103.08 156.7 104.02 157.07 104.93 157.42C105.83 157.76 106.67 158.08 108.29 158.95C109.99 159.86 110.88 160.28 111.74 160.69C112.61 161.1 113.44 161.5 115.1 162.38C116.67 163.22 117.35 163.81 118.07 164.42C118.84 165.09 119.63 165.77 121.42 166.72C123.13 167.63 124.03 168.04 124.9 168.43C125.78 168.83 126.61 169.2 128.26 170.08L134.98 173.67C136.7 174.58 137.63 174.97 138.52 175.34C139.41 175.71 140.24 176.05 141.88 176.92C143.62 177.85 144.57 178.21 145.48 178.55C146.37 178.89 147.22 179.21 148.84 180.07C150.49 180.95 151.24 181.45 152.04 181.98C152.84 182.51 153.67 183.07 155.39 183.99C157.06 184.87 157.89 185.35 158.69 185.82C159.51 186.29 160.36 186.79 162.06 187.69C163.69 188.56 164.43 189.07 165.21 189.62C166.01 190.18 166.84 190.75 168.57 191.67C170.37 192.63 171.4 192.89 172.39 193.14C173.31 193.37 174.17 193.58 175.74 194.42C177.42 195.31 178.21 195.77 179.06 196.26C179.88 196.73 180.72 197.22 182.41 198.12C183.97 198.95 184.61 199.57 185.29 200.23C186.04 200.95 186.82 201.71 188.63 202.67C190.36 203.59 191.29 203.97 192.2 204.32C193.09 204.68 193.93 205.02 195.56 205.88C197.29 206.81 198.24 207.16 199.16 207.5C199.25 207.53 199.34 207.57 199.43 207.6C199.73 207.71 200.04 207.82 200.39 207.97C200.7 208.1 201.01 208.24 201.35 208.4C201.72 208.58 202.1 208.78 202.53 209C204.11 209.84 204.77 210.43 205.48 211.06C206.25 211.74 207.05 212.44 208.83 213.4C209.67 213.84 210.31 214.16 210.84 214.4C211.19 214.57 211.5 214.7 211.79 214.82C212 214.91 212.19 214.99 212.39 215.07L212.75 215.22C213.52 215.54 214.33 215.9 215.74 216.65C217.39 217.52 218.16 218.01 218.98 218.52C219.79 219.02 220.63 219.55 222.35 220.46C224.06 221.37 224.95 221.79 225.81 222.19C226.69 222.6 227.52 222.99 229.17 223.87C230.82 224.75 231.59 225.23 232.41 225.74C233.22 226.25 234.06 226.78 235.78 227.7C236.92 228.31 237.62 228.92 238.23 229.46C239.41 230.49 240.42 231.38 243.2 231.4H243.22L243.26 231.37C246.02 231.38 247.09 230.45 248.2 229.46C248.85 228.89 249.52 228.3 250.68 227.7C252.43 226.79 253.25 226.2 254.05 225.63C254.83 225.07 255.56 224.55 257.19 223.7C258.87 222.82 259.7 222.43 260.58 222.01C261.43 221.6 262.31 221.18 264 220.3C265.72 219.41 266.56 218.9 267.38 218.42C268.21 217.92 268.99 217.46 270.66 216.59C272.29 215.75 273.14 215.46 274.03 215.16C274.32 215.06 274.62 214.96 274.95 214.83C275.24 214.73 275.56 214.6 275.92 214.45C276.23 214.32 276.54 214.17 276.87 214.01C277.13 213.88 277.41 213.75 277.69 213.6C279.5 212.66 280.29 211.94 281.06 211.25C281.76 210.61 282.42 210.01 283.98 209.2C284.64 208.87 285.17 208.63 285.59 208.46C285.88 208.35 286.12 208.27 286.33 208.2L286.48 208.15C286.78 208.05 287.07 207.98 287.35 207.91C287.44 207.89 287.52 207.86 287.61 207.84C288.52 207.6 289.51 207.3 291.14 206.45C292.8 205.59 293.63 205.23 294.51 204.84C295.39 204.46 296.3 204.06 298.02 203.17C299.81 202.23 300.61 201.55 301.39 200.88C302.1 200.26 302.78 199.68 304.36 198.86C306 198.01 306.84 197.68 307.73 197.34C308.64 197 309.58 196.64 311.32 195.73C313.07 194.83 313.9 194.27 314.71 193.73C315.5 193.19 316.25 192.69 317.88 191.84C319.49 191.01 320.35 190.75 321.25 190.48C322.21 190.19 323.2 189.89 324.98 188.97C326.73 188.06 327.57 187.5 328.38 186.96C329.17 186.43 329.92 185.93 331.55 185.08C333.28 184.19 334.12 183.67 334.94 183.17C335.76 182.67 336.54 182.2 338.2 181.34C339.79 180.5 340.66 180.25 341.57 179.99C342.53 179.72 343.53 179.42 345.31 178.5C347.01 177.61 347.86 177.13 348.68 176.67C349.53 176.19 350.33 175.74 352.01 174.87C353.72 173.97 354.57 173.55 355.43 173.11C356.27 172.69 357.12 172.25 358.79 171.39C360.47 170.52 361.33 170.11 362.17 169.72C363.03 169.32 363.92 168.9 365.62 168.01C367.44 167.07 368.24 166.37 369 165.68C369.7 165.05 370.37 164.46 371.94 163.64C373.63 162.76 374.48 162.34 375.33 161.92C376.18 161.49 377.04 161.06 378.74 160.18C380.37 159.33 381.22 159.03 382.11 158.71C383.04 158.38 383.99 158.04 385.74 157.13C387.38 156.28 388.22 155.95 389.11 155.59C390 155.23 390.94 154.86 392.68 153.96C394.41 153.05 395.25 152.51 396.06 151.98C396.87 151.45 397.62 150.96 399.27 150.11C400.9 149.26 401.75 148.96 402.65 148.64C403.57 148.31 404.52 147.97 406.28 147.06C408.11 146.11 408.89 145.35 409.65 144.61C410.32 143.95 410.96 143.33 412.52 142.52C413.66 141.92 414.89 141.93 416.08 141.94C417.85 141.95 420.28 141.95 420.3 138.65C420.32 135.34 417.92 135.22 416.17 135.13ZM416.08 139.88C414.78 139.87 413.15 139.86 411.55 140.69C409.73 141.64 408.94 142.41 408.19 143.14C407.51 143.81 406.87 144.43 405.31 145.24C403.69 146.08 402.84 146.39 401.94 146.7C401.02 147.03 400.06 147.37 398.31 148.28C396.57 149.19 395.73 149.73 394.92 150.26C394.11 150.78 393.36 151.28 391.71 152.13C390.06 152.99 389.22 153.33 388.33 153.68C387.43 154.04 386.51 154.41 384.77 155.31C383.15 156.15 382.3 156.46 381.4 156.78C380.47 157.11 379.52 157.45 377.76 158.36C376.08 159.24 375.23 159.66 374.38 160.08C373.53 160.51 372.67 160.94 370.97 161.82C369.17 162.76 368.37 163.46 367.6 164.15C366.9 164.78 366.23 165.37 364.65 166.19C362.98 167.06 362.11 167.46 361.27 167.86C360.42 168.26 359.52 168.68 357.82 169.56C356.16 170.43 355.31 170.86 354.48 171.28C353.61 171.72 352.76 172.15 351.04 173.05C349.32 173.94 348.47 174.42 347.64 174.89C346.84 175.35 346 175.82 344.34 176.68C342.74 177.51 341.88 177.76 340.97 178.02C340 178.3 339 178.59 337.22 179.51C335.5 180.41 334.65 180.92 333.84 181.42C333.01 181.92 332.23 182.39 330.57 183.26C328.84 184.16 328 184.72 327.2 185.26C326.4 185.79 325.65 186.29 324.01 187.15C322.4 187.98 321.55 188.24 320.64 188.51C319.68 188.8 318.69 189.09 316.91 190.01C315.17 190.92 314.33 191.48 313.53 192.02C312.73 192.56 311.99 193.06 310.35 193.91C308.71 194.76 307.87 195.09 306.97 195.42C306.07 195.77 305.13 196.13 303.39 197.03C301.58 197.97 300.78 198.66 300.01 199.33C299.29 199.95 298.62 200.53 297.03 201.35C295.37 202.21 294.54 202.58 293.65 202.96C292.78 203.34 291.88 203.74 290.15 204.63C288.57 205.45 287.71 205.68 286.8 205.92C286.54 206 286.28 206.06 286 206.14L285.84 206.19C284.94 206.47 284.06 206.84 283 207.38C281.19 208.32 280.4 209.04 279.64 209.73C278.94 210.37 278.27 210.97 276.7 211.79C276.1 212.1 275.57 212.35 275.06 212.57C274.38 212.86 273.87 213.03 273.33 213.22C272.4 213.53 271.43 213.86 269.67 214.77C267.95 215.67 267.11 216.17 266.29 216.66C265.46 217.15 264.67 217.62 263.01 218.48C261.35 219.35 260.49 219.76 259.65 220.16C258.79 220.56 257.91 220.99 256.19 221.88C254.43 222.8 253.6 223.39 252.8 223.96C252.03 224.52 251.3 225.04 249.68 225.88C248.3 226.6 247.47 227.34 246.79 227.93C245.77 228.83 245.21 229.33 243.24 229.32H243.22C241.21 229.31 240.64 228.8 239.61 227.9C238.95 227.32 238.12 226.59 236.76 225.86C235.1 224.98 234.34 224.5 233.52 223.99C232.7 223.48 231.86 222.95 230.15 222.04C228.44 221.13 227.55 220.71 226.69 220.31C225.81 219.9 224.98 219.51 223.33 218.63C221.67 217.75 220.9 217.26 220.08 216.75C219.27 216.25 218.43 215.72 216.72 214.81C215 213.9 214.08 213.52 213.19 213.15C213 213.07 212.81 212.99 212.61 212.91C211.94 212.62 211.13 212.26 209.82 211.56C208.25 210.72 207.58 210.13 206.87 209.5C206.1 208.82 205.31 208.12 203.52 207.17C202.64 206.7 201.9 206.35 201.21 206.06C200.72 205.86 200.31 205.7 199.89 205.55C199 205.22 198.16 204.91 196.54 204.05C194.81 203.13 193.88 202.76 192.98 202.4C192.09 202.04 191.25 201.71 189.62 200.84C188.06 200.01 187.42 199.39 186.74 198.73C185.99 198.01 185.21 197.25 183.4 196.29C181.74 195.41 180.91 194.93 180.11 194.47C179.29 193.99 178.44 193.5 176.73 192.59C174.94 191.63 173.91 191.37 172.91 191.12C172 190.89 171.13 190.67 169.56 189.84C167.93 188.97 167.19 188.45 166.41 187.91C165.61 187.35 164.78 186.78 163.05 185.85C161.38 184.97 160.55 184.49 159.75 184.02C158.93 183.54 158.08 183.05 156.39 182.15C154.76 181.27 154 180.77 153.2 180.24C152.4 179.71 151.56 179.16 149.83 178.23C148.08 177.31 147.14 176.95 146.23 176.6C145.33 176.27 144.49 175.95 142.87 175.09C141.14 174.17 140.22 173.79 139.33 173.42C138.44 173.05 137.6 172.7 135.97 171.83L129.24 168.24C127.53 167.33 126.63 166.93 125.76 166.53C124.88 166.14 124.05 165.76 122.4 164.88C120.83 164.04 120.15 163.46 119.43 162.84C118.66 162.18 117.87 161.5 116.08 160.54C114.39 159.63 113.5 159.21 112.64 158.81C111.77 158.39 110.94 158 109.28 157.11C107.54 156.19 106.6 155.82 105.69 155.47C104.81 155.13 103.96 154.81 102.34 153.94C100.71 153.07 99.97 152.55 99.19 152.01C98.4 151.45 97.57 150.87 95.84 149.94C94.15 149.05 93.31 148.6 92.47 148.15C91.63 147.71 90.79 147.26 89.11 146.37C87.31 145.41 86.28 145.15 85.28 144.9C84.37 144.68 83.5 144.46 81.93 143.62C80.28 142.75 79.47 142.26 78.68 141.78C77.86 141.28 77.02 140.78 75.3 139.87C73.96 139.15 72.71 138.92 71.7 138.74C69.99 138.44 69.68 138.38 69.69 136.8C69.7 135.27 70 135.23 71.69 134.99C72.73 134.84 74.02 134.65 75.41 133.92C77.14 133.03 77.99 132.52 78.81 132.03C79.61 131.56 80.43 131.07 82.08 130.21C83.71 129.36 84.56 129.05 85.45 128.71C86.37 128.37 87.32 128.02 89.06 127.11C90.83 126.19 91.65 125.58 92.44 124.98C93.2 124.42 93.92 123.88 95.54 123.04C97.11 122.22 97.98 122.03 98.9 121.82C99.91 121.59 100.95 121.35 102.76 120.41C104.46 119.53 105.3 119.09 106.15 118.64C106.99 118.2 107.83 117.76 109.52 116.88C111.24 115.98 112.08 115.44 112.89 114.92C113.7 114.4 114.47 113.91 116.12 113.05C117.77 112.2 118.61 111.86 119.49 111.5C120.39 111.14 121.31 110.76 123.05 109.86C124.79 108.95 125.63 108.37 126.42 107.8C127.2 107.25 127.94 106.73 129.57 105.88C131.21 105.03 132.06 104.73 132.95 104.4C133.87 104.07 134.82 103.72 136.57 102.82C138.36 101.88 139.16 101.2 139.94 100.54C140.66 99.92 141.34 99.35 142.92 98.52C144.49 97.71 145.36 97.54 146.29 97.35C147.31 97.14 148.37 96.93 150.2 95.98C151.93 95.07 152.77 94.52 153.57 93.98C154.37 93.45 155.12 92.94 156.76 92.09C158.45 91.21 159.3 90.75 160.13 90.3C160.95 89.85 161.8 89.39 163.49 88.51C165.26 87.6 166.08 86.99 166.88 86.41C167.65 85.85 168.37 85.31 169.99 84.47C171.57 83.65 172.43 83.43 173.35 83.21C174.35 82.97 175.37 82.71 177.17 81.78C178.89 80.89 179.75 80.42 180.58 79.96C181.4 79.51 182.24 79.06 183.91 78.19C185.66 77.28 186.49 76.7 187.29 76.13C188.07 75.59 188.8 75.07 190.43 74.22C192.12 73.35 192.95 72.95 193.82 72.52C194.67 72.12 195.55 71.69 197.25 70.81C198.83 69.99 199.69 69.76 200.6 69.51C201.5 69.27 202.42 69.03 203.91 68.29C204.07 68.21 204.23 68.14 204.39 68.05C206.12 67.15 206.97 66.63 207.78 66.12C208.6 65.62 209.37 65.13 211.02 64.28C211.93 63.81 212.68 63.37 213.39 62.91C213.76 62.66 214.08 62.44 214.39 62.21C215.17 61.66 215.9 61.14 217.53 60.29C219.25 59.4 220.1 58.89 220.91 58.4C221.74 57.9 222.52 57.43 224.19 56.56C225.81 55.72 226.66 55.42 227.56 55.1C228.48 54.77 229.44 54.44 231.19 53.52C232.83 52.67 233.68 52.35 234.57 52.02C235.48 51.68 236.42 51.33 238.17 50.42C239.73 49.61 240.53 48.7 241.17 47.97C242 47.03 242.42 46.55 244.19 46.56H244.18C246.2 46.58 246.59 47.02 247.53 48.08C248.09 48.71 248.79 49.49 249.97 50.37C251.85 51.75 253.08 51.91 254.28 52.06C255.21 52.18 256.08 52.29 257.46 53.03C259.09 53.9 259.83 54.41 260.62 54.95C261.42 55.51 262.25 56.08 263.99 57.01C265.74 57.93 266.69 58.29 267.61 58.62C268.5 58.95 269.35 59.26 270.96 60.13C272.57 60.98 273.31 61.5 274.09 62.04L274.17 62.1C274.99 62.68 275.81 63.24 277.47 64.12C279.19 65.04 280.1 65.43 280.98 65.82C281.86 66.2 282.7 66.56 284.32 67.43L284.5 67.53C286.1 68.37 286.92 68.8 287.76 69.22C288.59 69.66 289.44 70.09 291.1 70.97C292.69 71.82 293.38 72.38 294.12 72.98C294.9 73.61 295.71 74.26 297.48 75.2C299.1 76.07 299.84 76.58 300.62 77.14C301.42 77.7 302.25 78.28 303.98 79.21C305.8 80.18 306.88 80.38 307.92 80.58C308.85 80.75 309.73 80.92 311.27 81.74C312.88 82.6 313.61 83.14 314.37 83.7C315.16 84.29 315.98 84.9 317.73 85.83C319.41 86.73 320.24 87.18 321.08 87.63C321.91 88.08 322.76 88.53 324.44 89.43C326.15 90.34 327.06 90.75 327.93 91.14C328.81 91.53 329.64 91.9 331.29 92.78C332.93 93.66 333.69 94.15 334.49 94.68C335.3 95.22 336.13 95.77 337.85 96.68C339.48 97.55 340.23 98.06 341.02 98.59C341.83 99.14 342.66 99.7 344.38 100.62C346.11 101.54 347.02 101.93 347.91 102.31C348.79 102.68 349.63 103.03 351.27 103.91C353.02 104.84 353.97 105.18 354.9 105.51C355.79 105.83 356.64 106.13 358.25 106.99C359.83 107.83 360.51 108.42 361.22 109.04C361.98 109.71 362.78 110.41 364.56 111.36C366.28 112.27 367.17 112.68 368.04 113.08C368.92 113.49 369.75 113.87 371.4 114.74C373.11 115.65 374.02 116.06 374.89 116.45C375.76 116.84 376.6 117.21 378.24 118.09C380.01 119.03 381 119.34 381.96 119.64C382.86 119.92 383.71 120.18 385.31 121.04C386.87 121.87 387.52 122.48 388.21 123.13C388.96 123.84 389.75 124.57 391.55 125.54C393.25 126.44 394.14 126.86 395 127.26C395.88 127.68 396.71 128.06 398.37 128.95C400.04 129.84 400.84 130.3 401.68 130.78C402.5 131.25 403.35 131.74 405.03 132.64C406.72 133.54 407.53 133.99 408.38 134.46C409.2 134.92 410.05 135.39 411.73 136.28C413.26 137.1 414.81 137.18 416.05 137.24C418.06 137.34 418.22 137.45 418.21 138.66C418.21 139.81 418.07 139.89 416.08 139.88Z" fill="#FDF8EE"/>
<path d="M207.28 152.52C207.19 152.17 206.91 151.85 206.56 151.71C206.51 151.69 206.46 151.67 206.41 151.66C206.35 151.66 206.28 151.64 206.21 151.64C206.14 151.64 206.07 151.64 206 151.66C205.6 151.76 205.24 152.11 205.14 152.51C205.12 152.58 205.11 152.64 205.11 152.71C205.11 152.77 205.12 152.83 205.13 152.89C205.14 152.95 205.16 153 205.18 153.06C205.3 153.35 205.55 153.6 205.85 153.72C205.9 153.74 205.96 153.76 206.02 153.77C206.08 153.78 206.14 153.79 206.2 153.79C206.28 153.79 206.36 153.79 206.44 153.77C206.92 153.7 207.22 153.4 207.28 152.93C207.28 152.86 207.3 152.79 207.3 152.72C207.3 152.65 207.29 152.59 207.28 152.52ZM213.69 151.87C213.57 151.22 213.09 150.74 212.43 150.62C212.32 150.6 212.21 150.59 212.09 150.59C211.97 150.59 211.85 150.59 211.73 150.62C211.07 150.74 210.59 151.21 210.47 151.86C210.45 151.97 210.44 152.08 210.44 152.2C210.44 152.32 210.45 152.44 210.47 152.56C210.59 153.2 211.07 153.67 211.73 153.79C211.84 153.81 211.95 153.82 212.07 153.82C212.19 153.82 212.31 153.81 212.43 153.79C212.99 153.69 213.41 153.34 213.59 152.84C213.68 152.65 213.72 152.44 213.72 152.21C213.72 152.1 213.72 151.98 213.69 151.87ZM221.2 151.39C221.2 151.39 221.2 151.34 221.19 151.31C221.18 151.28 221.18 151.26 221.17 151.23C221.16 151.18 221.15 151.13 221.13 151.08C221.1 150.98 221.06 150.88 221.01 150.78C220.97 150.69 220.92 150.6 220.86 150.51C220.78 150.4 220.69 150.29 220.6 150.19C220.37 149.94 220.06 149.75 219.71 149.65C219.6 149.62 219.5 149.59 219.39 149.58C219.28 149.56 219.17 149.55 219.06 149.55C218.9 149.55 218.75 149.56 218.6 149.59C218.46 149.62 218.32 149.66 218.19 149.72C218.06 149.78 217.94 149.84 217.82 149.92C217.71 149.99 217.6 150.08 217.5 150.18C217.42 150.26 217.34 150.35 217.27 150.45C217.24 150.5 217.2 150.54 217.17 150.6C217.14 150.65 217.11 150.7 217.08 150.76C217.03 150.85 216.99 150.95 216.96 151.05C216.93 151.15 216.9 151.25 216.89 151.36C216.87 151.47 216.86 151.58 216.86 151.69V151.71C216.86 151.8 216.87 151.89 216.88 151.97C216.89 152.06 216.9 152.15 216.93 152.24C216.95 152.35 216.99 152.45 217.03 152.55C217.07 152.63 217.11 152.7 217.15 152.78C217.18 152.84 217.22 152.89 217.26 152.94C217.32 153.05 217.4 153.14 217.5 153.23C217.54 153.27 217.58 153.31 217.63 153.35C217.73 153.44 217.84 153.51 217.95 153.57C218.03 153.62 218.1 153.66 218.18 153.69C218.31 153.75 218.45 153.79 218.59 153.82C218.73 153.84 218.88 153.86 219.03 153.86H219.05C219.14 153.86 219.23 153.85 219.31 153.84C219.4 153.83 219.49 153.82 219.58 153.79C219.67 153.77 219.76 153.74 219.84 153.71C220.05 153.63 220.25 153.52 220.43 153.37C220.5 153.31 220.58 153.24 220.64 153.17C220.7 153.11 220.76 153.04 220.81 152.97C220.94 152.81 221.03 152.62 221.1 152.43C221.12 152.39 221.13 152.34 221.14 152.3C221.17 152.22 221.19 152.13 221.2 152.04C221.22 151.93 221.23 151.83 221.23 151.72C221.23 151.61 221.22 151.5 221.2 151.39ZM229.81 150.89C229.79 150.73 229.76 150.57 229.71 150.42C229.68 150.34 229.65 150.25 229.62 150.17C229.49 149.85 229.29 149.56 229.03 149.31C228.97 149.25 228.91 149.19 228.84 149.13C228.77 149.08 228.7 149.02 228.63 148.98C228.35 148.78 228.02 148.64 227.66 148.57C227.49 148.53 227.31 148.51 227.12 148.51H227.1C226.96 148.51 226.83 148.52 226.7 148.54C226.56 148.56 226.43 148.59 226.3 148.63C226.17 148.67 226.05 148.71 225.93 148.77C225.81 148.83 225.69 148.9 225.58 148.97C225.43 149.07 225.3 149.18 225.18 149.3C225.05 149.42 224.94 149.55 224.84 149.69C224.74 149.83 224.66 149.99 224.59 150.15C224.52 150.31 224.47 150.48 224.43 150.65C224.39 150.82 224.37 151 224.37 151.19C224.36 152.68 225.58 153.9 227.09 153.9H227.11C227.25 153.9 227.39 153.89 227.52 153.87C227.66 153.85 227.79 153.82 227.91 153.78H227.92C228.17 153.7 228.41 153.58 228.62 153.44H228.63C228.74 153.36 228.84 153.28 228.94 153.2C229.03 153.11 229.12 153.02 229.2 152.92C229.28 152.82 229.36 152.72 229.43 152.61C229.5 152.5 229.56 152.38 229.61 152.26C229.68 152.1 229.73 151.94 229.77 151.76C229.81 151.59 229.83 151.4 229.83 151.22V151.2C229.83 151.09 229.82 150.99 229.81 150.89ZM239.51 150.47C239.51 150.4 239.5 150.34 239.49 150.28C239.5 150.26 239.5 150.25 239.49 150.24H239.48C239.47 150.16 239.46 150.08 239.44 150C239.43 149.93 239.41 149.85 239.38 149.78C239.35 149.68 239.31 149.58 239.27 149.48C239.27 149.48 239.27 149.477 239.27 149.47C239.01 148.89 238.58 148.39 238.05 148.03C237.98 147.97 237.9 147.93 237.82 147.89C237.82 147.89 237.817 147.89 237.81 147.89C237.62 147.79 237.43 147.71 237.22 147.64C237.09 147.6 236.95 147.56 236.81 147.54C236.78 147.54 236.74 147.54 236.7 147.54C236.56 147.51 236.41 147.5 236.27 147.5C236.04 147.5 235.81 147.52 235.59 147.57C235.48 147.59 235.38 147.62 235.27 147.65C235.19 147.67 235.11 147.7 235.04 147.73C234.96 147.76 234.89 147.79 234.82 147.83C234.71 147.89 234.6 147.95 234.5 148.01C234.34 148.11 234.2 148.22 234.06 148.34C233.93 148.46 233.8 148.59 233.69 148.73C233.62 148.82 233.56 148.9 233.5 148.99C233.42 149.11 233.35 149.23 233.28 149.36C233.23 149.46 233.19 149.57 233.15 149.68C233.11 149.78 233.08 149.89 233.06 150C233.04 150.08 233.02 150.16 233.01 150.24C232.98 150.39 232.97 150.55 232.97 150.71C232.97 150.87 232.98 151.02 233.01 151.17C233 151.18 233 151.2 233.01 151.21H233.02C233.03 151.29 233.04 151.37 233.06 151.45C233.07 151.52 233.09 151.6 233.12 151.67C233.15 151.77 233.19 151.87 233.23 151.97C233.49 152.55 233.92 153.05 234.45 153.41C234.52 153.47 234.6 153.51 234.68 153.55C234.68 153.55 234.683 153.55 234.69 153.55C234.88 153.65 235.07 153.73 235.28 153.8C235.41 153.84 235.55 153.88 235.69 153.9C235.72 153.9 235.76 153.9 235.8 153.9C235.94 153.93 236.09 153.94 236.23 153.94C236.58 153.94 236.91 153.89 237.23 153.8C238.64 153.4 239.64 152.16 239.53 150.73C239.53 150.64 239.53 150.55 239.51 150.46V150.47ZM250.42 149.77C250.41 149.66 250.39 149.56 250.37 149.46C250.31 149.14 250.2 148.83 250.04 148.54C250.01 148.46 249.96 148.39 249.92 148.32C249.85 148.2 249.78 148.08 249.69 147.98C249.61 147.86 249.52 147.76 249.42 147.66C249.36 147.6 249.31 147.54 249.25 147.49C249.17 147.42 249.09 147.35 249.01 147.28C248.9 147.19 248.79 147.11 248.67 147.05C248.63 147.02 248.6 147 248.56 146.98C248.44 146.91 248.31 146.85 248.19 146.79C248.03 146.72 247.87 146.66 247.7 146.61C247.37 146.51 247.01 146.46 246.65 146.46H246.63C246.48 146.46 246.33 146.46 246.18 146.49C245.91 146.52 245.64 146.58 245.39 146.67C245.26 146.71 245.13 146.76 245.01 146.82C244.91 146.86 244.81 146.91 244.72 146.97C244.6 147.03 244.49 147.1 244.39 147.18C244.03 147.43 243.72 147.75 243.47 148.11C243.33 148.31 243.21 148.52 243.12 148.75C243.07 148.85 243.03 148.97 243 149.08C242.97 149.17 242.94 149.26 242.92 149.35C242.9 149.41 242.89 149.47 242.88 149.53C242.86 149.61 242.85 149.69 242.84 149.77C242.82 149.92 242.81 150.06 242.81 150.21V150.25C242.81 150.4 242.82 150.54 242.84 150.69C242.86 150.87 242.89 151.05 242.95 151.22C242.96 151.3 242.98 151.37 243.01 151.44C243.03 151.51 243.06 151.58 243.09 151.65C243.13 151.75 243.18 151.85 243.23 151.95C243.3 152.09 243.38 152.22 243.46 152.35C243.51 152.42 243.56 152.49 243.62 152.56C243.66 152.62 243.71 152.67 243.76 152.72C243.88 152.86 244.01 152.99 244.15 153.11C244.22 153.17 244.29 153.23 244.37 153.28C244.45 153.34 244.52 153.39 244.6 153.43C244.7 153.5 244.81 153.56 244.93 153.61C245.09 153.7 245.26 153.77 245.44 153.82C245.5 153.84 245.55 153.86 245.6 153.87C245.66 153.89 245.71 153.9 245.77 153.91C245.88 153.94 246 153.96 246.11 153.97L246.32 154C246.42 154.01 246.51 154.01 246.61 154.01H246.63C246.78 154.01 246.93 154 247.08 153.98C247.22 153.96 247.35 153.94 247.48 153.91C247.61 153.89 247.74 153.85 247.87 153.8C247.96 153.77 248.05 153.74 248.14 153.7C248.33 153.62 248.5 153.53 248.67 153.42C248.8 153.34 248.93 153.25 249.05 153.15C249.48 152.81 249.82 152.38 250.06 151.88C250.11 151.79 250.15 151.7 250.18 151.61C250.22 151.52 250.26 151.42 250.28 151.32C250.32 151.22 250.34 151.13 250.36 151.03C250.39 150.92 250.41 150.8 250.42 150.68C250.44 150.54 250.45 150.4 250.45 150.25V150.21C250.45 150.06 250.44 149.92 250.42 149.77ZM260.13 150.58C260.13 150.51 260.12 150.45 260.11 150.39C260.12 150.37 260.12 150.36 260.11 150.35H260.1C260.1 150.26 260.08 150.19 260.06 150.12C260.05 150.04 260.03 149.97 260 149.89C259.97 149.79 259.93 149.69 259.89 149.59C259.89 149.59 259.89 149.587 259.89 149.58C259.63 149 259.2 148.5 258.67 148.14C258.6 148.08 258.52 148.04 258.44 148C258.44 148 258.437 148 258.43 148C258.24 147.9 258.05 147.82 257.84 147.75C257.71 147.71 257.57 147.67 257.43 147.65C257.4 147.64 257.36 147.64 257.32 147.64C257.18 147.61 257.03 147.6 256.89 147.6C256.66 147.6 256.43 147.62 256.21 147.67C255.06 147.91 254.11 148.77 253.74 149.86C253.7 149.99 253.66 150.12 253.64 150.26C253.63 150.3 253.63 150.35 253.62 150.39C253.6 150.53 253.59 150.67 253.59 150.81C253.59 150.97 253.59 151.12 253.63 151.27C253.62 151.28 253.62 151.3 253.63 151.31H253.64C253.65 151.4 253.66 151.47 253.68 151.54C253.69 151.62 253.71 151.69 253.74 151.77C253.77 151.87 253.81 151.97 253.85 152.07C253.85 152.07 253.85 152.073 253.85 152.08C254.11 152.66 254.54 153.16 255.07 153.52C255.14 153.58 255.22 153.62 255.3 153.66C255.3 153.66 255.303 153.66 255.31 153.66C255.5 153.76 255.69 153.84 255.9 153.91C256.03 153.95 256.17 153.99 256.31 154.01C256.34 154.02 256.38 154.02 256.42 154.02C256.56 154.05 256.71 154.06 256.85 154.06C256.97 154.06 257.09 154.05 257.21 154.04C257.43 154.02 257.64 153.98 257.84 153.92C259.25 153.52 260.24 152.28 260.14 150.85C260.14 150.76 260.14 150.67 260.12 150.58H260.13ZM268.86 151.1C268.84 150.94 268.81 150.78 268.76 150.63C268.73 150.55 268.7 150.46 268.67 150.38C268.53 150.06 268.34 149.77 268.08 149.52C268.02 149.46 267.96 149.4 267.89 149.34C267.82 149.29 267.75 149.23 267.68 149.19C267.53 149.08 267.37 149 267.2 148.93C267.13 148.9 267.05 148.87 266.98 148.85C266.89 148.82 266.8 148.8 266.71 148.78C266.62 148.76 266.53 148.75 266.44 148.74C266.35 148.73 266.25 148.72 266.16 148.72C265.78 148.72 265.41 148.79 265.08 148.93C264.92 149 264.77 149.09 264.62 149.18C264.48 149.28 264.34 149.39 264.22 149.51C264.1 149.63 263.99 149.76 263.89 149.9C263.85 149.96 263.81 150.02 263.77 150.08C263.76 150.1 263.75 150.11 263.75 150.13C263.67 150.28 263.6 150.43 263.54 150.6C263.5 150.74 263.47 150.89 263.45 151.04C263.43 151.16 263.42 151.28 263.42 151.4V151.42C263.42 151.56 263.43 151.69 263.45 151.82C263.46 151.91 263.48 152 263.51 152.09C263.53 152.18 263.56 152.28 263.6 152.37C263.63 152.46 263.67 152.55 263.72 152.64C263.8 152.81 263.91 152.98 264.04 153.13C264.1 153.2 264.16 153.26 264.22 153.32C264.3 153.4 264.38 153.47 264.46 153.53C264.72 153.73 265.01 153.89 265.32 153.98C265.36 154 265.39 154 265.42 154.01C265.65 154.07 265.88 154.11 266.13 154.11C267.64 154.12 268.87 152.92 268.88 151.43V151.41C268.88 151.3 268.87 151.2 268.86 151.1ZM276.36 151.68C276.35 151.59 276.33 151.5 276.3 151.42C276.28 151.33 276.25 151.25 276.22 151.17C276.17 151.05 276.11 150.94 276.04 150.84C276 150.77 275.95 150.7 275.89 150.64C275.85 150.58 275.8 150.53 275.75 150.48C275.68 150.41 275.61 150.35 275.53 150.29C275.43 150.21 275.32 150.14 275.2 150.08C275.1 150.03 274.98 149.98 274.86 149.95C274.77 149.92 274.67 149.9 274.57 149.88C274.52 149.87 274.46 149.86 274.39 149.86C274.33 149.85 274.27 149.85 274.21 149.85C274.05 149.85 273.9 149.86 273.75 149.89C273.6 149.92 273.47 149.96 273.34 150.02C273.22 150.07 273.09 150.14 272.98 150.22C272.92 150.25 272.86 150.3 272.81 150.34C272.7 150.43 272.6 150.52 272.51 150.63C272.33 150.84 272.19 151.08 272.11 151.35C272.08 151.46 272.05 151.56 272.04 151.67C272.02 151.78 272.01 151.88 272.01 151.99C272.01 152.1 272.02 152.21 272.04 152.32C272.05 152.41 272.07 152.5 272.1 152.58C272.11 152.65 272.14 152.72 272.17 152.79C272.19 152.85 272.22 152.9 272.24 152.95C272.28 153.04 272.33 153.12 272.38 153.2C272.46 153.31 272.55 153.42 272.65 153.52C272.72 153.59 272.79 153.65 272.87 153.71C272.96 153.78 273.05 153.84 273.15 153.89C273.27 153.96 273.4 154.01 273.54 154.06C273.61 154.08 273.68 154.1 273.75 154.11C273.8 154.12 273.86 154.13 273.91 154.14C274 154.15 274.1 154.16 274.19 154.16C274.28 154.16 274.38 154.16 274.47 154.14C274.81 154.1 275.14 153.98 275.41 153.79C275.51 153.73 275.6 153.66 275.68 153.59C275.7 153.57 275.72 153.55 275.74 153.53C275.84 153.43 275.93 153.33 276.01 153.21C276.11 153.06 276.2 152.9 276.26 152.72C276.28 152.68 276.29 152.64 276.3 152.59C276.33 152.5 276.35 152.41 276.36 152.32C276.38 152.22 276.39 152.11 276.39 152.01C276.39 151.9 276.38 151.79 276.36 151.68ZM282.77 152.24C282.67 151.68 282.31 151.26 281.8 151.08C281.71 151.04 281.6 151.01 281.5 150.99C281.39 150.96 281.28 150.95 281.17 150.95C281.05 150.95 280.93 150.96 280.82 150.98C280.26 151.08 279.84 151.43 279.65 151.94C279.56 152.13 279.52 152.34 279.52 152.57C279.52 152.68 279.53 152.8 279.55 152.91C279.67 153.56 280.14 154.04 280.8 154.16C280.91 154.18 281.03 154.19 281.15 154.19C281.26 154.19 281.37 154.18 281.47 154.16C281.57 154.14 281.67 154.11 281.76 154.07C281.95 154 282.12 153.88 282.28 153.75C282.35 153.68 282.42 153.6 282.48 153.52C282.54 153.44 282.59 153.36 282.63 153.28C282.65 153.23 282.68 153.19 282.69 153.13C282.69 153.13 282.7 153.12 282.7 153.11C282.73 153.05 282.75 152.98 282.76 152.9C282.79 152.8 282.8 152.69 282.8 152.58C282.8 152.47 282.79 152.35 282.77 152.24ZM288.1 152.95C288.01 152.6 287.73 152.28 287.38 152.14C287.33 152.12 287.28 152.1 287.23 152.09C287.17 152.08 287.1 152.07 287.03 152.07C286.96 152.07 286.9 152.07 286.83 152.09C286.43 152.19 286.07 152.54 285.96 152.93C285.94 153 285.93 153.07 285.93 153.14C285.93 153.2 285.94 153.26 285.95 153.32C285.96 153.38 285.98 153.44 286 153.49C286.12 153.78 286.37 154.03 286.67 154.15C286.69 154.17 286.72 154.18 286.75 154.18C286.78 154.19 286.81 154.2 286.84 154.2C286.9 154.21 286.96 154.22 287.02 154.22C287.09 154.22 287.15 154.22 287.22 154.2C287.26 154.2 287.29 154.19 287.32 154.18C287.35 154.17 287.39 154.16 287.42 154.15C287.76 154 288.02 153.64 288.12 153.15C288.12 153.08 288.11 153.02 288.1 152.95Z" fill="#FDF8EE"/>
<path d="M179.83 132.89C180.79 132.62 180.79 132.22 180.93 131.01V130.74C181.07 129.26 181.49 128.72 182.86 128.46L183.68 128.19L187.69 143.71C188.63 146.95 185.77 145.32 186.31 147.61L186.71 149.23C190.95 148.04 195.05 146.98 199.42 146.06L199.02 144.44C198.49 142.15 196.7 144.96 195.9 141.86L191.89 126.34L192.71 126.07C194.08 125.68 194.76 125.95 195.57 127.16L195.7 127.3C196.51 128.38 196.65 128.65 197.61 128.39L199.25 128L197.51 121.25C190.4 122.7 183.29 124.54 176.45 126.53L178.19 133.28L179.83 132.89Z" fill="#FDF8EE"/>
<path d="M205.26 125.62L207.51 139.25C208.04 142.62 205.59 140.72 205.85 143.02L206.12 144.64C210.22 143.85 214.46 143.2 218.55 142.69L218.28 141.07C217.89 138.78 216.09 141.46 215.56 137.96L213.45 124.33C212.92 120.96 215.37 122.86 215.11 120.56L214.72 118.4C210.48 118.91 206.38 119.57 202.29 120.35L202.55 122.51C202.94 124.8 204.74 122.26 205.26 125.62Z" fill="#FDF8EE"/>
<path d="M221.52 122.06L229.61 141.51C231.53 141.38 233.57 141.26 235.48 141.14L241.18 121.49C241.87 119.34 243.79 119.88 243.65 118.54L243.53 116.52C240.66 116.51 237.93 116.63 235.06 116.75L235.18 118.91C235.31 120.53 237.22 119.46 237.35 121.21C237.35 121.75 237.21 122.69 236.93 123.63L234.84 131.84H234.7L230.65 122.38C229.44 119.68 232.84 121.04 232.71 119.02L232.59 116.73C228.08 116.98 223.57 117.35 219.07 117.87L219.19 119.76C219.32 121.52 220.69 120.3 221.5 122.06H221.52Z" fill="#FDF8EE"/>
<path d="M278.44 124.12L276.05 137.73C275.49 141.1 273.72 138.52 273.3 140.81L273.01 142.56C279.01 143.26 285.02 144.24 290.88 145.48L292.42 138.21L291.06 137.93C287.92 137.51 289.4 141.7 284.22 140.86H283.94L286.62 125.37C287.18 122 288.95 124.57 289.37 122.29L289.79 120.27C285.7 119.58 281.47 118.88 277.24 118.31L276.82 120.33C276.53 122.49 279 120.75 278.43 124.11H278.44V124.12Z" fill="#FDF8EE"/>
<path d="M300.41 128.28L296.93 141.61C296.09 144.97 294.47 142.27 293.91 144.42L293.49 146.04C297.58 147.01 301.67 147.97 305.76 149.07L306.18 147.45C306.74 145.3 304 146.9 304.97 143.53L308.45 130.2C309.29 126.84 310.91 129.54 311.47 127.39L312.03 125.24C307.94 124.14 303.85 123.04 299.75 122.21L299.06 124.36C298.5 126.51 301.24 124.91 300.4 128.28H300.41Z" fill="#FDF8EE"/>
<path d="M246.61 154.01C248.72 154.02 250.44 152.34 250.45 150.26C250.46 148.17 248.76 146.48 246.65 146.46C244.54 146.45 242.82 148.13 242.81 150.21C242.8 152.3 244.5 153.99 246.61 154.01Z" fill="#FDF8EE"/>
<path d="M236.23 153.95C238.04 153.95 239.52 152.52 239.53 150.73C239.54 148.94 238.08 147.49 236.27 147.48C234.46 147.48 232.98 148.91 232.97 150.7C232.96 152.49 234.42 153.94 236.23 153.95Z" fill="#FDF8EE"/>
<path d="M227.09 153.9C228.6 153.9 229.83 152.71 229.84 151.22C229.84 149.73 228.63 148.52 227.12 148.51C225.61 148.51 224.38 149.7 224.37 151.19C224.37 152.68 225.58 153.89 227.09 153.9Z" fill="#FDF8EE"/>
<path d="M219.03 153.86C220.24 153.86 221.22 152.91 221.23 151.72C221.23 150.53 220.26 149.56 219.06 149.55C217.85 149.55 216.87 150.5 216.86 151.69C216.86 152.88 217.83 153.85 219.03 153.86Z" fill="#FDF8EE"/>
<path d="M212.07 153.82C212.98 153.82 213.71 153.1 213.72 152.21C213.72 151.31 212.99 150.59 212.09 150.58C211.18 150.58 210.45 151.3 210.44 152.19C210.44 153.09 211.17 153.81 212.07 153.82Z" fill="#FDF8EE"/>
<path d="M206.2 153.79C206.8 153.79 207.3 153.31 207.3 152.72C207.3 152.13 206.82 151.64 206.21 151.64C205.61 151.64 205.11 152.12 205.11 152.71C205.11 153.3 205.59 153.79 206.2 153.79Z" fill="#FDF8EE"/>
<path d="M256.85 154.06C258.66 154.07 260.14 152.63 260.15 150.84C260.16 149.05 258.7 147.6 256.89 147.59C255.08 147.58 253.6 149.02 253.59 150.81C253.58 152.6 255.04 154.05 256.85 154.06Z" fill="#FDF8EE"/>
<path d="M266.13 154.11C267.64 154.11 268.87 152.92 268.88 151.43C268.88 149.94 267.67 148.73 266.16 148.72C264.65 148.72 263.42 149.91 263.41 151.4C263.41 152.89 264.62 154.1 266.13 154.11Z" fill="#FDF8EE"/>
<path d="M274.19 154.16C275.4 154.16 276.38 153.21 276.39 152.02C276.39 150.83 275.42 149.86 274.22 149.85C273.01 149.85 272.03 150.8 272.02 151.99C272.02 153.18 272.99 154.15 274.19 154.16Z" fill="#FDF8EE"/>
<path d="M281.15 154.19C282.06 154.19 282.79 153.47 282.8 152.58C282.8 151.68 282.08 150.96 281.17 150.95C280.26 150.95 279.53 151.67 279.52 152.56C279.52 153.46 280.25 154.18 281.15 154.19Z" fill="#FDF8EE"/>
<path d="M287.02 154.22C287.62 154.22 288.12 153.74 288.12 153.15C288.12 152.56 287.64 152.07 287.03 152.07C286.43 152.07 285.93 152.55 285.93 153.14C285.93 153.73 286.41 154.22 287.02 154.22Z" fill="#FDF8EE"/>
<path d="M262.78 116.89C261.42 116.48 260.06 116.21 258.69 116.2C257.19 116.06 255.82 116.18 254.46 116.45C249.13 117.5 244.87 121.24 244.43 128.12C243.98 135.53 248.6 139.74 254.32 141.11C255.28 141.39 256.37 141.53 257.32 141.53C258.42 141.53 259.51 141.53 260.46 141.41C266.2 140.64 271.14 136.89 271.58 129.61C271.9 122.6 267.96 118.4 262.78 116.89ZM261.63 129.01C261.17 138.31 258.84 138.44 257.48 138.43C256.12 138.42 253.8 138.01 254.25 128.7C254.71 119.41 257.04 119.28 258.4 119.29C259.9 119.3 262.09 119.72 261.63 129.01Z" fill="#FDF8EE"/>
</svg>
