<?xml version="1.0" encoding="UTF-8"?>
<svg id="b" data-name="Layer 2" xmlns="http://www.w3.org/2000/svg" 
  <g id="c" data-name="Layer 1">
    <path d="M534.08,250.97c-.79-.89-1.68-1.91-2.56-3.6-1.28-2.47-2.11-3.63-2.92-4.75-.79-1.11-1.55-2.16-2.76-4.49-1.24-2.39-1.83-3.62-2.4-4.82-.58-1.21-1.17-2.46-2.42-4.87-1.27-2.44-1.98-3.64-2.67-4.8-.26-.44-.52-.88-.82-1.39-.55-.97-1.12-2.01-1.77-3.27-1.21-2.34-1.62-3.56-2.07-4.85-.44-1.31-.9-2.67-2.18-5.13-1.3-2.52-2.3-3.63-3.27-4.69-.92-1.02-1.78-1.98-2.97-4.26-1.19-2.3-1.52-3.54-1.87-4.86-.36-1.37-.73-2.8-2.03-5.3-1.23-2.37-1.75-3.56-2.3-4.82-.54-1.24-1.1-2.52-2.36-4.94-1.3-2.51-2.26-3.63-3.19-4.71-.89-1.04-1.73-2.01-2.92-4.31-1.22-2.36-1.68-3.56-2.17-4.84-.48-1.28-.99-2.6-2.26-5.05-1.28-2.46-2.07-3.63-2.83-4.76-.77-1.13-1.49-2.21-2.71-4.56-1.2-2.31-1.57-3.54-1.96-4.85-.4-1.35-.82-2.74-2.11-5.23-1.27-2.45-2.06-3.63-2.82-4.76-.76-1.14-1.49-2.22-2.7-4.57-1.26-2.43-1.98-3.62-2.69-4.78-.72-1.18-1.39-2.29-2.62-4.66-1.2-2.31-1.56-3.55-1.94-4.86-.39-1.35-.79-2.75-2.08-5.24-1.25-2.41-1.93-3.62-2.59-4.78-.65-1.15-1.32-2.35-2.57-4.74-1.24-2.39-1.85-3.6-2.46-4.8-.61-1.21-1.23-2.42-2.48-4.83-1.24-2.38-1.81-3.62-2.37-4.81-.57-1.22-1.16-2.47-2.41-4.89-1.3-2.52-2.29-3.63-3.24-4.7-.9-1.03-1.76-1.99-2.95-4.28-1.24-2.39-1.85-3.62-2.44-4.8-.6-1.19-1.21-2.43-2.46-4.84-1.21-2.34-1.65-3.56-2.1-4.84-.46-1.3-.94-2.64-2.21-5.1-1.23-2.36-1.71-3.57-2.22-4.84-.5-1.26-1.02-2.57-2.29-5.01-1.27-2.45-2.04-3.63-2.78-4.77-.75-1.15-1.46-2.24-2.68-4.6-1.22-2.34-1.65-3.56-2.11-4.85-.46-1.3-.93-2.64-2.21-5.1-1.32-2.54-2.37-3.63-3.4-4.67-.96-.98-1.87-1.92-3.04-4.18-.89-1.72-.88-3.6-.87-5.26,0-2.46.02-5.53-4.24-5.56h-.01c-4.26-.02-4.41,2.89-4.54,5.46-.08,1.59-.17,3.4-1.07,5.08-1.26,2.36-1.92,3.56-2.56,4.71-.65,1.17-1.32,2.38-2.6,4.79-1.26,2.37-1.94,3.56-2.6,4.7-.67,1.16-1.36,2.36-2.64,4.77-1.28,2.41-1.87,3.67-2.44,4.89-.56,1.19-1.14,2.43-2.39,4.79-1.2,2.26-2.09,3.2-3.03,4.2-.99,1.05-2.02,2.14-3.35,4.65-1.32,2.48-1.75,3.86-2.17,5.2-.41,1.3-.79,2.54-2.01,4.84-1.28,2.41-1.85,3.69-2.4,4.92-.56,1.26-1.09,2.45-2.35,4.8-1.28,2.41-1.86,3.68-2.42,4.9-.57,1.25-1.12,2.44-2.37,4.8-1.21,2.28-2.06,3.25-2.96,4.29-.94,1.07-1.9,2.18-3.23,4.67-1.3,2.46-1.78,3.81-2.25,5.11-.45,1.29-.89,2.51-2.12,4.83-1.29,2.43-1.84,3.72-2.37,4.97-.54,1.26-1.04,2.46-2.29,4.8-1.25,2.34-1.97,3.41-2.74,4.55-.76,1.13-1.55,2.3-2.85,4.73-1.25,2.34-1.96,3.42-2.71,4.57-.74,1.14-1.52,2.31-2.81,4.75-1.29,2.42-1.86,3.7-2.41,4.93-.56,1.26-1.1,2.44-2.35,4.8-1.26,2.37-1.91,3.56-2.54,4.75-.65,1.2-1.29,2.39-2.57,4.79-1.24,2.32-2,3.36-2.82,4.46-.82,1.11-1.68,2.26-2.99,4.72-1.34,2.52-1.62,4.02-1.9,5.47-.26,1.35-.5,2.63-1.69,4.88-1.24,2.34-1.98,3.4-2.77,4.52-.79,1.12-1.6,2.28-2.9,4.72-1.22,2.3-2.03,3.3-2.89,4.36-.52.65-1.06,1.33-1.69,2.28-1.28-.66-2.06-1-2.82-1.33-.88-.38-1.72-.74-3.36-1.62-1.08-.58-1.78-1-2.36-1.39.21-.43.4-.83.59-1.23.59-1.24,1.15-2.42,2.41-4.79,1.21-2.28,2.05-3.26,2.94-4.3.93-1.08,1.88-2.19,3.2-4.68,1.29-2.42,1.86-3.69,2.41-4.92.56-1.26,1.1-2.44,2.35-4.8,1.24-2.33,1.88-3.52,2.5-4.68.65-1.23,1.29-2.42,2.6-4.87,1.29-2.42,1.83-3.72,2.35-4.98.53-1.27,1.02-2.47,2.27-4.82,1.3-2.45,1.8-3.78,2.29-5.07.48-1.28.93-2.49,2.18-4.82,1.25-2.34,1.96-3.42,2.72-4.56.76-1.14,1.54-2.31,2.83-4.75,1.26-2.36,1.94-3.54,2.6-4.68.67-1.16,1.37-2.36,2.65-4.78,1.24-2.34,1.98-3.41,2.76-4.53.78-1.12,1.58-2.28,2.88-4.72,1.33-2.5,1.69-3.94,2.04-5.33.33-1.33.64-2.58,1.86-4.86,1.26-2.36,1.94-3.55,2.6-4.69.67-1.16,1.37-2.36,2.65-4.78,1.2-2.26,2.1-3.19,3.06-4.18,1.01-1.05,2.05-2.13,3.39-4.65,1.3-2.45,1.83-3.76,2.33-5.03.51-1.27.99-2.47,2.22-4.81,1.31-2.45,1.8-3.79,2.28-5.08.47-1.28.91-2.49,2.15-4.82,1.21-2.28,2.07-3.25,2.97-4.28.95-1.07,1.92-2.17,3.25-4.66,1.29-2.44,1.83-3.73,2.35-4.99.53-1.27,1.02-2.46,2.27-4.81,1.25-2.35,1.94-3.45,2.67-4.62.72-1.15,1.46-2.34,2.75-4.76,1.28-2.41,1.87-3.68,2.43-4.9.56-1.19,1.13-2.43,2.39-4.79,1.26-2.36,1.95-3.47,2.68-4.64.72-1.14,1.46-2.33,2.76-4.76.13-.26.26-.49.39-.7l-1.77-1.1c-.16.25-.31.53-.46.83-1.25,2.35-1.94,3.45-2.67,4.62-.72,1.15-1.46,2.33-2.76,4.76-1.28,2.41-1.87,3.68-2.44,4.9-.56,1.2-1.13,2.44-2.39,4.8-1.26,2.36-1.94,3.47-2.67,4.64-.71,1.15-1.45,2.33-2.74,4.75-1.29,2.44-1.83,3.73-2.35,4.99-.53,1.27-1.02,2.46-2.27,4.81-1.21,2.27-2.07,3.24-2.97,4.26-.94,1.07-1.92,2.18-3.25,4.67-1.31,2.45-1.8,3.79-2.27,5.08-.48,1.28-.92,2.49-2.16,4.82-1.29,2.43-1.81,3.74-2.32,5.01-.51,1.27-.99,2.47-2.23,4.82-1.2,2.26-2.1,3.19-3.06,4.18-1.01,1.05-2.05,2.13-3.39,4.65-1.26,2.38-1.95,3.57-2.61,4.71-.67,1.16-1.36,2.36-2.63,4.75-1.34,2.5-1.7,3.94-2.04,5.34-.33,1.33-.64,2.58-1.85,4.85-1.24,2.33-1.97,3.38-2.75,4.51-.78,1.13-1.59,2.29-2.89,4.74-1.27,2.38-1.95,3.56-2.62,4.7-.67,1.15-1.37,2.35-2.64,4.75-1.25,2.35-1.96,3.43-2.72,4.57-.76,1.13-1.53,2.3-2.83,4.73-1.3,2.45-1.8,3.78-2.29,5.07-.48,1.28-.93,2.49-2.17,4.82-1.3,2.44-1.84,3.74-2.36,5-.53,1.26-1.02,2.46-2.26,4.79-1.3,2.45-1.94,3.64-2.6,4.87-.62,1.17-1.26,2.36-2.5,4.68-1.29,2.42-1.86,3.69-2.41,4.92-.57,1.25-1.1,2.44-2.36,4.8-1.22,2.28-2.06,3.26-2.95,4.3-.92,1.08-1.87,2.19-3.2,4.68-1.28,2.42-1.88,3.67-2.46,4.88-.15.31-.29.61-.45.94-.59-.39-1.32-.84-2.42-1.42-1.74-.93-2.69-1.28-3.61-1.62-.89-.33-1.74-.64-3.36-1.5-1.63-.87-2.38-1.38-3.16-1.93-.8-.55-1.62-1.12-3.36-2.05-1.72-.92-2.88-1.06-3.9-1.19-1.06-.14-1.89-.24-3.33-1.3-1.01-.74-1.6-1.41-2.12-2-1.21-1.36-2.17-2.19-4.9-2.2-2.73-.01-3.67,1.07-4.6,2.12-.58.66-1.18,1.35-2.39,1.98-1.64.85-2.48,1.17-3.37,1.5-.91.34-1.86.7-3.6,1.61-1.62.85-2.47,1.14-3.37,1.46-.92.33-1.88.67-3.64,1.58-1.73.9-2.57,1.4-3.39,1.9-.83.5-1.6.97-3.26,1.83-1.76.92-2.59,1.51-3.39,2.08-.02.01-.03.02-.05.03-.5-.86-.91-1.5-1.32-2.13-.74-1.16-1.44-2.25-2.67-4.6-1.22-2.36-1.71-3.56-2.22-4.83-.51-1.26-1.04-2.57-2.3-5.01-1.27-2.46-2.09-3.62-2.89-4.74-.79-1.12-1.53-2.17-2.75-4.52-1.21-2.34-1.65-3.56-2.11-4.84-.47-1.29-.95-2.64-2.23-5.1-1.3-2.51-2.26-3.63-3.17-4.71-.88-1.04-1.72-2.02-2.91-4.32-1.17-2.27-1.43-3.54-1.7-4.89-.29-1.43-.58-2.9-1.9-5.44-1.27-2.45-2.06-3.63-2.82-4.76-.76-1.14-1.49-2.22-2.7-4.57-1.26-2.42-1.92-3.64-2.55-4.81-.63-1.16-1.28-2.37-2.52-4.75-1.28-2.48-2.13-3.63-2.95-4.75-.81-1.1-1.57-2.14-2.78-4.47-1.19-2.29-1.5-3.55-1.83-4.87-.34-1.39-.69-2.82-2-5.33-1.24-2.39-1.9-3.6-2.54-4.76-.67-1.22-1.3-2.38-2.55-4.79-1.27-2.45-2.09-3.62-2.88-4.74-.79-1.12-1.53-2.18-2.74-4.52-1.24-2.4-1.84-3.63-2.42-4.82-.58-1.2-1.18-2.44-2.43-4.85-1.19-2.3-1.53-3.55-1.88-4.87-.37-1.37-.74-2.78-2.04-5.29-1.26-2.44-2-3.63-2.71-4.78-.72-1.17-1.4-2.27-2.63-4.63-1.28-2.47-2.11-3.63-2.91-4.75-.79-1.11-1.54-2.16-2.75-4.49-1.26-2.44-1.98-3.64-2.68-4.79-.68-1.12-1.38-2.29-2.6-4.65-1.21-2.34-1.64-3.56-2.1-4.84-.46-1.3-.93-2.65-2.21-5.11-1.22-2.34-1.67-3.55-2.15-4.83-.48-1.28-.97-2.6-2.24-5.04-.04-.07-.07-.15-.12-.21l-1.73,1.15s-.04-.07-.06-.1l.04.09c1.22,2.35,1.67,3.56,2.15,4.84.48,1.28.98,2.6,2.25,5.06,1.21,2.34,1.64,3.56,2.1,4.84.46,1.3.93,2.64,2.21,5.1,1.25,2.42,1.97,3.61,2.66,4.77.71,1.18,1.38,2.3,2.61,4.68,1.28,2.46,2.1,3.62,2.9,4.74.79,1.11,1.54,2.16,2.75,4.5,1.26,2.43,2,3.61,2.71,4.76.72,1.17,1.41,2.27,2.63,4.64,1.19,2.3,1.53,3.54,1.88,4.86.37,1.37.75,2.78,2.04,5.29,1.23,2.38,1.83,3.61,2.4,4.8.58,1.21,1.18,2.45,2.44,4.88,1.28,2.47,2.1,3.64,2.89,4.76.78,1.11,1.53,2.17,2.74,4.5,1.26,2.43,1.93,3.65,2.58,4.83.63,1.16,1.29,2.36,2.52,4.72,1.19,2.29,1.5,3.55,1.83,4.87.34,1.39.69,2.82,2,5.33,1.28,2.47,2.13,3.63,2.95,4.74.81,1.1,1.57,2.14,2.78,4.48,1.25,2.4,1.91,3.61,2.54,4.78.63,1.16,1.29,2.37,2.53,4.78,1.27,2.45,2.06,3.63,2.82,4.76.76,1.13,1.49,2.21,2.7,4.56,1.17,2.27,1.43,3.54,1.7,4.89.29,1.43.58,2.9,1.9,5.44,1.3,2.51,2.26,3.63,3.18,4.71.88,1.04,1.72,2.02,2.91,4.32,1.21,2.34,1.65,3.56,2.12,4.85.47,1.29.95,2.63,2.22,5.09,1.28,2.47,2.1,3.64,2.9,4.76.79,1.11,1.53,2.17,2.74,4.5,1.23,2.36,1.71,3.56,2.23,4.83.51,1.26,1.04,2.57,2.3,5.01,1.27,2.44,2.03,3.62,2.76,4.77.43.66.83,1.3,1.34,2.16-.41.24-.85.48-1.35.74-1.72.89-2.56,1.41-3.38,1.92-.73.45-1.43.88-2.75,1.59-.69-1.4-1.09-2.31-1.5-3.26-.54-1.24-1.09-2.52-2.35-4.94-1.3-2.51-2.27-3.63-3.2-4.71-.89-1.04-1.73-2.01-2.92-4.3-1.22-2.34-1.68-3.55-2.17-4.83-.49-1.28-.99-2.6-2.27-5.06-1.27-2.46-2.06-3.63-2.83-4.76-.76-1.13-1.49-2.21-2.7-4.56-1.19-2.31-1.57-3.55-1.96-4.86-.4-1.35-.82-2.73-2.1-5.22-1.27-2.45-2.06-3.63-2.82-4.76-.76-1.14-1.48-2.22-2.7-4.57-1.26-2.43-1.98-3.62-2.69-4.77-.72-1.18-1.39-2.29-2.62-4.66-1.2-2.31-1.56-3.55-1.94-4.86-.39-1.35-.79-2.75-2.09-5.24-1.25-2.41-1.93-3.61-2.58-4.78-.65-1.15-1.32-2.35-2.56-4.74-1.27-2.45-1.88-3.66-2.51-4.89-.6-1.17-1.21-2.39-2.43-4.73-1.24-2.38-1.81-3.62-2.37-4.81-.57-1.22-1.16-2.47-2.41-4.9-1.3-2.52-2.29-3.63-3.24-4.7-.91-1.03-1.76-1.99-2.95-4.28-1.23-2.37-1.84-3.58-2.42-4.76-.6-1.2-1.22-2.44-2.49-4.88-1.21-2.34-1.65-3.56-2.1-4.84-.46-1.3-.94-2.64-2.22-5.1-1.22-2.35-1.7-3.55-2.21-4.82-.5-1.27-1.03-2.58-2.3-5.03-1.27-2.45-2.04-3.64-2.78-4.78-.75-1.15-1.46-2.24-2.68-4.59-1.21-2.34-1.65-3.56-2.1-4.85-.46-1.3-.94-2.65-2.22-5.11-1.31-2.54-2.37-3.63-3.39-4.67-.96-.98-1.87-1.91-3.04-4.18-.9-1.72-.89-3.6-.88-5.26,0-2.46.02-5.53-4.23-5.56h-.01c-4.26-.02-4.41,2.89-4.54,5.46-.08,1.59-.17,3.4-1.07,5.08-1.26,2.36-1.92,3.56-2.56,4.71-.65,1.17-1.32,2.38-2.61,4.8-1.26,2.37-1.94,3.56-2.6,4.7-.67,1.16-1.36,2.36-2.63,4.77-1.28,2.41-1.87,3.67-2.44,4.89-.56,1.19-1.14,2.43-2.39,4.79-1.2,2.26-2.09,3.2-3.02,4.2-.99,1.05-2.02,2.14-3.36,4.65-1.31,2.47-1.75,3.85-2.17,5.19-.41,1.3-.79,2.54-2.02,4.84-1.29,2.42-1.86,3.69-2.4,4.92-.56,1.26-1.09,2.44-2.35,4.8-1.28,2.41-1.86,3.68-2.43,4.9-.58,1.25-1.12,2.44-2.38,4.8-1.21,2.28-2.06,3.25-2.96,4.29-.94,1.07-1.91,2.18-3.23,4.67-1.3,2.46-1.78,3.81-2.25,5.11-.45,1.29-.89,2.51-2.12,4.83-1.29,2.43-1.84,3.72-2.37,4.97-.54,1.26-1.04,2.46-2.29,4.8-1.24,2.34-1.97,3.41-2.74,4.55-.77,1.13-1.55,2.3-2.85,4.74-1.25,2.35-1.96,3.43-2.71,4.58-.75,1.14-1.52,2.31-2.81,4.74-1.29,2.42-1.86,3.7-2.41,4.93-.56,1.26-1.1,2.44-2.35,4.8-1.27,2.38-1.91,3.56-2.55,4.76-.64,1.19-1.29,2.39-2.56,4.78-1.23,2.32-2,3.35-2.81,4.45-.82,1.11-1.67,2.26-2.98,4.72-1.34,2.52-1.62,4.02-1.9,5.47-.26,1.35-.5,2.63-1.69,4.88-1.24,2.33-1.98,3.38-2.77,4.51-.79,1.12-1.6,2.28-2.91,4.73-1.22,2.3-2.03,3.3-2.89,4.36-.88,1.09-1.8,2.22-3.11,4.7-1.28,2.4-1.9,3.63-2.51,4.81-.6,1.18-1.23,2.4-2.49,4.78-1.29,2.43-1.85,3.71-2.38,4.95-.55,1.26-1.06,2.45-2.32,4.8-1.24,2.33-1.98,3.39-2.77,4.51-.79,1.13-1.6,2.29-2.9,4.73-1.31,2.46-1.81,3.8-2.28,5.09-.47,1.28-.92,2.49-2.15,4.82-1.25,2.33-1.98,3.4-2.76,4.52-.78,1.13-1.58,2.29-2.88,4.74-.17.31-.32.61-.44.89-.87,1.9-1.05,3.28-1.21,4.5-.2,1.56-.35,2.8-1.93,4.93-1.08,1.47-2.05,2.33-2.89,3.08C1.33,249.68.02,250.84,0,254.84c-.02,3.67,1.38,4.89,2.85,6.19.97.85,1.97,1.73,2.9,3.52,1.21,2.34,1.66,3.55,2.14,4.83.26.68.52,1.39.9,2.26.36.83.8,1.75,1.35,2.81,1.21,2.34,1.64,3.55,2.1,4.84.46,1.3.94,2.65,2.22,5.11,1.26,2.43,1.97,3.63,2.67,4.78.71,1.18,1.38,2.3,2.61,4.67,1.28,2.47,2.11,3.63,2.91,4.75.79,1.11,1.54,2.16,2.75,4.49,1.26,2.43,1.99,3.62,2.71,4.77.72,1.17,1.41,2.27,2.63,4.64,1.19,2.3,1.53,3.55,1.88,4.87.37,1.37.74,2.78,2.04,5.29,1.24,2.39,1.83,3.62,2.4,4.81.58,1.21,1.18,2.45,2.43,4.87,1.28,2.47,2.1,3.63,2.89,4.76.79,1.11,1.53,2.17,2.74,4.5,1.25,2.41,1.91,3.62,2.56,4.8.64,1.16,1.29,2.37,2.53,4.76,1.18,2.29,1.5,3.54,1.82,4.87.34,1.39.69,2.82,2,5.33,1.28,2.48,2.13,3.63,2.95,4.75.81,1.1,1.58,2.14,2.78,4.47,1.25,2.41,1.91,3.63,2.54,4.8.63,1.17,1.28,2.37,2.52,4.76,1.27,2.45,2.06,3.63,2.82,4.76.76,1.14,1.49,2.22,2.7,4.57,1.17,2.27,1.43,3.54,1.7,4.89.29,1.43.58,2.9,1.9,5.44,1.3,2.51,2.25,3.63,3.18,4.71.88,1.04,1.72,2.03,2.91,4.32,1.21,2.35,1.65,3.56,2.12,4.84.47,1.29.95,2.63,2.23,5.09,1.28,2.47,2.1,3.64,2.9,4.76.78,1.11,1.53,2.17,2.74,4.5,1.22,2.36,1.71,3.56,2.22,4.83.51,1.26,1.04,2.57,2.3,5.01,1.27,2.44,2.03,3.62,2.76,4.77.74,1.15,1.45,2.24,2.67,4.6,1.21,2.32,1.83,3.52,2.45,4.68.65,1.24,1.28,2.43,2.57,4.91,1.19,2.28,1.47,3.55,1.77,4.88.32,1.4.65,2.86,1.95,5.38,1.28,2.48,2.15,3.63,2.98,4.74.82,1.1,1.59,2.13,2.8,4.46,1.21,2.34,1.66,3.56,2.14,4.84.48,1.29.97,2.62,2.25,5.08,1.26,2.43,1.97,3.62,2.66,4.78.67,1.13,1.37,2.31,2.6,4.69.83,1.6,1.06,3.14,1.25,4.49.35,2.44.72,4.97,5.05,5h.02s0-.01,0-.01c4.33.02,4.78-2.49,5.22-4.93.24-1.32.51-2.82,1.34-4.38,1.26-2.36,1.96-3.53,2.64-4.66.69-1.15,1.41-2.35,2.69-4.76,1.33-2.5,1.69-3.94,2.04-5.33.33-1.33.64-2.58,1.85-4.85l2.34-4.4c.71-1.33,1.34-2.51,2.74-5.15,1.24-2.34,1.99-3.39,2.77-4.52.79-1.12,1.6-2.28,2.9-4.71,1.3-2.45,1.81-3.77,2.3-5.05.49-1.28.96-2.48,2.2-4.82,1.28-2.41,1.88-3.66,2.46-4.87.57-1.19,1.15-2.42,2.41-4.79,1.21-2.29,2.05-3.26,2.94-4.3.93-1.08,1.88-2.19,3.21-4.68,1.28-2.41,1.86-3.69,2.41-4.91.56-1.25,1.1-2.44,2.36-4.8l5.08-9.55c1.29-2.43,1.83-3.73,2.35-4.99.53-1.27,1.02-2.46,2.27-4.8,1.3-2.45,1.8-3.78,2.29-5.07.48-1.28.93-2.49,2.18-4.82,1.25-2.34,1.96-3.43,2.72-4.57.75-1.13,1.53-2.3,2.83-4.74,1.27-2.38,1.92-3.51,2.62-4.71.67-1.16,1.37-2.35,2.64-4.75,1.24-2.34,1.97-3.4,2.76-4.53.78-1.13,1.58-2.29,2.88-4.73,1.33-2.5,1.69-3.94,2.04-5.33.34-1.33.65-2.58,1.86-4.86,1.26-2.38,1.95-3.57,2.61-4.71.67-1.16,1.36-2.36,2.63-4.75,1.2-2.26,2.1-3.19,3.06-4.18,1.01-1.05,2.05-2.13,3.39-4.65,1.04-1.95,1.58-3.17,2.01-4.24.37.18.75.37,1.18.6,1.57.84,2.24,1.43,2.95,2.06.77.68,1.56,1.38,3.35,2.34.84.45,1.48.76,2.01,1.01-.52,1.16-1.08,2.39-2.28,4.64-1.28,2.4-1.86,3.67-2.42,4.89-.58,1.26-1.12,2.44-2.38,4.81-1.21,2.29-2.06,3.26-2.96,4.29-.94,1.07-1.91,2.18-3.23,4.67-1.3,2.45-1.78,3.8-2.25,5.1-.46,1.29-.89,2.5-2.13,4.83-1.29,2.43-1.84,3.72-2.37,4.97-.54,1.26-1.04,2.46-2.29,4.8-1.24,2.33-1.96,3.4-2.73,4.53-.77,1.14-1.56,2.3-2.86,4.75-1.25,2.35-1.96,3.44-2.71,4.58-.74,1.14-1.52,2.31-2.81,4.73-1.29,2.43-1.86,3.7-2.41,4.93-.54,1.2-1.09,2.44-2.34,4.79-1.27,2.38-1.91,3.57-2.56,4.76-.65,1.19-1.29,2.38-2.56,4.77-1.23,2.32-2,3.36-2.81,4.46-.82,1.11-1.68,2.26-2.98,4.72-1.35,2.53-1.63,4.03-1.9,5.47-.26,1.35-.5,2.63-1.69,4.88-1.24,2.33-1.99,3.39-2.77,4.51-.79,1.13-1.6,2.28-2.9,4.73-1.23,2.3-2.04,3.3-2.9,4.36-.89,1.09-1.8,2.22-3.12,4.7-1.25,2.35-1.87,3.57-2.47,4.74-.64,1.25-1.24,2.43-2.53,4.86-1.29,2.43-1.85,3.71-2.38,4.95-.55,1.26-1.06,2.45-2.32,4.8-1.24,2.33-1.98,3.39-2.77,4.51-.79,1.13-1.6,2.28-2.9,4.73-1.31,2.46-1.8,3.79-2.28,5.09-.47,1.28-.92,2.5-2.16,4.83-1.24,2.33-1.98,3.39-2.75,4.52-.78,1.13-1.58,2.29-2.88,4.74-1.26,2.36-1.47,3.97-1.65,5.38-.06.49-.12.95-.22,1.42l2.03.44v-.02c.13-.55.2-1.08.26-1.59.17-1.3.34-2.64,1.42-4.66,1.25-2.34,1.98-3.41,2.76-4.54.77-1.12,1.58-2.28,2.87-4.72,1.31-2.45,1.8-3.79,2.28-5.09.48-1.28.92-2.5,2.16-4.83,1.24-2.33,1.98-3.39,2.77-4.51.79-1.12,1.6-2.28,2.9-4.73,1.29-2.43,1.85-3.71,2.39-4.96.55-1.26,1.06-2.45,2.31-4.8,1.3-2.44,1.9-3.63,2.54-4.88.6-1.17,1.22-2.38,2.45-4.71,1.22-2.3,2.04-3.3,2.9-4.36.89-1.09,1.8-2.22,3.12-4.7,1.24-2.33,1.99-3.39,2.77-4.51.79-1.12,1.6-2.28,2.9-4.73,1.34-2.53,1.62-4.02,1.9-5.47.26-1.35.5-2.63,1.7-4.88,1.24-2.32,2.01-3.36,2.82-4.46.82-1.11,1.67-2.26,2.98-4.72,1.27-2.38,1.91-3.57,2.55-4.76.65-1.19,1.29-2.38,2.56-4.77,1.28-2.41,1.85-3.69,2.4-4.92.56-1.26,1.1-2.45,2.35-4.81,1.25-2.34,1.96-3.42,2.71-4.57.74-1.14,1.52-2.31,2.81-4.75,1.25-2.35,1.97-3.43,2.75-4.56.77-1.13,1.55-2.29,2.85-4.72,1.29-2.43,1.84-3.72,2.37-4.97.54-1.26,1.04-2.46,2.29-4.8,1.31-2.46,1.79-3.8,2.25-5.11.46-1.29.89-2.5,2.13-4.82,1.21-2.28,2.06-3.25,2.96-4.28.94-1.07,1.91-2.19,3.23-4.68,1.29-2.42,1.87-3.69,2.44-4.91.55-1.2,1.12-2.43,2.37-4.78,1.24-2.33,1.81-3.59,2.35-4.79.77.32,1.58.68,2.98,1.43,1.65.87,2.42,1.36,3.24,1.87.81.5,1.65,1.03,3.37,1.95,1.71.91,2.6,1.33,3.46,1.73.88.41,1.71.8,3.36,1.68,1.65.88,2.42,1.36,3.24,1.88.81.51,1.65,1.03,3.37,1.95,1.15.61,1.84,1.22,2.46,1.76,1.18,1.03,2.19,1.92,4.97,1.94h.02l.04-.03c2.77.01,3.83-.92,4.95-1.91.64-.57,1.31-1.16,2.47-1.76,1.75-.91,2.58-1.5,3.38-2.08.77-.55,1.5-1.08,3.13-1.93,1.69-.88,2.52-1.27,3.4-1.69.85-.41,1.73-.83,3.42-1.71,1.72-.89,2.56-1.4,3.38-1.88.83-.5,1.61-.96,3.28-1.83,1.63-.84,2.48-1.13,3.37-1.43.29-.1.59-.2.92-.32.16.33.32.64.48.95.6,1.2,1.21,2.44,2.48,4.87,1.3,2.52,2.29,3.63,3.24,4.7.91,1.03,1.76,1.99,2.95,4.28,1.24,2.39,1.82,3.63,2.38,4.82.57,1.21,1.16,2.47,2.41,4.89,1.24,2.4,1.85,3.6,2.47,4.8.62,1.21,1.23,2.41,2.48,4.83,1.26,2.42,1.93,3.62,2.59,4.79.65,1.15,1.32,2.34,2.56,4.73,1.2,2.31,1.56,3.55,1.94,4.86.39,1.35.79,2.75,2.09,5.24,1.26,2.43,1.98,3.62,2.68,4.77.72,1.18,1.39,2.29,2.62,4.66,1.27,2.45,2.06,3.62,2.82,4.76.76,1.14,1.48,2.22,2.7,4.57,1.2,2.31,1.57,3.55,1.96,4.86.4,1.35.82,2.73,2.11,5.22,1.27,2.45,2.06,3.63,2.83,4.76.77,1.13,1.49,2.21,2.71,4.55,1.22,2.35,1.68,3.56,2.17,4.84.49,1.28,1,2.6,2.27,5.05,1.3,2.51,2.26,3.63,3.19,4.71.89,1.04,1.73,2.02,2.92,4.3,1.23,2.37,1.74,3.56,2.29,4.82.54,1.24,1.09,2.52,2.36,4.95,1.19,2.3,1.53,3.55,1.87,4.87.36,1.37.73,2.79,2.03,5.29,1.31,2.52,2.31,3.63,3.27,4.69.92,1.02,1.78,1.97,2.96,4.25,1.21,2.33,1.62,3.55,2.06,4.84.45,1.31.9,2.67,2.18,5.14,1.26,2.43,1.97,3.63,2.66,4.79.67,1.13,1.37,2.31,2.6,4.68,1.24,2.39,1.83,3.62,2.4,4.82.58,1.21,1.17,2.45,2.42,4.86,1.27,2.44,2.09,3.6,2.89,4.71.32.45.62.88.96,1.39l-.02.02,1.74-1.14c-.36-.54-.69-1.01-1.01-1.45-.79-1.1-1.54-2.14-2.73-4.46-1.23-2.38-1.82-3.61-2.39-4.8-.58-1.21-1.17-2.46-2.43-4.88-1.26-2.42-1.97-3.62-2.65-4.78-.7-1.19-1.37-2.31-2.6-4.68-1.2-2.33-1.62-3.55-2.06-4.84-.45-1.31-.9-2.67-2.18-5.14-1.31-2.52-2.31-3.63-3.27-4.69-.92-1.01-1.78-1.97-2.96-4.26-1.19-2.3-1.52-3.55-1.87-4.87-.37-1.38-.74-2.8-2.04-5.3-1.23-2.37-1.74-3.56-2.29-4.82-.54-1.24-1.1-2.52-2.36-4.95-1.3-2.51-2.26-3.63-3.18-4.7-.89-1.04-1.73-2.01-2.92-4.31-1.22-2.35-1.68-3.56-2.17-4.84-.49-1.28-.99-2.6-2.26-5.05-1.28-2.45-2.07-3.62-2.83-4.76-.76-1.13-1.49-2.21-2.7-4.55-1.19-2.31-1.57-3.55-1.96-4.86-.4-1.35-.82-2.73-2.11-5.22-1.27-2.45-2.06-3.63-2.82-4.77-.76-1.14-1.48-2.22-2.7-4.56-1.26-2.43-1.99-3.63-2.69-4.78-.71-1.18-1.39-2.28-2.61-4.65-1.2-2.31-1.56-3.55-1.94-4.86-.39-1.35-.79-2.75-2.08-5.25-1.25-2.42-1.93-3.63-2.59-4.79-.65-1.15-1.32-2.34-2.56-4.73-1.25-2.41-1.86-3.61-2.47-4.82-.62-1.21-1.23-2.42-2.48-4.82-1.24-2.38-1.81-3.62-2.37-4.81-.57-1.22-1.16-2.48-2.41-4.9-1.3-2.52-2.29-3.63-3.24-4.7-.91-1.03-1.77-1.99-2.95-4.28-1.25-2.42-1.84-3.59-2.46-4.84-.14-.28-.28-.55-.42-.84.26-.13.53-.26.82-.41,1.81-.94,2.61-1.66,3.37-2.35.7-.64,1.36-1.23,2.93-2.05.67-.34,1.18-.57,1.61-.74.53,1.1,1.12,2.31,2.23,4.45,1.28,2.47,2.1,3.63,2.89,4.76.78,1.11,1.53,2.17,2.74,4.5,1.25,2.41,1.91,3.62,2.55,4.8.63,1.16,1.29,2.36,2.53,4.75,1.19,2.29,1.5,3.54,1.83,4.87.34,1.39.69,2.82,2,5.33,1.28,2.47,2.13,3.63,2.95,4.74.81,1.1,1.57,2.14,2.78,4.48,1.25,2.41,1.91,3.62,2.54,4.79.63,1.16,1.29,2.37,2.53,4.77,1.27,2.45,2.06,3.63,2.82,4.77.76,1.14,1.49,2.22,2.7,4.57,1.17,2.27,1.43,3.54,1.7,4.89.29,1.43.58,2.9,1.9,5.44,1.3,2.51,2.25,3.63,3.18,4.71.88,1.04,1.72,2.03,2.91,4.32,1.21,2.35,1.65,3.56,2.12,4.84.47,1.29.95,2.63,2.23,5.09,1.28,2.46,2.1,3.62,2.89,4.75.79,1.12,1.53,2.17,2.75,4.51,1.23,2.36,1.71,3.56,2.23,4.83.51,1.26,1.04,2.57,2.3,5.01,1.27,2.44,2.03,3.62,2.76,4.77.74,1.15,1.45,2.24,2.67,4.6,1.25,2.4,1.88,3.6,2.51,4.8.63,1.2,1.26,2.39,2.51,4.79,1.18,2.28,1.47,3.54,1.77,4.88.32,1.41.65,2.86,1.95,5.38,1.29,2.48,2.15,3.63,2.98,4.74.82,1.09,1.59,2.12,2.8,4.45,1.21,2.34,1.66,3.55,2.14,4.83.48,1.29.97,2.62,2.25,5.08,1.27,2.44,1.98,3.64,2.67,4.8.68,1.13,1.37,2.3,2.6,4.67.83,1.6,1.05,3.14,1.25,4.49.36,2.44.72,4.98,5.05,5h.02s0,0,0,0c4.33.02,4.78-2.49,5.22-4.93.24-1.32.51-2.81,1.34-4.38,1.26-2.36,1.96-3.53,2.64-4.65.69-1.15,1.41-2.35,2.7-4.77,1.33-2.5,1.69-3.94,2.04-5.33.33-1.33.64-2.59,1.85-4.86,1.2-2.26,1.83-3.45,2.43-4.59.67-1.26,1.3-2.45,2.64-4.97,1.24-2.33,1.98-3.38,2.77-4.5.79-1.13,1.6-2.28,2.9-4.73,1.3-2.45,1.81-3.77,2.3-5.05.49-1.28.95-2.48,2.2-4.82,1.28-2.41,1.88-3.66,2.46-4.87.57-1.19,1.15-2.42,2.41-4.79,1.21-2.28,2.05-3.27,2.94-4.3.93-1.08,1.88-2.19,3.2-4.68,1.29-2.41,1.86-3.68,2.41-4.91.57-1.26,1.1-2.44,2.36-4.8,1.7-3.18,3.4-6.37,5.09-9.55,1.29-2.43,1.83-3.73,2.35-4.99.53-1.27,1.02-2.46,2.27-4.8,1.3-2.45,1.8-3.78,2.29-5.07.48-1.28.93-2.48,2.17-4.81,1.25-2.35,1.96-3.43,2.73-4.57.75-1.14,1.53-2.3,2.82-4.73,1.26-2.37,1.95-3.55,2.61-4.69.67-1.16,1.37-2.36,2.65-4.76,1.24-2.33,1.98-3.39,2.76-4.52.78-1.12,1.59-2.29,2.89-4.73,1.33-2.5,1.69-3.94,2.04-5.33.33-1.33.64-2.58,1.86-4.86,1.27-2.38,1.95-3.57,2.61-4.71.67-1.16,1.37-2.36,2.64-4.76,1.2-2.26,2.1-3.19,3.06-4.18,1.01-1.05,2.05-2.13,3.39-4.65,1.29-2.44,1.82-3.75,2.32-5.01.51-1.27.99-2.48,2.24-4.82,1.3-2.45,1.79-3.79,2.27-5.08.47-1.28.91-2.49,2.15-4.82,1.21-2.28,2.07-3.24,2.97-4.27.95-1.07,1.92-2.18,3.25-4.67,1.29-2.44,1.83-3.74,2.35-5,.52-1.27,1.02-2.46,2.26-4.8.55-1.02.98-1.79,1.36-2.45.51-.89.91-1.53,1.33-2.2.71-1.15,1.45-2.33,2.74-4.74,1.28-2.42,1.87-3.68,2.44-4.9.55-1.19,1.13-2.43,2.38-4.79,1.25-2.35,1.98-3.5,2.67-4.61.72-1.15,1.46-2.33,2.76-4.76.89-1.67,1.77-2.68,2.56-3.57,1.4-1.6,2.62-3,2.64-6.77.02-3.78-1.19-5.16-2.6-6.75ZM221.65,332.56c-1.2,2.26-2.1,3.19-3.06,4.18-1.01,1.05-2.05,2.13-3.39,4.65-1.26,2.36-1.94,3.55-2.6,4.69-.67,1.16-1.37,2.37-2.65,4.78-1.33,2.5-1.69,3.94-2.04,5.33-.33,1.33-.65,2.58-1.86,4.85-1.24,2.33-1.97,3.4-2.76,4.52-.78,1.12-1.58,2.29-2.88,4.73-1.26,2.36-1.94,3.53-2.6,4.67-.67,1.16-1.37,2.36-2.66,4.78-1.25,2.35-1.96,3.43-2.72,4.57-.75,1.14-1.53,2.31-2.83,4.75-1.3,2.45-1.8,3.78-2.29,5.06-.48,1.28-.93,2.49-2.17,4.82-1.29,2.43-1.83,3.73-2.35,4.99-.53,1.26-1.02,2.46-2.27,4.8l-5.08,9.56c-1.29,2.42-1.87,3.69-2.42,4.92-.54,1.19-1.1,2.44-2.35,4.79-1.21,2.28-2.05,3.26-2.94,4.3-.93,1.08-1.88,2.19-3.21,4.68-1.28,2.4-1.88,3.66-2.46,4.87-.57,1.19-1.16,2.43-2.41,4.79-1.3,2.45-1.81,3.77-2.3,5.05-.49,1.28-.96,2.48-2.2,4.82-1.24,2.32-1.97,3.38-2.76,4.49-.79,1.12-1.61,2.28-2.9,4.73-1.4,2.63-2.03,3.82-2.74,5.15l-2.34,4.4c-1.33,2.5-1.69,3.94-2.04,5.33-.33,1.33-.64,2.58-1.85,4.85-1.26,2.37-1.96,3.54-2.64,4.66-.69,1.15-1.41,2.34-2.69,4.76-.98,1.85-1.3,3.59-1.55,4.99-.43,2.41-.58,3.23-3.16,3.22h-.02c-2.54-.02-2.65-.82-3-3.21-.21-1.44-.47-3.24-1.46-5.15-1.26-2.43-1.97-3.63-2.67-4.79-.68-1.13-1.37-2.3-2.6-4.68-1.22-2.35-1.67-3.56-2.14-4.84-.48-1.29-.97-2.62-2.25-5.08-1.29-2.48-2.15-3.63-2.98-4.74-.82-1.1-1.59-2.13-2.8-4.45-1.18-2.28-1.47-3.54-1.77-4.88-.32-1.41-.65-2.86-1.95-5.38-1.29-2.48-1.92-3.68-2.57-4.92-.61-1.16-1.24-2.36-2.44-4.67-1.27-2.44-2.03-3.62-2.76-4.77-.74-1.16-1.45-2.24-2.67-4.6-1.22-2.36-1.71-3.56-2.22-4.83-.51-1.26-1.04-2.57-2.3-5.01-1.28-2.46-2.1-3.63-2.89-4.75-.79-1.12-1.53-2.17-2.75-4.51-1.21-2.34-1.65-3.55-2.12-4.84-.47-1.29-.95-2.63-2.23-5.1-1.3-2.51-2.25-3.63-3.18-4.71-.88-1.04-1.72-2.02-2.91-4.32-1.17-2.27-1.43-3.54-1.7-4.89-.29-1.43-.58-2.9-1.9-5.44-1.27-2.45-2.06-3.63-2.82-4.76-.76-1.14-1.49-2.22-2.7-4.57-1.25-2.41-1.91-3.62-2.54-4.79-.63-1.16-1.28-2.37-2.52-4.77-1.28-2.47-2.12-3.63-2.95-4.74-.81-1.1-1.58-2.14-2.78-4.47-1.19-2.29-1.5-3.54-1.83-4.87-.34-1.39-.69-2.82-2-5.33-1.25-2.41-1.91-3.62-2.56-4.8-.64-1.16-1.29-2.37-2.53-4.76-1.28-2.45-2.1-3.62-2.89-4.74-.78-1.12-1.53-2.17-2.74-4.52-1.24-2.39-1.83-3.62-2.4-4.81-.58-1.21-1.18-2.45-2.43-4.87-1.19-2.3-1.53-3.55-1.88-4.87-.37-1.37-.74-2.78-2.04-5.29-1.27-2.44-2-3.63-2.71-4.78-.72-1.17-1.4-2.27-2.63-4.64-1.28-2.46-2.1-3.62-2.9-4.74-.8-1.11-1.54-2.16-2.75-4.5-1.26-2.43-1.97-3.63-2.67-4.78-.71-1.18-1.38-2.3-2.61-4.67-1.22-2.33-1.65-3.56-2.1-4.84-.46-1.3-.93-2.64-2.21-5.11-.53-1.02-.95-1.9-1.29-2.69-.36-.82-.61-1.47-.86-2.16-.48-1.28-.98-2.6-2.25-5.05-1.11-2.14-2.37-3.25-3.38-4.13-1.35-1.18-2.16-1.9-2.15-4.61.02-3.07.73-3.7,2.28-5.09.87-.78,1.97-1.75,3.18-3.4,1.89-2.57,2.11-4.27,2.32-5.91.15-1.18.29-2.29,1.03-3.9.11-.25.24-.51.38-.78,1.24-2.34,1.98-3.41,2.76-4.53.78-1.13,1.58-2.29,2.88-4.73,1.3-2.45,1.79-3.78,2.27-5.08.48-1.28.92-2.5,2.16-4.83,1.25-2.33,1.99-3.4,2.77-4.52.79-1.12,1.6-2.28,2.9-4.72,1.29-2.43,1.85-3.71,2.38-4.95.55-1.26,1.06-2.45,2.32-4.8,1.27-2.39,1.9-3.62,2.51-4.81.6-1.18,1.23-2.4,2.5-4.78,1.22-2.3,2.03-3.3,2.89-4.36.88-1.09,1.8-2.22,3.11-4.7,1.24-2.34,1.99-3.4,2.77-4.52.79-1.12,1.6-2.28,2.9-4.72,1.34-2.53,1.62-4.03,1.9-5.47.26-1.35.5-2.63,1.69-4.88,1.24-2.32,2.01-3.36,2.82-4.46.82-1.11,1.67-2.26,2.98-4.72,1.27-2.39,1.91-3.58,2.55-4.77.64-1.19,1.28-2.38,2.55-4.77,1.29-2.42,1.86-3.7,2.41-4.93.56-1.26,1.09-2.45,2.35-4.8,1.25-2.34,1.96-3.43,2.71-4.57.75-1.14,1.52-2.31,2.81-4.74,1.24-2.34,1.97-3.41,2.74-4.55.77-1.13,1.56-2.3,2.85-4.73,1.29-2.43,1.84-3.72,2.37-4.97.53-1.26,1.04-2.46,2.29-4.8,1.31-2.46,1.78-3.8,2.25-5.1.46-1.29.89-2.51,2.13-4.83,1.21-2.28,2.06-3.25,2.96-4.28.94-1.07,1.91-2.18,3.24-4.68,1.29-2.41,1.87-3.68,2.43-4.91.55-1.19,1.12-2.43,2.37-4.79,1.29-2.42,1.86-3.7,2.41-4.93.54-1.2,1.09-2.44,2.34-4.79,1.31-2.48,1.75-3.86,2.17-5.2.41-1.3.79-2.54,2.02-4.84,1.2-2.27,2.09-3.21,3.03-4.21.99-1.05,2.01-2.14,3.35-4.65,1.28-2.41,1.87-3.67,2.44-4.89.56-1.19,1.14-2.43,2.39-4.79,1.26-2.38,1.94-3.56,2.6-4.71.67-1.16,1.36-2.36,2.63-4.76,1.28-2.39,1.94-3.6,2.59-4.76.65-1.16,1.31-2.36,2.58-4.74,1.11-2.09,1.22-4.23,1.31-5.96.14-2.76.27-3.49,2.45-3.48h.01c2.1.02,2.18.67,2.17,3.46,0,1.81-.02,4.05,1.11,6.23,1.32,2.54,2.37,3.63,3.4,4.68.96.98,1.86,1.92,3.04,4.18,1.21,2.34,1.65,3.56,2.1,4.85.46,1.3.94,2.65,2.22,5.11,1.27,2.44,2.04,3.62,2.78,4.76.75,1.15,1.46,2.24,2.68,4.6,1.23,2.36,1.71,3.57,2.22,4.84.5,1.26,1.02,2.57,2.29,5.01,1.21,2.34,1.65,3.56,2.1,4.84.46,1.3.94,2.64,2.22,5.1,1.26,2.42,1.85,3.6,2.47,4.85.59,1.19,1.2,2.41,2.44,4.79,1.3,2.52,2.29,3.63,3.24,4.7.9,1.03,1.76,1.99,2.95,4.28,1.24,2.39,1.81,3.62,2.37,4.82.57,1.22,1.16,2.47,2.41,4.89,1.21,2.34,1.82,3.55,2.42,4.72.63,1.24,1.25,2.44,2.52,4.91,1.26,2.43,1.94,3.64,2.6,4.81.65,1.15,1.32,2.34,2.55,4.72,1.2,2.31,1.56,3.55,1.94,4.86.39,1.35.79,2.75,2.08,5.24,1.27,2.44,1.99,3.64,2.7,4.79.68,1.12,1.39,2.28,2.61,4.64,1.27,2.45,2.06,3.63,2.82,4.76.76,1.13,1.49,2.21,2.7,4.56,1.19,2.31,1.57,3.55,1.96,4.86.4,1.35.82,2.73,2.1,5.22,1.27,2.45,2.06,3.63,2.83,4.76s1.49,2.21,2.7,4.56c1.22,2.36,1.68,3.57,2.17,4.84.49,1.28.99,2.6,2.26,5.05,1.3,2.51,2.26,3.63,3.19,4.7.89,1.04,1.73,2.01,2.92,4.31,1.23,2.37,1.77,3.61,2.29,4.81.41.93.83,1.89,1.54,3.34-.8.34-1.39.5-2,.66-.97.27-1.99.54-3.78,1.46-1.67.87-2.54,1.28-3.37,1.68-.86.41-1.74.83-3.45,1.73-1.75.91-2.58,1.49-3.38,2.05-.78.55-1.51,1.07-3.14,1.91-1.69.88-2.54,1.34-3.37,1.79-.86.47-1.66.91-3.36,1.79-1.58.82-2.45,1.04-3.36,1.26-1,.24-2.02.5-3.82,1.43-1.76.91-2.58,1.52-3.38,2.1-.77.56-1.5,1.1-3.11,1.94-1.71.89-2.57,1.35-3.4,1.8-.81.44-1.66.9-3.33,1.77-1.74.91-2.58,1.46-3.39,2.01-.79.53-1.55,1.03-3.18,1.88-1.56.81-2.44.99-3.36,1.17-1.02.21-2.08.42-3.9,1.37-1.8.93-2.6,1.62-3.37,2.28-.72.62-1.4,1.19-2.98,2.02-1.63.85-2.47,1.15-3.37,1.48-.92.33-1.88.68-3.63,1.59-1.76.91-2.58,1.5-3.39,2.07-.78.55-1.51,1.07-3.14,1.91-1.65.86-2.49,1.19-3.37,1.55-.9.36-1.82.74-3.55,1.64-1.74.9-2.58,1.44-3.39,1.97-.8.52-1.57,1.01-3.21,1.86-1.7.88-2.54,1.33-3.38,1.77-.84.44-1.69.89-3.37,1.76-1.58.81-2.45,1.01-3.37,1.22-1.01.23-2.05.47-3.86,1.41-1.77.92-2.59,1.53-3.39,2.13-.76.57-1.48,1.11-3.09,1.94-1.63.85-2.48,1.16-3.37,1.5-.91.34-1.86.69-3.61,1.6-1.71.89-2.56,1.4-3.38,1.88-.84.5-1.62.97-3.29,1.83-1.08.56-2.13.71-3.06.85-1.68.25-3.77.55-3.78,3.86-.02,3.33,1.97,3.69,3.73,4,.9.16,1.93.35,2.99.91,1.67.89,2.45,1.36,3.28,1.86.81.49,1.65,1,3.35,1.9,1.8.96,2.82,1.21,3.82,1.46.91.22,1.78.44,3.35,1.28,1.68.89,2.53,1.34,3.37,1.79.84.45,1.68.89,3.36,1.79,1.62.87,2.36,1.39,3.14,1.93.8.56,1.62,1.14,3.36,2.06,1.74.93,2.68,1.29,3.59,1.64.89.34,1.73.67,3.36,1.53,1.7.91,2.59,1.33,3.45,1.74.87.42,1.7.81,3.36,1.7,1.58.84,2.26,1.42,2.97,2.04.77.67,1.56,1.35,3.35,2.3,1.71.91,2.61,1.32,3.48,1.71.88.4,1.71.77,3.36,1.65l6.72,3.59c1.72.91,2.65,1.3,3.54,1.67.89.37,1.72.71,3.36,1.59,1.74.93,2.69,1.28,3.6,1.63.89.34,1.74.66,3.36,1.52,1.65.88,2.4,1.38,3.2,1.91.8.53,1.63,1.08,3.35,2,1.67.89,2.5,1.37,3.3,1.84.82.47,1.67.97,3.37,1.87,1.63.87,2.37,1.38,3.15,1.93.8.56,1.63,1.13,3.36,2.05,1.79.95,2.82,1.21,3.82,1.46.91.23,1.78.45,3.35,1.28,1.68.89,2.47,1.35,3.32,1.84.82.47,1.66.96,3.35,1.86,1.56.83,2.2,1.45,2.88,2.1.76.73,1.53,1.48,3.34,2.44,1.73.92,2.66,1.3,3.57,1.65.89.36,1.73.69,3.36,1.56,1.74.93,2.69,1.27,3.61,1.61.09.03.18.07.27.1-.42,1.02-.93,2.19-1.93,4.07ZM310.15,327.04l-.16.05c-.91.28-1.78.65-2.84,1.19-1.81.94-2.6,1.66-3.37,2.35-.7.64-1.36,1.23-2.94,2.05-.59.31-1.13.57-1.63.78-.68.29-1.19.46-1.73.65-.93.32-1.9.65-3.66,1.56-1.72.89-2.56,1.4-3.38,1.88-.83.5-1.61.96-3.28,1.83-1.66.87-2.53,1.28-3.36,1.67-.86.41-1.74.83-3.46,1.73-1.76.91-2.59,1.51-3.39,2.08-.77.55-1.5,1.08-3.12,1.92-1.38.72-2.21,1.46-2.89,2.05-1.02.9-1.58,1.4-3.56,1.39h-.02c-2.01-.01-2.58-.51-3.61-1.42-.66-.58-1.49-1.31-2.85-2.04-1.66-.88-2.42-1.36-3.24-1.88-.81-.51-1.65-1.04-3.37-1.95-1.71-.91-2.6-1.33-3.46-1.73-.88-.41-1.71-.8-3.36-1.68-1.66-.88-2.43-1.37-3.25-1.88-.81-.5-1.65-1.03-3.36-1.94-1.72-.92-2.65-1.3-3.53-1.66-.19-.08-.38-.16-.58-.24-.67-.28-1.48-.65-2.79-1.35-1.57-.84-2.24-1.43-2.95-2.06-.77-.68-1.56-1.38-3.35-2.34-.88-.47-1.62-.82-2.31-1.11-.48-.2-.9-.35-1.31-.51-.89-.33-1.74-.64-3.35-1.5-1.73-.92-2.67-1.3-3.57-1.65-.89-.35-1.72-.69-3.36-1.56-1.56-.83-2.2-1.45-2.88-2.1-.76-.73-1.53-1.48-3.34-2.44-1.65-.88-2.49-1.36-3.29-1.82-.82-.48-1.67-.97-3.38-1.88-1.8-.96-2.82-1.22-3.82-1.47-.91-.23-1.78-.45-3.35-1.28-1.63-.87-2.37-1.38-3.15-1.93-.8-.56-1.63-1.13-3.36-2.05-1.67-.89-2.5-1.37-3.3-1.84-.81-.48-1.67-.97-3.36-1.87-1.63-.87-2.38-1.37-3.18-1.9-.81-.54-1.64-1.09-3.38-2.01-1.74-.93-2.69-1.28-3.6-1.63-.89-.33-1.73-.66-3.36-1.52-1.72-.92-2.65-1.3-3.54-1.67-.89-.37-1.72-.71-3.36-1.59l-6.72-3.59c-1.71-.92-2.61-1.32-3.48-1.71-.88-.39-1.71-.77-3.36-1.65-1.58-.84-2.26-1.42-2.97-2.04-.77-.67-1.56-1.35-3.35-2.3-1.7-.91-2.58-1.33-3.44-1.74-.88-.42-1.7-.81-3.36-1.7-1.74-.93-2.68-1.29-3.59-1.64-.89-.34-1.73-.67-3.36-1.53-1.63-.87-2.37-1.39-3.14-1.93-.79-.56-1.62-1.14-3.36-2.06-1.68-.89-2.53-1.34-3.37-1.79-.84-.45-1.68-.9-3.36-1.79-1.8-.96-2.82-1.21-3.82-1.46-.91-.22-1.78-.44-3.35-1.28-1.65-.88-2.47-1.37-3.26-1.85-.81-.49-1.66-1-3.37-1.91-1.34-.72-2.6-.94-3.6-1.12-1.72-.31-2.02-.36-2.01-1.94,0-1.53.31-1.57,2-1.82,1.04-.15,2.33-.34,3.73-1.06,1.73-.9,2.58-1.4,3.4-1.89.79-.47,1.61-.96,3.27-1.82,1.63-.85,2.48-1.16,3.37-1.5.91-.34,1.86-.69,3.61-1.6,1.76-.92,2.58-1.53,3.38-2.13.76-.57,1.48-1.11,3.1-1.95,1.57-.81,2.44-1.01,3.36-1.22,1.01-.23,2.05-.47,3.86-1.41,1.7-.88,2.54-1.32,3.38-1.77.84-.44,1.68-.89,3.37-1.76,1.73-.9,2.57-1.44,3.38-1.96.81-.52,1.57-1.01,3.23-1.87,1.65-.85,2.49-1.19,3.37-1.55.9-.36,1.82-.74,3.55-1.64,1.75-.91,2.58-1.49,3.38-2.06.78-.55,1.51-1.07,3.15-1.92,1.63-.85,2.48-1.16,3.38-1.48.92-.33,1.87-.68,3.61-1.58,1.8-.93,2.59-1.62,3.37-2.28.72-.62,1.4-1.19,2.98-2.02,1.57-.81,2.44-.99,3.36-1.17,1.03-.21,2.09-.42,3.91-1.37,1.74-.91,2.57-1.47,3.38-2,.79-.53,1.55-1.04,3.19-1.89,1.69-.88,2.54-1.34,3.37-1.79.82-.45,1.67-.91,3.37-1.79,1.76-.91,2.58-1.52,3.38-2.1.77-.56,1.49-1.1,3.11-1.94,1.58-.82,2.45-1.04,3.36-1.26,1-.24,2.02-.5,3.82-1.43,1.72-.89,2.58-1.36,3.41-1.81.81-.45,1.66-.91,3.32-1.77,1.75-.91,2.58-1.49,3.38-2.05.78-.55,1.51-1.06,3.14-1.91,1.68-.88,2.52-1.28,3.39-1.7.85-.41,1.73-.83,3.42-1.71,1.59-.82,2.45-1.05,3.36-1.3.9-.24,1.82-.49,3.31-1.23.15-.07.31-.15.48-.24,1.73-.9,2.58-1.42,3.39-1.93.82-.51,1.59-.99,3.24-1.84.9-.47,1.65-.91,2.37-1.37.37-.24.68-.47,1-.69.78-.55,1.51-1.08,3.14-1.93,1.72-.89,2.56-1.4,3.38-1.89.83-.5,1.61-.97,3.28-1.83,1.62-.84,2.47-1.14,3.37-1.46.92-.33,1.88-.67,3.64-1.58,1.64-.85,2.48-1.17,3.37-1.5.91-.34,1.86-.69,3.6-1.6,1.56-.81,2.36-1.72,3-2.45.83-.94,1.25-1.42,3.02-1.41l-.02.02c2.02.01,2.41.45,3.35,1.51.56.63,1.26,1.41,2.44,2.29,1.88,1.38,3.11,1.54,4.3,1.69.93.12,1.8.23,3.18.96,1.62.87,2.36,1.38,3.15,1.92.8.56,1.63,1.13,3.37,2.05,1.75.93,2.7,1.28,3.62,1.62.89.33,1.74.64,3.36,1.5,1.61.85,2.34,1.37,3.12,1.92l.08.06c.82.58,1.64,1.13,3.3,2.02,1.72.91,2.63,1.31,3.51,1.7.88.38,1.71.74,3.34,1.61l.17.09c1.6.85,2.43,1.27,3.26,1.7.84.43,1.68.86,3.34,1.75,1.59.85,2.29,1.41,3.02,2.01.78.63,1.59,1.28,3.36,2.23,1.62.86,2.36,1.38,3.14,1.93.8.56,1.63,1.14,3.37,2.07,1.82.97,2.9,1.17,3.94,1.37.93.18,1.81.34,3.35,1.16,1.61.86,2.33,1.4,3.1,1.96.79.59,1.61,1.2,3.36,2.13,1.68.89,2.52,1.35,3.35,1.8.84.45,1.68.91,3.36,1.8,1.71.91,2.62,1.32,3.49,1.71.88.39,1.71.76,3.36,1.64,1.65.87,2.4,1.37,3.21,1.9.8.53,1.63,1.08,3.36,2,1.63.87,2.38,1.38,3.18,1.91.8.55,1.63,1.11,3.36,2.03,1.72.92,2.64,1.31,3.52,1.69.88.37,1.72.73,3.36,1.6,1.75.93,2.7,1.27,3.63,1.6.89.32,1.74.62,3.35,1.48,1.58.84,2.25,1.42,2.96,2.05.77.67,1.56,1.37,3.35,2.32,1.71.91,2.61,1.32,3.48,1.72.88.41,1.71.79,3.36,1.66,1.71.91,2.62,1.32,3.49,1.71.88.39,1.71.76,3.36,1.64,1.77.94,2.76,1.25,3.71,1.55.9.28,1.76.55,3.35,1.4,1.56.83,2.21,1.44,2.9,2.09.76.71,1.54,1.45,3.34,2.41,1.7.91,2.59,1.33,3.45,1.73.88.41,1.71.8,3.37,1.68,1.68.89,2.47,1.35,3.32,1.84.82.47,1.67.96,3.35,1.86,1.69.9,2.5,1.35,3.35,1.82.82.46,1.67.93,3.34,1.82,1.53.82,3.08.89,4.33.96,2.01.1,2.17.21,2.16,1.42,0,1.15-.15,1.23-2.13,1.22-1.31,0-2.93-.02-4.53.81-1.83.95-2.61,1.71-3.36,2.45-.68.66-1.32,1.28-2.87,2.09-1.63.84-2.48,1.15-3.37,1.47-.92.33-1.88.67-3.64,1.58-1.74.9-2.58,1.45-3.39,1.98-.8.52-1.56,1.02-3.21,1.87-1.65.85-2.49,1.19-3.38,1.55-.9.36-1.82.73-3.55,1.63-1.63.84-2.48,1.15-3.38,1.47-.93.33-1.88.67-3.64,1.58-1.68.88-2.53,1.3-3.38,1.72-.86.43-1.71.86-3.41,1.74-1.8.94-2.6,1.65-3.37,2.33-.71.63-1.37,1.22-2.95,2.04-1.67.87-2.54,1.27-3.38,1.67-.85.4-1.75.82-3.45,1.71-1.66.86-2.5,1.29-3.34,1.72-.87.44-1.72.87-3.44,1.77-1.72.89-2.57,1.37-3.4,1.84-.8.46-1.64.93-3.3,1.79-1.6.82-2.46,1.08-3.36,1.34-.97.28-1.97.57-3.75,1.49-1.72.89-2.57,1.41-3.38,1.9-.83.5-1.6.98-3.26,1.84-1.74.9-2.57,1.46-3.38,2-.79.53-1.55,1.03-3.19,1.89-1.61.83-2.46,1.09-3.37,1.36-.96.29-1.95.58-3.73,1.51-1.74.9-2.58,1.46-3.38,2.01-.79.54-1.54,1.04-3.18,1.89-1.64.85-2.48,1.17-3.37,1.51-.91.35-1.85.71-3.59,1.61-1.81.94-2.61,1.63-3.38,2.29-.72.62-1.39,1.2-2.97,2.02-1.66.86-2.5,1.23-3.38,1.61-.87.38-1.78.78-3.5,1.67-1.59.82-2.45,1.05-3.36,1.29-.26.07-.52.14-.79.22ZM532.46,263.11c-.81.93-1.83,2.08-2.83,3.97-1.26,2.36-1.95,3.46-2.68,4.63-.72,1.14-1.46,2.32-2.75,4.74-1.28,2.41-1.87,3.68-2.44,4.9-.55,1.19-1.13,2.43-2.38,4.79-1.25,2.35-1.97,3.5-2.66,4.62-.42.66-.84,1.34-1.37,2.26-.39.67-.83,1.46-1.39,2.51-1.29,2.44-1.83,3.73-2.35,4.99-.52,1.27-1.02,2.47-2.27,4.82-1.21,2.28-2.07,3.24-2.97,4.27-.95,1.07-1.92,2.18-3.25,4.68-1.3,2.45-1.79,3.79-2.27,5.08-.47,1.28-.91,2.49-2.15,4.82-1.3,2.45-1.83,3.76-2.33,5.03-.51,1.27-.99,2.47-2.23,4.81-1.2,2.26-2.1,3.19-3.06,4.18-1.01,1.05-2.05,2.13-3.39,4.65-1.26,2.36-1.94,3.55-2.6,4.69-.67,1.16-1.37,2.36-2.65,4.78-1.34,2.5-1.7,3.94-2.04,5.33-.33,1.33-.64,2.58-1.85,4.85-1.24,2.33-1.97,3.4-2.76,4.52-.78,1.13-1.59,2.29-2.89,4.73-1.26,2.37-1.95,3.55-2.61,4.69-.67,1.16-1.37,2.36-2.65,4.76-1.25,2.34-1.96,3.42-2.72,4.56-.76,1.14-1.53,2.31-2.83,4.75-1.3,2.45-1.79,3.78-2.28,5.06-.48,1.28-.93,2.49-2.18,4.83-1.29,2.43-1.83,3.73-2.35,4.99-.52,1.27-1.02,2.47-2.27,4.81-1.69,3.19-3.39,6.37-5.08,9.55-1.29,2.42-1.86,3.69-2.41,4.92-.54,1.2-1.1,2.44-2.35,4.79-1.21,2.28-2.05,3.26-2.94,4.3-.93,1.08-1.88,2.19-3.21,4.68-1.28,2.4-1.88,3.66-2.46,4.87-.57,1.19-1.15,2.42-2.41,4.79-1.3,2.44-1.81,3.77-2.3,5.04-.49,1.27-.96,2.48-2.2,4.82-1.24,2.33-1.98,3.38-2.77,4.51-.79,1.12-1.61,2.28-2.9,4.72-1.34,2.52-1.97,3.71-2.64,4.97-.6,1.13-1.23,2.33-2.43,4.58-1.33,2.5-1.69,3.94-2.04,5.33-.33,1.33-.64,2.58-1.85,4.85-1.26,2.37-1.93,3.49-2.65,4.67-.69,1.15-1.41,2.34-2.69,4.75-.99,1.85-1.3,3.59-1.55,4.99-.43,2.41-.58,3.23-3.16,3.22h-.02c-2.54-.01-2.65-.82-3-3.21-.21-1.44-.47-3.23-1.46-5.15-1.26-2.42-1.97-3.62-2.66-4.77-.71-1.19-1.37-2.31-2.61-4.7-1.22-2.35-1.67-3.57-2.15-4.85-.48-1.28-.97-2.61-2.24-5.07-1.28-2.48-2.15-3.63-2.98-4.74-.82-1.09-1.59-2.13-2.8-4.46-1.19-2.28-1.47-3.55-1.77-4.88-.32-1.41-.64-2.86-1.95-5.38-1.25-2.41-1.88-3.61-2.51-4.81-.63-1.19-1.26-2.39-2.5-4.78-1.27-2.44-2.03-3.63-2.76-4.77-.74-1.16-1.45-2.24-2.67-4.6-1.23-2.36-1.71-3.56-2.23-4.83-.51-1.26-1.04-2.57-2.3-5.01-1.28-2.47-2.1-3.64-2.9-4.76-.78-1.11-1.53-2.17-2.74-4.5-1.21-2.34-1.65-3.56-2.12-4.84-.47-1.29-.95-2.64-2.23-5.09-1.3-2.51-2.25-3.63-3.17-4.71-.88-1.04-1.72-2.02-2.91-4.32-1.17-2.27-1.43-3.54-1.7-4.89-.29-1.43-.58-2.9-1.9-5.44-1.27-2.45-2.06-3.63-2.82-4.76-.76-1.13-1.49-2.21-2.7-4.56-1.25-2.41-1.91-3.63-2.54-4.8-.63-1.16-1.28-2.37-2.52-4.76-1.28-2.48-2.13-3.63-2.95-4.75-.81-1.1-1.57-2.14-2.77-4.47-1.19-2.29-1.5-3.54-1.83-4.87-.34-1.39-.69-2.82-2-5.33-1.25-2.41-1.92-3.62-2.56-4.79-.63-1.16-1.29-2.37-2.54-4.76-1.27-2.45-2.09-3.62-2.88-4.74-.78-1.12-1.53-2.17-2.74-4.52-1.01-1.94-1.58-3.1-2.07-4.12.9-.24,1.89-.54,3.52-1.39,1.66-.86,2.49-1.22,3.38-1.61.88-.39,1.78-.78,3.51-1.67,1.79-.93,2.59-1.62,3.37-2.29.72-.61,1.39-1.19,2.98-2.02,1.63-.85,2.48-1.17,3.37-1.51.91-.35,1.85-.7,3.59-1.61,1.74-.9,2.58-1.46,3.38-2.01.79-.54,1.54-1.04,3.18-1.89,1.6-.83,2.46-1.09,3.37-1.36.96-.29,1.95-.58,3.73-1.51,1.75-.91,2.58-1.47,3.39-2.01.79-.53,1.54-1.03,3.18-1.88,1.72-.89,2.57-1.41,3.38-1.9.82-.5,1.6-.98,3.26-1.84,1.6-.83,2.46-1.09,3.37-1.35.96-.28,1.96-.57,3.74-1.49,1.7-.89,2.55-1.37,3.37-1.83.85-.48,1.64-.93,3.33-1.8,1.71-.89,2.56-1.32,3.42-1.76.84-.42,1.69-.86,3.36-1.72,1.68-.87,2.54-1.27,3.38-1.67.86-.4,1.75-.82,3.45-1.7,1.81-.94,2.61-1.65,3.38-2.34.7-.63,1.37-1.22,2.94-2.04,1.68-.88,2.53-1.3,3.38-1.72.86-.43,1.71-.86,3.41-1.74,1.63-.85,2.48-1.15,3.38-1.47.92-.33,1.88-.67,3.63-1.58,1.64-.85,2.48-1.18,3.36-1.54.9-.36,1.83-.73,3.57-1.64,1.74-.9,2.58-1.45,3.39-1.98.8-.53,1.56-1.02,3.21-1.87,1.63-.85,2.48-1.15,3.37-1.47.92-.33,1.88-.67,3.64-1.58,1.83-.95,2.61-1.71,3.36-2.45.67-.66,1.31-1.28,2.87-2.09,1.14-.59,2.38-.59,3.56-.58,1.78,0,4.2.02,4.22-3.29.02-3.31-2.38-3.43-4.13-3.52-1.14-.06-2.33-.12-3.45-.72-1.66-.88-2.5-1.35-3.3-1.8-.83-.46-1.68-.94-3.39-1.85-1.66-.88-2.49-1.36-3.29-1.82-.82-.47-1.67-.96-3.38-1.87-1.71-.91-2.6-1.33-3.46-1.73-.84-.4-1.7-.8-3.36-1.68-1.55-.83-2.2-1.44-2.89-2.09-.76-.71-1.54-1.45-3.34-2.41-1.77-.94-2.76-1.25-3.71-1.55-.9-.28-1.76-.55-3.35-1.4-1.71-.91-2.61-1.32-3.48-1.71-.88-.39-1.71-.76-3.36-1.64-1.71-.9-2.6-1.32-3.47-1.72-.88-.41-1.71-.79-3.37-1.67-1.58-.84-2.25-1.42-2.96-2.05-.77-.67-1.56-1.37-3.35-2.32-1.75-.93-2.7-1.27-3.63-1.6-.89-.32-1.74-.62-3.35-1.48-1.72-.92-2.63-1.31-3.52-1.68-.89-.37-1.72-.73-3.36-1.61-1.63-.87-2.38-1.38-3.18-1.91-.8-.54-1.63-1.1-3.36-2.02-1.63-.87-2.39-1.37-3.19-1.9-.81-.53-1.64-1.08-3.37-2-1.71-.91-2.62-1.32-3.49-1.71-.88-.39-1.71-.76-3.36-1.64-1.68-.89-2.52-1.35-3.35-1.8-.84-.45-1.68-.91-3.36-1.8-1.61-.86-2.33-1.4-3.1-1.96-.79-.59-1.61-1.2-3.36-2.13-1.82-.97-2.95-1.18-3.94-1.37-.93-.18-1.8-.34-3.34-1.16-1.62-.86-2.36-1.38-3.14-1.93-.8-.56-1.62-1.14-3.36-2.07-1.59-.85-2.29-1.41-3.02-2.01-.78-.63-1.59-1.28-3.35-2.23-1.67-.89-2.53-1.33-3.37-1.76-.63-.33-1.26-.65-2.23-1.16.52-.78.98-1.36,1.46-1.95.88-1.09,1.79-2.22,3.11-4.69,1.24-2.33,1.99-3.38,2.77-4.51.79-1.12,1.6-2.28,2.91-4.73,1.34-2.53,1.62-4.03,1.9-5.47.26-1.35.5-2.63,1.69-4.88,1.24-2.32,2.01-3.36,2.82-4.46.82-1.11,1.67-2.26,2.98-4.72,1.27-2.4,1.91-3.59,2.56-4.78.64-1.18,1.28-2.38,2.55-4.76,1.29-2.42,1.86-3.7,2.41-4.93.56-1.26,1.1-2.44,2.35-4.8,1.25-2.35,1.96-3.44,2.71-4.58.74-1.14,1.52-2.31,2.81-4.73,1.25-2.34,1.97-3.41,2.74-4.55.76-1.13,1.55-2.3,2.85-4.73,1.29-2.43,1.84-3.72,2.37-4.97.54-1.26,1.04-2.46,2.29-4.8,1.31-2.46,1.79-3.8,2.25-5.1.46-1.29.89-2.51,2.13-4.83,1.21-2.28,2.06-3.25,2.96-4.28.93-1.07,1.91-2.18,3.23-4.68,1.29-2.41,1.87-3.68,2.43-4.91.55-1.19,1.12-2.43,2.37-4.79,1.29-2.42,1.86-3.7,2.41-4.93.54-1.2,1.09-2.44,2.34-4.79,1.31-2.48,1.74-3.86,2.16-5.2.41-1.3.79-2.54,2.01-4.84,1.2-2.27,2.09-3.21,3.03-4.21.99-1.05,2.01-2.14,3.35-4.65,1.28-2.41,1.87-3.67,2.44-4.89.56-1.19,1.14-2.43,2.39-4.79,1.26-2.37,1.94-3.56,2.6-4.7.67-1.16,1.36-2.36,2.64-4.77,1.27-2.4,1.94-3.6,2.59-4.76.65-1.16,1.31-2.36,2.58-4.74,1.11-2.09,1.22-4.23,1.31-5.96.14-2.76.27-3.49,2.45-3.48h.01c2.1.02,2.18.68,2.17,3.47,0,1.81-.02,4.05,1.11,6.23,1.32,2.54,2.37,3.63,3.4,4.68.96.98,1.87,1.92,3.04,4.18,1.21,2.33,1.64,3.55,2.1,4.84.46,1.3.94,2.65,2.22,5.12,1.27,2.45,2.04,3.64,2.78,4.78.75,1.15,1.46,2.24,2.68,4.59,1.22,2.35,1.7,3.55,2.21,4.82.5,1.27,1.03,2.58,2.3,5.03,1.21,2.34,1.65,3.56,2.1,4.84.46,1.3.94,2.64,2.21,5.1,1.24,2.4,1.85,3.62,2.45,4.81.59,1.2,1.21,2.43,2.46,4.84,1.3,2.52,2.29,3.63,3.24,4.7.91,1.02,1.77,1.99,2.95,4.28,1.24,2.38,1.81,3.62,2.37,4.81.57,1.22,1.16,2.47,2.41,4.89,1.24,2.4,1.85,3.6,2.47,4.81.61,1.21,1.23,2.41,2.47,4.81,1.26,2.43,1.94,3.63,2.6,4.8.64,1.15,1.32,2.33,2.55,4.72,1.19,2.31,1.55,3.55,1.93,4.86.39,1.35.79,2.75,2.09,5.24,1.26,2.43,1.98,3.62,2.68,4.78.72,1.18,1.39,2.28,2.62,4.65,1.27,2.45,2.06,3.63,2.82,4.76.76,1.13,1.49,2.21,2.7,4.56,1.21,2.32,1.57,3.55,1.96,4.86.4,1.35.81,2.73,2.1,5.22,1.27,2.45,2.06,3.62,2.83,4.76.77,1.13,1.49,2.21,2.71,4.56,1.22,2.34,1.68,3.55,2.17,4.83.49,1.28.99,2.6,2.27,5.06,1.3,2.51,2.26,3.63,3.18,4.7.89,1.04,1.73,2.01,2.92,4.31,1.23,2.37,1.77,3.61,2.29,4.82.54,1.24,1.1,2.52,2.36,4.95,1.19,2.3,1.52,3.55,1.87,4.87.36,1.37.73,2.79,2.03,5.29,1.3,2.52,2.3,3.63,3.27,4.7.92,1.02,1.79,1.98,2.97,4.26,1.2,2.32,1.62,3.54,2.06,4.84.44,1.31.9,2.67,2.18,5.14.67,1.29,1.25,2.36,1.81,3.35.3.52.56.97.83,1.42.71,1.19,1.37,2.31,2.61,4.7,1.23,2.38,1.82,3.61,2.39,4.8.58,1.21,1.17,2.46,2.43,4.88,1.28,2.46,2.11,3.63,2.92,4.75.8,1.11,1.55,2.16,2.76,4.49.99,1.92,2.02,3.08,2.84,4.02,1.31,1.49,2.09,2.35,2.08,5.36-.02,3.02-.81,3.92-2.12,5.41Z" style="fill: #f2ebdd; stroke-width: 0px;"/>
    <path d="M114.95,502.14c-1.23-2.38-1.82-3.61-2.38-4.8-.58-1.21-1.17-2.46-2.43-4.88-1.26-2.43-1.97-3.63-2.66-4.79-.67-1.13-1.37-2.3-2.59-4.67-1.21-2.33-1.62-3.56-2.06-4.85-.44-1.31-.9-2.67-2.18-5.13-1.31-2.52-2.3-3.63-3.27-4.69-.92-1.02-1.78-1.98-2.97-4.26-1.19-2.3-1.52-3.55-1.87-4.87-.36-1.38-.73-2.79-2.03-5.3-1.23-2.37-1.74-3.56-2.29-4.82-.54-1.24-1.1-2.52-2.36-4.95-1.3-2.51-2.26-3.63-3.19-4.7-.89-1.04-1.73-2.02-2.92-4.31-1.22-2.35-1.68-3.56-2.16-4.84-.49-1.28-1-2.6-2.26-5.05-1.28-2.45-2.07-3.63-2.83-4.77-.76-1.13-1.49-2.21-2.7-4.54-1.2-2.31-1.57-3.55-1.96-4.86-.4-1.35-.82-2.74-2.11-5.23-1.27-2.45-2.06-3.63-2.82-4.77-.76-1.14-1.48-2.22-2.7-4.56-1.26-2.43-1.99-3.63-2.69-4.79-.71-1.18-1.39-2.28-2.61-4.65-1.2-2.31-1.56-3.55-1.94-4.86-.39-1.36-.8-2.75-2.09-5.24-1.26-2.42-1.93-3.62-2.59-4.79-.65-1.15-1.32-2.34-2.56-4.73-1.25-2.41-1.86-3.61-2.47-4.82-.61-1.21-1.23-2.41-2.47-4.82-1.24-2.39-1.79-3.58-2.38-4.83-.57-1.22-1.16-2.47-2.4-4.88-1.31-2.52-2.29-3.63-3.24-4.7-.91-1.02-1.77-1.99-2.95-4.27-1.25-2.41-1.86-3.65-2.46-4.84-.59-1.18-1.2-2.42-2.45-4.81-1.21-2.34-1.65-3.56-2.1-4.84-.46-1.3-.94-2.64-2.22-5.11-1.23-2.37-1.71-3.57-2.22-4.84-.51-1.26-1.03-2.57-2.29-5.02-1.27-2.45-2.04-3.63-2.78-4.77-.75-1.15-1.46-2.24-2.67-4.57l-.07-.14-.95.47h-1.03s-1.11,208.43-1.11,208.43l110.38.59v-1.04s.88-.58.88-.58c-.36-.53-.68-.98-1-1.44-.8-1.11-1.54-2.15-2.75-4.47ZM9.53,507l1.08-202.42c.33.53.62.99.91,1.43.75,1.15,1.46,2.24,2.68,4.59,1.22,2.35,1.7,3.56,2.21,4.83.5,1.26,1.03,2.57,2.3,5.03,1.21,2.34,1.65,3.55,2.1,4.84.46,1.3.94,2.65,2.22,5.1,1.23,2.38,1.84,3.6,2.43,4.78.6,1.2,1.21,2.44,2.47,4.87,1.3,2.52,2.29,3.63,3.24,4.7.91,1.03,1.76,1.99,2.95,4.28,1.23,2.37,1.81,3.61,2.37,4.8.57,1.22,1.16,2.48,2.42,4.91,1.25,2.4,1.85,3.6,2.47,4.8.61,1.21,1.23,2.42,2.48,4.83,1.25,2.42,1.93,3.63,2.59,4.79.65,1.15,1.32,2.34,2.56,4.73,1.2,2.31,1.56,3.55,1.94,4.86.39,1.35.8,2.75,2.09,5.24,1.26,2.43,1.98,3.62,2.69,4.77.71,1.18,1.39,2.29,2.62,4.66,1.27,2.45,2.06,3.63,2.82,4.76.76,1.14,1.48,2.22,2.7,4.57,1.21,2.32,1.57,3.55,1.96,4.86.4,1.34.81,2.73,2.1,5.22,1.27,2.45,2.06,3.62,2.83,4.75.76,1.14,1.49,2.21,2.71,4.56,1.22,2.35,1.68,3.56,2.16,4.84.49,1.28.99,2.6,2.26,5.05,1.3,2.51,2.27,3.63,3.2,4.71.89,1.04,1.73,2.01,2.92,4.3,1.23,2.37,1.74,3.56,2.29,4.82.54,1.24,1.1,2.52,2.36,4.95,1.19,2.3,1.52,3.55,1.87,4.87.36,1.38.73,2.79,2.03,5.3,1.3,2.52,2.3,3.63,3.27,4.69.92,1.02,1.78,1.97,2.97,4.26,1.21,2.32,1.62,3.54,2.06,4.84.44,1.31.9,2.67,2.18,5.14,1.26,2.42,1.97,3.61,2.65,4.77.7,1.19,1.37,2.31,2.6,4.69,1.24,2.39,1.83,3.62,2.4,4.82.58,1.21,1.17,2.45,2.42,4.87,1.17,2.27,1.97,3.42,2.72,4.47l-106.29-.57Z" style="fill: #f2ebdd; stroke-width: 0px;"/>
    <path d="M515.28,318.95c-.56.75-1.1,1.63-1.66,2.68-1.31,2.48-1.74,3.86-2.16,5.2-.41,1.3-.79,2.54-2.01,4.84-1.29,2.42-1.86,3.69-2.41,4.93-.54,1.2-1.09,2.44-2.34,4.79-1.28,2.41-1.86,3.68-2.43,4.9-.55,1.19-1.12,2.43-2.37,4.79-1.21,2.29-2.06,3.26-2.96,4.29-.94,1.07-1.91,2.18-3.23,4.67-1.3,2.46-1.78,3.81-2.25,5.11-.45,1.29-.89,2.51-2.12,4.83-1.29,2.43-1.84,3.72-2.37,4.97-.54,1.27-1.04,2.46-2.29,4.8-1.25,2.33-1.97,3.4-2.73,4.54-.77,1.14-1.55,2.3-2.86,4.75-1.25,2.35-1.96,3.44-2.71,4.58-.74,1.14-1.52,2.31-2.81,4.73-1.29,2.43-1.86,3.7-2.41,4.93-.54,1.2-1.09,2.44-2.34,4.79-1.32,2.47-1.96,3.66-2.62,4.9-.62,1.15-1.26,2.34-2.49,4.64-1.23,2.32-2,3.36-2.81,4.46-.82,1.11-1.68,2.26-2.98,4.72-1.35,2.53-1.63,4.03-1.9,5.47-.26,1.35-.5,2.63-1.69,4.88-1.24,2.34-1.99,3.4-2.77,4.52-.79,1.12-1.6,2.28-2.9,4.72-1.22,2.3-2.04,3.3-2.89,4.36-.88,1.09-1.79,2.22-3.11,4.7-1.28,2.41-1.91,3.65-2.52,4.83-.6,1.17-1.23,2.39-2.49,4.76-1.29,2.43-1.85,3.71-2.39,4.95-.55,1.26-1.06,2.45-2.31,4.8-1.24,2.33-1.98,3.39-2.77,4.51-.79,1.13-1.6,2.28-2.9,4.73-1.3,2.46-1.8,3.79-2.28,5.09-.47,1.28-.92,2.49-2.16,4.83-1.24,2.34-1.97,3.4-2.75,4.53-.78,1.13-1.58,2.29-2.88,4.73-1.26,2.36-1.47,3.97-1.65,5.38-.06.48-.12.95-.22,1.41l1.01.22v1.04s99.81.53,99.81.53l1.03-192.21h-1.04s-.84-.63-.84-.63ZM514.06,509.7l-96.53-.52c.01-.11.03-.23.05-.34.17-1.3.34-2.64,1.42-4.67,1.25-2.34,1.98-3.4,2.76-4.53.78-1.13,1.58-2.29,2.88-4.73,1.3-2.45,1.8-3.79,2.28-5.09.47-1.28.92-2.5,2.16-4.83,1.24-2.33,1.98-3.39,2.77-4.51.79-1.13,1.6-2.28,2.9-4.73,1.29-2.43,1.85-3.71,2.38-4.96.55-1.26,1.06-2.45,2.32-4.8,1.26-2.38,1.89-3.6,2.5-4.79.61-1.18,1.24-2.41,2.51-4.81,1.22-2.3,2.03-3.31,2.89-4.37.88-1.09,1.79-2.22,3.11-4.69,1.24-2.33,1.98-3.39,2.77-4.51.79-1.12,1.61-2.28,2.91-4.73,1.34-2.53,1.62-4.02,1.9-5.47.26-1.35.5-2.63,1.7-4.88,1.24-2.32,2.01-3.36,2.82-4.46.82-1.11,1.68-2.26,2.98-4.72,1.22-2.29,1.86-3.48,2.48-4.63.67-1.24,1.31-2.43,2.63-4.91,1.28-2.41,1.86-3.69,2.4-4.92.56-1.26,1.1-2.45,2.35-4.81,1.25-2.34,1.96-3.42,2.71-4.57.74-1.14,1.52-2.31,2.81-4.75,1.25-2.35,1.98-3.42,2.75-4.56.76-1.13,1.55-2.29,2.85-4.72,1.29-2.43,1.84-3.72,2.37-4.97.53-1.26,1.04-2.46,2.29-4.8,1.31-2.46,1.79-3.8,2.25-5.1.46-1.29.89-2.51,2.13-4.83,1.21-2.28,2.06-3.25,2.96-4.28.94-1.07,1.91-2.18,3.24-4.68,1.28-2.41,1.86-3.68,2.43-4.9.55-1.19,1.12-2.43,2.37-4.79,1.29-2.42,1.86-3.69,2.4-4.92.56-1.25,1.09-2.44,2.35-4.8,1.31-2.48,1.74-3.86,2.16-5.2.36-1.15.7-2.25,1.62-4.08l-1,186.33Z" style="fill: #f2ebdd; stroke-width: 0px;"/>
    <path d="M11,212.01h0s1.91-3.59,1.91-3.59c.76-1.44,1.38-2.6,2.86-5.39,1.24-2.33,1.98-3.38,2.77-4.51.79-1.12,1.6-2.28,2.9-4.73,1.3-2.45,1.81-3.77,2.3-5.05.49-1.28.96-2.48,2.2-4.82,1.28-2.41,1.88-3.66,2.46-4.87.57-1.19,1.15-2.42,2.41-4.79,1.21-2.28,2.05-3.26,2.94-4.3.93-1.08,1.88-2.19,3.2-4.68,1.29-2.42,1.86-3.69,2.41-4.92.57-1.25,1.1-2.44,2.36-4.8l2.25-4.22c.75-1.41,1.37-2.57,2.84-5.33,1.29-2.43,1.83-3.72,2.35-4.98.53-1.27,1.02-2.46,2.27-4.8,1.3-2.45,1.79-3.78,2.28-5.06.48-1.28.93-2.49,2.18-4.83,1.25-2.34,1.96-3.42,2.72-4.56.76-1.14,1.54-2.31,2.83-4.75,1.26-2.36,1.94-3.54,2.6-4.68.67-1.16,1.37-2.36,2.65-4.78,1.25-2.35,1.98-3.41,2.76-4.54.78-1.12,1.58-2.28,2.88-4.72,1.34-2.51,1.7-3.94,2.04-5.34.33-1.33.64-2.58,1.85-4.85,1.26-2.36,1.94-3.55,2.6-4.69.67-1.16,1.36-2.36,2.65-4.78,1.2-2.26,2.1-3.19,3.06-4.18,1.01-1.05,2.05-2.13,3.39-4.65,1.3-2.44,1.82-3.76,2.33-5.02.51-1.27.99-2.48,2.23-4.82,1.3-2.45,1.79-3.78,2.26-5.08.47-1.28.91-2.49,2.15-4.83,1.21-2.28,2.07-3.25,2.97-4.28.95-1.07,1.92-2.18,3.25-4.67,1.29-2.44,1.83-3.73,2.35-4.99.53-1.27,1.02-2.46,2.27-4.81,1.25-2.35,1.97-3.5,2.67-4.62.71-1.15,1.45-2.33,2.75-4.76,1.28-2.41,1.87-3.68,2.44-4.9.55-1.2,1.13-2.44,2.38-4.8,1.26-2.35,1.94-3.45,2.68-4.62.72-1.15,1.46-2.33,2.76-4.77.13-.25.27-.48.4-.71l-.9-.54V.6S10.16,0,10.16,0l-1.13,211.52h1.05s.92.49.92.49ZM12.23,2.09l108.95.58c-1.01,1.85-1.62,2.84-2.28,3.88-.72,1.14-1.46,2.33-2.75,4.75-1.28,2.41-1.87,3.68-2.44,4.9-.55,1.19-1.13,2.43-2.38,4.79-1.26,2.37-1.95,3.47-2.68,4.64-.71,1.15-1.45,2.33-2.74,4.75-1.29,2.44-1.83,3.73-2.35,4.99-.53,1.27-1.02,2.46-2.27,4.81-1.21,2.27-2.07,3.24-2.97,4.26-.95,1.07-1.93,2.18-3.26,4.67-1.3,2.45-1.79,3.79-2.27,5.09-.47,1.28-.92,2.49-2.15,4.82-1.3,2.44-1.82,3.75-2.33,5.02-.51,1.27-.99,2.48-2.23,4.82-1.2,2.26-2.1,3.19-3.06,4.18-1.01,1.05-2.05,2.13-3.39,4.65-1.27,2.38-1.95,3.57-2.62,4.71-.67,1.16-1.36,2.36-2.64,4.75-1.33,2.5-1.69,3.94-2.04,5.33-.33,1.33-.64,2.58-1.86,4.86-1.24,2.33-1.97,3.38-2.75,4.51-.78,1.13-1.58,2.29-2.89,4.74-1.27,2.38-1.95,3.57-2.62,4.71-.67,1.15-1.37,2.35-2.64,4.75-1.25,2.35-1.96,3.43-2.73,4.57-.76,1.13-1.53,2.3-2.82,4.73-1.3,2.46-1.81,3.79-2.29,5.08-.48,1.28-.93,2.49-2.17,4.82-1.29,2.43-1.83,3.73-2.35,4.99-.53,1.27-1.02,2.46-2.27,4.8-1.46,2.76-2.08,3.92-2.83,5.33l-2.25,4.22c-1.29,2.42-1.86,3.69-2.41,4.92-.56,1.26-1.1,2.44-2.35,4.8-1.22,2.28-2.06,3.26-2.95,4.3-.92,1.08-1.87,2.19-3.2,4.68-1.28,2.41-1.88,3.66-2.46,4.87-.57,1.19-1.15,2.42-2.41,4.79-1.3,2.45-1.81,3.77-2.3,5.04-.49,1.27-.96,2.48-2.2,4.82-1.24,2.33-1.98,3.39-2.77,4.51-.79,1.12-1.6,2.28-2.9,4.72-1.44,2.7-2.07,3.88-2.8,5.26L12.23,2.09Z" style="fill: #f2ebdd; stroke-width: 0px;"/>
    <polygon points="515.85 196.64 515.84 196.63 515.84 196.63 515.85 196.64" style="fill: #f2ebdd; stroke-width: 0px;"/>
    <path d="M418.47,8.61c.48,1.28.98,2.61,2.25,5.07,1.21,2.34,1.64,3.56,2.1,4.84.46,1.3.94,2.65,2.22,5.11,1.26,2.43,1.98,3.62,2.67,4.78.71,1.18,1.38,2.3,2.61,4.67,1.28,2.46,2.1,3.62,2.9,4.74.79,1.11,1.54,2.16,2.75,4.5,1.26,2.43,2,3.61,2.71,4.76.72,1.17,1.41,2.27,2.63,4.64,1.19,2.3,1.53,3.54,1.88,4.86.37,1.37.74,2.78,2.04,5.29,1.24,2.4,1.83,3.63,2.41,4.82.58,1.2,1.17,2.45,2.42,4.85,1.28,2.47,2.1,3.63,2.89,4.76.78,1.12,1.53,2.17,2.74,4.5,1.25,2.41,1.92,3.62,2.56,4.79.64,1.16,1.29,2.37,2.53,4.76,1.19,2.29,1.5,3.54,1.83,4.87.34,1.39.69,2.82,1.99,5.33,1.28,2.47,2.13,3.63,2.95,4.74.81,1.1,1.57,2.15,2.78,4.48,1.26,2.43,1.92,3.64,2.55,4.82.63,1.16,1.28,2.36,2.51,4.74,1.27,2.45,2.06,3.63,2.82,4.76.76,1.14,1.48,2.22,2.7,4.57,1.18,2.27,1.44,3.54,1.71,4.89.28,1.43.58,2.9,1.89,5.44,1.3,2.51,2.26,3.63,3.17,4.71.88,1.04,1.72,2.02,2.91,4.33,1.22,2.34,1.66,3.56,2.12,4.84.47,1.29.95,2.64,2.23,5.09,1.28,2.48,2.1,3.64,2.9,4.77.78,1.12,1.53,2.17,2.74,4.5,1.22,2.35,1.71,3.55,2.22,4.82.51,1.26,1.04,2.57,2.31,5.02,1.27,2.44,2.03,3.62,2.76,4.76.74,1.15,1.44,2.25,2.67,4.61,1.26,2.44,1.9,3.64,2.53,4.86.62,1.18,1.25,2.37,2.47,4.73l.28.56.86-.46h1.11s1.03-193.45,1.03-193.45l-101.66-.54v1.05s-.73.48-.73.48l-.14.07s-.04-.06-.04-.06l.05.09c1.21,2.33,1.66,3.53,2.14,4.81ZM516.76,4.79l-1,187.16c-.31-.59-.58-1.1-.84-1.6-.64-1.21-1.27-2.41-2.53-4.84-1.27-2.45-2.03-3.64-2.76-4.78-.74-1.15-1.44-2.24-2.66-4.6-1.23-2.36-1.71-3.57-2.23-4.84-.51-1.26-1.03-2.56-2.3-5-1.28-2.45-2.09-3.61-2.89-4.74-.79-1.12-1.54-2.17-2.76-4.52-1.21-2.34-1.66-3.56-2.12-4.84-.47-1.29-.95-2.63-2.23-5.09-1.3-2.51-2.26-3.64-3.18-4.72-.88-1.04-1.72-2.02-2.91-4.32-1.18-2.27-1.43-3.54-1.7-4.88-.28-1.43-.58-2.91-1.9-5.44-1.27-2.46-2.06-3.64-2.82-4.77-.76-1.14-1.48-2.22-2.7-4.56-1.24-2.39-1.9-3.6-2.53-4.77-.63-1.17-1.29-2.38-2.53-4.79-1.28-2.48-2.13-3.63-2.95-4.75-.81-1.1-1.57-2.14-2.78-4.46-1.18-2.29-1.5-3.54-1.82-4.87-.34-1.39-.69-2.83-2-5.34-1.25-2.41-1.91-3.62-2.56-4.8-.64-1.16-1.29-2.37-2.53-4.76-1.27-2.46-2.09-3.62-2.88-4.74-.79-1.12-1.53-2.17-2.75-4.52-1.23-2.38-1.82-3.6-2.39-4.79-.58-1.21-1.18-2.46-2.44-4.88-1.19-2.3-1.53-3.55-1.88-4.87-.37-1.37-.75-2.78-2.04-5.28-1.26-2.44-2-3.64-2.71-4.78-.72-1.17-1.4-2.27-2.63-4.63-1.28-2.47-2.11-3.63-2.91-4.75-.79-1.11-1.54-2.16-2.75-4.49-1.26-2.43-1.98-3.62-2.67-4.78-.71-1.18-1.38-2.3-2.61-4.67-1.21-2.33-1.64-3.56-2.1-4.84-.46-1.3-.93-2.64-2.21-5.1-1.22-2.34-1.67-3.56-2.15-4.84-.38-1-.77-2.04-1.53-3.62l97.87.52Z" style="fill: #f2ebdd; stroke-width: 0px;"/>
  </g>
</svg>