<?xml version="1.0" encoding="UTF-8"?>
<svg id="b" data-name="Layer 2" xmlns="http://www.w3.org/2000/svg" viewBox="0 0 140.7 55.39">
  <g id="c" data-name="Layer 1">
    <g>
      <path d="M47.1,52.47c-.2.71-.35,1.52-.35,1.52h-.02s-.16-.81-.35-1.52l-.79-2.82h-1.6v5.62h1.05v-3.22c0-.46-.05-1.16-.05-1.16h.02s.13.66.24,1.07l.94,3.32h1.09l.97-3.32c.12-.41.24-1.07.24-1.07h.02s-.05.71-.05,1.16v3.22h1.06v-5.62h-1.63l-.79,2.82Z" style="fill: #f2ebdd; stroke-width: 0px;"/>
      <path d="M53.59,53.44c0,.58-.34,1.01-1.06,1.01-.76,0-1.05-.41-1.05-.99v-3.81h-1.14v3.81c0,1.22.76,1.9,2.22,1.9s2.18-.7,2.18-1.9v-3.81h-1.14v3.8Z" style="fill: #f2ebdd; stroke-width: 0px;"/>
      <path d="M57.85,51.88c-.83-.18-1.23-.31-1.23-.77,0-.4.4-.66,1.01-.66.58,0,1.02.28,1.08.85h1.09c-.09-1.13-.9-1.75-2.17-1.75s-2.15.57-2.15,1.68c0,1.17.92,1.44,1.93,1.67.86.2,1.39.31,1.39.86,0,.52-.51.72-1.09.72-.8,0-1.19-.27-1.27-.94h-1.12c.04,1.19.9,1.86,2.43,1.86,1.27,0,2.18-.64,2.18-1.78,0-1.21-.94-1.49-2.1-1.74Z" style="fill: #f2ebdd; stroke-width: 0px;"/>
      <rect x="60.64" y="49.64" width="1.14" height="5.62" style="fill: #f2ebdd; stroke-width: 0px;"/>
      <polygon points="67.37 49.64 65.95 49.64 63.79 51.89 63.79 49.64 62.65 49.64 62.65 55.26 63.79 55.26 63.79 53.22 64.36 52.64 66.17 55.26 67.51 55.26 65.17 51.89 67.37 49.64" style="fill: #f2ebdd; stroke-width: 0px;"/>
      <rect x="69.27" y="49.64" width="1.14" height="5.62" style="fill: #f2ebdd; stroke-width: 0px;"/>
      <polygon points="72.32 50.6 74.01 50.6 74.01 55.26 75.15 55.26 75.15 50.6 76.84 50.6 76.84 49.64 72.32 49.64 72.32 50.6" style="fill: #f2ebdd; stroke-width: 0px;"/>
      <rect x="77.42" y="49.64" width="1.14" height="5.62" style="fill: #f2ebdd; stroke-width: 0px;"/>
      <path d="M82.69,49.64l-.98,3.25c-.11.36-.24.9-.24.9h-.02s-.13-.53-.24-.9l-.99-3.25h-1.19l1.89,5.62h1.04l1.89-5.62h-1.16Z" style="fill: #f2ebdd; stroke-width: 0px;"/>
      <path d="M86.48,49.54c-1.66,0-2.71,1.25-2.71,2.93s1.05,2.92,2.71,2.92,2.7-1.24,2.7-2.92-1.05-2.93-2.7-2.93ZM86.49,54.46c-1.03,0-1.56-.87-1.56-1.99s.53-2,1.56-2,1.53.87,1.53,2-.5,1.99-1.53,1.99Z" style="fill: #f2ebdd; stroke-width: 0px;"/>
      <polygon points="90.94 49.64 89.81 49.64 89.81 55.26 93.59 55.26 93.59 54.31 90.94 54.31 90.94 49.64" style="fill: #f2ebdd; stroke-width: 0px;"/>
      <rect x="94.21" y="49.64" width="1.14" height="5.62" style="fill: #f2ebdd; stroke-width: 0px;"/>
      <polygon points="0 35.32 0 35.31 0 35.31 0 35.32" style="fill: #f2ebdd; stroke-width: 0px;"/>
      <path d="M13.92,18.84c-3.48,0-6.38,2.44-6.32,5.63.11,1.74,1.28,3.65,2.9,3.65,1.45,0,2.38-1.57,3.13-2.9.7-1.51,1.63-3.08,3.08-3.08,2.26,0,3.43,3.88,3.48,6.26.18,4.46-2.03,2.43-6.15,4.46-2.09.99-3.13,4.29-5.68,4.29s-4.7-3.01-4.81-6.26c-.17-4.29,2.67-6.21,2.5-10.73-.06-3.07-1.86-7.07-1.97-10.55-.12-3.19.99-6.21,4.7-6.21,2.96,0,6.26,1.57,6.38,4.46.06,2.26-1.39,4.06-1.33,6.09.06,1.45,1.16,2.84,2.67,2.84,2.61,0,5.22-2.49,5.1-5.74-.17-5.22-4.58-10.21-13.05-10.21C3.31.86.18,4,.36,9.04c.23,6.27,2.66,4.93,3.19,10.15C4.01,25.23-.17,29.23,0,35.31c.17,4.12,2.79,7.31,6.5,7.31,5.86,0,4.7-6.61,7.66-6.61,1.91,0,3.48,1.8,5.16,1.8,2.43,0,3.54-6.44,3.42-9.51-.23-5.86-3.83-9.45-8.81-9.45Z" style="fill: #f2ebdd; stroke-width: 0px;"/>
      <path d="M33.18,7.3c2.26,0,4.06,2.67,6.26,2.67s4.46-2.15,4.46-4.99c0-1.91-1.04-4.99-3.01-4.99-2.72,0-3.94,3.54-7.08,3.54-.76,0-1.57-.17-2.38-.17-3.71,0-6.15,3.42-6.15,7.13,0,4.12,3.02,6.73,3.08,10.96,0,2.26-.93,4.52-1.68,6.67-1.22,3.02-2.61,6.61-2.61,10.03h.01c0,1.92.81,4.58,2.9,4.58,1.22,0,2.5-.87,3.36-2.03.75-.99,1.51-2.26,2.55-2.26,1.68-.35,2.9,3.19,5.45,3.19,3.54-.06,5.45-4.35,5.45-8.93,0-1.8-.52-3.71-2.26-3.71-3.89,0-3.94,7.13-8.06,7.13-.41,0-.76-.12-1.22-.12-2.79,0-2.9,2.96-4.06,2.96-1.51,0-1.8-2.15-1.39-4.64.93-4.41,4.35-12.99,6.32-12.99,2.09,0,1.45,2.79,4,2.79,2.38,0,4-2.15,4-5.22-.12-1.86-.58-3.01-2.5-3.01-2.55,0-4.06,3.54-6.61,3.54s-4-3.13-4-5.92c0-3.36,2.26-6.21,5.16-6.21Z" style="fill: #f2ebdd; stroke-width: 0px;"/>
      <path d="M68.03,21.22c0-7.54,4.64-8,4.64-14.21,0-3.48-2.5-6.84-5.68-6.84-2.08,0-3.88,1.68-3.88,4.12,0,3.01,2.67,6.03,2.72,9.39,0,2.09-1.16,3.83-1.16,6.03,0,5.33,3.01,9.45,3.01,14.09,0,2.21-.81,3.77-2.84,3.77-3.25,0-4.81-3.65-4.81-7.66,0-3.42,1.04-6.67,1.04-10.09,0-6.44-4.23-17.98-9.63-17.98-3.3,0-5.39,1.92-5.39,5.8,0,5.57,6.79,9.1,6.79,15.48s-6.38,7.89-6.38,13.45c0,2.61,1.68,5.5,4.52,5.5s3.77-3.08,3.77-5.8c0-1.57-.35-4.58-.35-5.39,0-2.78.99-4.06.99-6.73,0-3.13-2.55-5.97-2.55-8.81,0-1.16.75-2.84,2.26-2.84,2.43,0,4,6.21,4,9.86,0,4.75-.87,6.32-.87,9.68,0,4.76,2.66,8.76,7.02,8.76,3.71,0,5.16-2.32,5.16-5.68,0-5.04-2.38-8.06-2.38-13.92Z" style="fill: #f2ebdd; stroke-width: 0px;"/>
      <polygon points="46.46 36.59 46.46 36.59 46.46 36.59 46.46 36.59" style="fill: #f2ebdd; stroke-width: 0px;"/>
      <path d="M92.97,30.73c0-2.55-1.1-4.99-3.25-4.99-5.51,0-5.8,12.24-10.67,12.24-1.62,0-2.32-1.68-2.32-3.42,0-5.45,3.25-6.55,3.25-13.05,0-10.32,6.73-9.16,6.73-16.88,0-2.32-.99-4-3.65-4-3.25,0-5.63,3.13-5.63,6.9,0,2.38,1.16,6.73,1.16,10.32-.17,6.96-4.99,10.85-4.99,17.98h0c0,3.13,1.74,6.55,4.35,6.55,2.96,0,3.59-4.99,5.97-4.99,1.39,0,1.91,1.8,3.88,1.8,3.3,0,5.16-4.58,5.16-8.47Z" style="fill: #f2ebdd; stroke-width: 0px;"/>
      <path d="M117.49,7.71c0-3.54-1.97-7.19-4.99-7.19-2.2,0-3.88,2.15-3.88,5.05,0,2.38,1.51,4.87,1.51,7.37s-1.74,4.87-4.12,4.93c-2.5,0-5.1-2.49-5.1-5.45,0-2.79,1.04-3.25,1.04-6.79,0-2.84-.52-5.22-2.55-5.22-2.26,0-4.52,4.06-4.46,8.18,0,7.02,4.18,10.84,11.43,10.84,3.31,0,3.36,2.5,3.36,6.09,0,2.9,1.45,5.62,1.45,8.41,0,1.57-.64,2.96-2.15,2.96-5.68,0-3.59-12.06-10.26-12.06-2.32,0-4.23,1.97-4.23,4.76h0c0,5.04,5.97,13.22,11.31,13.22,4.7,0,7.95-4.23,7.95-9.57,0-5.04-3.08-8.35-3.08-12.53,0-6.5,6.79-5.39,6.79-12.99Z" style="fill: #f2ebdd; stroke-width: 0px;"/>
      <path d="M119.99,34.62c-.93,1.39-1.1,2.08-1.1,3.88h0c0,1.86,1.04,3.89,3.3,3.89,2.49,0,2.96-1.39,6.15-1.39,5.16,0,7.59.4,10.38-3.77,1.28-1.86,1.97-4.29,1.97-6.73,0-4.58-3.08-8.59-3.13-13.05,0-3.59,1.86-6.09,1.86-9.68,0-4.58-2.61-5.8-6.79-5.8-4.64,0-3.31-1.51-7.48-1.51-2.9,0-5.68,1.51-5.68,4.46,0,3.54,4.52,5.68,4.52,9.39,0,2.32-2.21,4.06-2.21,6.5,0,1.92,1.86,3.77,1.86,6.09,0,1.28-.41,2.61-.99,3.65-.76,1.45-1.8,2.73-2.67,4.06ZM124.92,16.53c.64-1.57.75-3.14.75-4.76,0-1.74-.11-3.36-.06-5.1.23-1.74.81-3.25,3.08-3.25s4.7.99,4.7,3.59c0,2.15-.64,2.61-1.74,5.34-.75,1.68-1.33,3.54-1.33,5.45,0,4.47,4.17,7.25,4.17,12.3h0c0,3.89-2.84,8.24-6.15,8.24-2.38-.18-2.15-3.31-2.72-5.34-.41-1.16-.75-2.32-.87-3.59,0-1.04.17-1.97.17-2.84,0-1.51-.81-5.34-.99-6.32-.17-1.45.58-2.55.99-3.71Z" style="fill: #f2ebdd; stroke-width: 0px;"/>
    </g>
  </g>
</svg>