<svg width="1078" height="1022" viewBox="0 0 1078 1022" fill="none" xmlns="http://www.w3.org/2000/svg">
<path d="M19.6912 473.933C15.9322 482.207 19.2934 485.021 13.287 493.265C6.70373 502.295 2.00001 500.724 2.00001 511.593C1.99007 522.462 8.3744 520.463 13.4262 530.08C17.2946 537.449 17.5233 539.527 19.6912 544.42C20.3475 545.911 21.1928 547.671 22.3762 549.919C27.4279 559.535 26.0854 560.231 31.1372 569.847C36.189 579.464 36.7956 579.146 41.8474 588.762C46.8992 598.368 48.2715 597.652 53.3233 607.258C58.375 616.875 59.101 616.487 64.1528 626.103C69.2045 635.71 67.0864 636.823 72.1382 646.44C77.1899 656.046 76.9115 656.195 81.9633 665.811C87.015 675.428 88.3178 674.741 93.3695 684.348C98.4213 693.964 98.6401 693.855 103.692 703.461C108.744 713.077 106.437 714.29 111.488 723.907C116.54 733.523 118.032 732.737 123.084 742.354C128.145 751.97 128.324 751.87 133.376 761.497C138.428 771.113 139.512 770.536 144.564 780.152C149.615 789.769 146.851 791.231 151.903 800.847C156.954 810.463 159.172 809.29 164.224 818.916C169.285 828.532 168.012 829.198 173.074 838.815C178.126 848.431 179.449 847.735 184.5 857.351C189.552 866.967 188.657 867.445 193.709 877.051C198.761 886.667 199.656 886.2 204.707 895.816C209.759 905.433 209.829 905.403 214.881 915.019C219.932 924.635 217.407 925.958 222.468 935.574C227.52 945.2 229.111 944.365 234.173 953.981C239.225 963.598 238.041 964.224 243.093 973.85C248.145 983.467 248.712 983.178 253.773 992.804C258.825 1002.43 253.803 1010.65 264.672 1010.66C275.542 1010.67 270.898 1002.64 275.959 993.023C281.011 983.407 281.518 983.675 286.57 974.059C291.622 964.443 289.225 963.19 294.277 953.574C297.645 947.163 301.006 940.749 304.361 934.331C309.412 924.725 310.606 925.351 315.648 915.745C320.709 906.129 319.526 905.512 324.578 895.896C329.63 886.29 329.202 886.061 334.254 876.454C339.305 866.838 341.453 867.962 346.505 858.356C351.557 848.739 350.94 848.411 355.992 838.795C361.044 829.179 361.044 829.189 366.106 819.572C371.158 809.956 370.233 809.469 375.284 799.862C380.336 790.246 379.083 789.59 384.135 779.974C389.187 770.357 390.132 770.844 395.183 761.228C400.235 751.612 400.593 751.801 405.645 742.185C410.697 732.568 411.83 733.165 416.882 723.549C421.934 713.932 419.547 712.669 424.599 703.053C429.651 693.437 429.989 693.616 435.041 684C440.092 674.383 442.847 675.825 447.899 666.209C452.951 656.593 451.896 656.036 456.948 646.42C462 636.803 460.667 636.107 465.719 626.491C470.771 616.875 473.078 618.088 478.13 608.472C483.192 598.845 482.257 598.358 487.319 588.742C492.37 579.126 493.027 579.474 498.088 569.847C503.14 560.231 502.613 559.953 507.675 550.337C512.727 540.71 513.423 541.068 518.474 531.442C523.536 521.826 528.568 522.472 528.568 511.593C528.568 500.714 523.397 501.46 518.345 491.843C513.293 482.227 511.891 482.963 506.839 473.347C501.788 463.73 502.106 463.571 497.054 453.955C492.002 444.339 491.445 444.627 486.394 435.011C481.342 425.404 482.814 424.639 477.762 415.032C472.71 405.416 470.184 406.739 465.132 397.122C460.081 387.516 462.239 386.382 457.187 376.766C452.135 367.16 452.781 366.812 447.73 357.205C442.678 347.589 440.411 348.783 435.359 339.166C430.307 329.56 431.401 328.973 426.349 319.367C421.297 309.751 420.194 310.327 415.142 300.721C410.08 291.105 411.92 290.14 406.858 280.524C401.806 270.908 400.722 271.474 395.671 261.858C390.619 252.242 389.962 252.59 384.911 242.974C379.859 233.357 381.778 232.343 376.726 222.727C371.675 213.111 371.327 213.29 366.275 203.673C361.223 194.057 361.303 194.017 356.251 184.401C351.189 174.785 351.587 174.576 346.525 164.96C341.473 155.343 339.037 156.626 333.985 147.01C328.933 137.394 329.083 137.314 324.031 127.698C318.979 118.081 320.302 117.385 315.25 107.769C310.188 98.1528 311.143 97.6556 306.091 88.0294C301.029 78.4131 300.075 78.9103 295.023 69.294C289.961 59.6778 291.294 58.9717 286.242 49.3554C281.18 39.7292 278.266 41.2607 273.205 31.6345C268.153 22.0182 275.552 11.1091 264.672 11.0992C253.813 11.0892 260.416 21.5806 255.364 31.1969C250.303 40.8132 250.134 40.7237 245.082 50.3399C240.03 59.9562 239.722 59.7872 234.66 69.4034C229.608 79.0197 230.106 79.2783 225.054 88.8945C220.002 98.5009 217.377 97.1186 212.325 106.725C207.273 116.341 209.093 117.296 204.041 126.912C198.989 136.528 199.656 136.867 194.604 146.483C189.552 156.099 190.109 156.387 185.057 166.004C180.005 175.62 177.768 174.437 172.716 184.053C167.664 193.669 169.087 194.415 164.035 204.031C158.983 213.648 159.818 214.085 154.766 223.701C149.715 233.318 148.7 232.781 143.649 242.397C138.597 252.013 137.702 251.546 132.65 261.162C127.598 270.778 128.255 271.126 123.203 280.743C118.151 290.359 118.091 290.329 113.04 299.945C107.988 309.562 106.546 308.806 101.484 318.422C96.4324 328.038 99.4356 329.62 94.3839 339.236C89.3321 348.852 88.1388 348.226 83.087 357.842C78.0253 367.458 76.1756 366.484 71.1238 376.1C66.072 385.716 66.2212 385.796 61.1595 395.412C56.1077 405.028 56.8734 405.426 51.8217 415.042C46.7699 424.659 45.5865 424.042 40.5347 433.658C35.4829 443.285 36.7956 443.971 31.7339 453.597C26.6821 463.213 25.5683 462.626 20.5166 472.243C20.2083 472.829 19.9298 473.396 19.6912 473.933Z" stroke="#FDF8EE" stroke-width="3.97778" stroke-miterlimit="10"/>
<path d="M1037.46 441.634C1036.5 439.973 1035.38 437.964 1033.83 435.011C1028.77 425.404 1030.24 424.639 1025.18 415.032C1020.13 405.416 1017.62 406.739 1012.56 397.122C1007.51 387.516 1009.67 386.382 1004.62 376.766C999.567 367.16 1000.21 366.812 995.162 357.205C990.11 347.589 987.832 348.783 982.781 339.166C977.729 329.56 978.833 328.973 973.781 319.367C968.729 309.751 967.615 310.327 962.564 300.721C957.512 291.105 959.342 290.14 954.29 280.524C949.238 270.908 948.154 271.474 943.102 261.858C938.051 252.242 937.384 252.59 932.333 242.974C927.281 233.357 929.21 232.343 924.148 222.727C919.096 213.111 918.758 213.29 913.707 203.673C908.645 194.057 908.724 194.017 903.673 184.401C898.621 174.785 899.009 174.576 893.957 164.96C888.905 155.343 886.469 156.626 881.417 147.01C876.365 137.394 876.514 137.314 871.463 127.698C866.401 118.081 867.724 117.385 862.672 107.769C857.62 98.1528 858.575 97.6556 853.513 88.0294C848.461 78.4131 847.507 78.9103 842.445 69.294C837.393 59.6778 838.726 58.9717 833.664 49.3554C828.612 39.7292 825.688 41.2607 820.637 31.6345C815.575 22.0182 822.974 11.1091 812.104 11.0992C801.245 11.0892 807.838 21.5806 802.786 31.1969C797.735 40.8132 797.565 40.7237 792.504 50.3399C787.452 59.9562 787.144 59.7872 782.092 69.4034C777.04 79.0197 777.537 79.2783 772.486 88.8945C767.434 98.5009 764.809 97.1186 759.757 106.725C754.705 116.341 756.525 117.296 751.473 126.912C746.421 136.528 747.078 136.867 742.026 146.483C736.974 156.099 737.541 156.387 732.489 166.004C727.437 175.62 725.19 174.437 720.138 184.053C715.086 193.669 716.508 194.415 711.457 204.031C706.405 213.648 707.25 214.085 702.198 223.701C697.147 233.318 696.122 232.781 691.07 242.397C686.019 252.013 685.134 251.546 680.072 261.162C675.02 270.778 675.686 271.126 670.625 280.743C665.573 290.359 665.513 290.329 660.462 299.945C655.41 309.562 653.968 308.806 648.916 318.422C643.864 328.038 646.867 329.62 641.816 339.236C636.754 348.852 635.561 348.226 630.509 357.842C625.457 367.458 623.607 366.484 618.546 376.1C613.494 385.716 613.643 385.796 608.591 395.412C603.54 405.028 604.305 405.426 599.254 415.042C594.192 424.659 593.018 424.042 587.967 433.658C582.905 443.285 584.218 443.971 579.166 453.597C574.104 463.213 573 462.626 567.938 472.243C562.887 481.869 567.113 484.484 560.709 493.265C554.136 502.295 549.422 500.724 549.422 511.593C549.422 522.462 555.796 520.463 560.848 530.08C565.9 539.696 564.746 540.303 569.798 549.919C574.85 559.535 573.517 560.231 578.569 569.847C583.621 579.464 584.227 579.146 589.279 588.762C594.331 598.368 595.693 597.652 600.745 607.258C605.797 616.875 606.523 616.487 611.575 626.103C616.626 635.71 614.518 636.823 619.57 646.44C624.622 656.046 624.333 656.195 629.385 665.811C634.437 675.428 635.75 674.741 640.801 684.348C645.853 693.964 646.072 693.855 651.124 703.461C656.175 713.077 653.858 714.29 658.91 723.907C663.962 733.523 665.464 732.737 670.515 742.354C675.567 751.97 675.746 751.87 680.798 761.497C685.86 771.113 686.934 770.536 691.985 780.152C697.037 789.769 694.273 791.231 699.324 800.847C704.386 810.463 706.604 809.29 711.655 818.916C716.707 828.532 715.444 829.198 720.496 838.815C725.548 848.431 726.87 847.735 731.932 857.351C736.984 866.967 736.079 867.445 741.131 877.051C746.193 886.667 747.078 886.2 752.139 895.816C757.191 905.433 757.251 905.403 762.303 915.019C767.364 924.635 764.838 925.958 769.89 935.574C774.952 945.2 776.543 944.365 781.595 953.981C786.656 963.598 785.463 964.224 790.515 973.85C795.577 983.467 796.143 983.178 801.195 992.804C806.257 1002.43 801.235 1010.65 812.104 1010.66C822.964 1010.67 818.329 1002.64 823.381 993.023C828.433 983.407 828.94 983.675 833.992 974.059C839.054 964.443 836.647 963.19 841.699 953.574C846.751 943.957 846.741 943.947 851.793 934.331C856.844 924.725 858.028 925.351 863.079 915.745C868.131 906.129 866.958 905.512 872.01 895.896C877.061 886.29 876.634 886.061 881.686 876.454C886.737 866.838 888.885 867.962 893.937 858.356C898.989 848.739 898.362 848.411 903.414 838.795C908.466 829.179 908.476 829.189 913.528 819.572C918.579 809.956 917.655 809.469 922.706 799.862C927.758 790.246 926.505 789.59 931.557 779.974C936.619 770.357 937.553 770.844 942.605 761.228C947.657 751.612 948.025 751.801 953.077 742.185C958.128 732.568 959.252 733.165 964.304 723.549C969.366 713.932 966.969 712.669 972.021 703.053C977.083 693.437 977.411 693.616 982.472 684C987.524 674.383 990.269 675.825 995.321 666.209C1000.37 656.593 999.318 656.036 1004.37 646.42C1009.42 636.803 1008.1 636.107 1013.15 626.491C1018.2 616.875 1020.51 618.088 1025.56 608.472C1030.61 598.845 1029.69 598.358 1034.74 588.742C1035.81 586.703 1036.69 585.112 1037.46 583.78C1040.28 578.827 1041.53 577.435 1045.51 569.847C1050.57 560.231 1050.04 559.953 1055.1 550.337C1060.16 540.71 1060.84 541.068 1065.91 531.442C1070.97 521.826 1075.99 522.472 1076 511.593C1076 500.734 1070.83 501.46 1065.77 491.843C1060.72 482.227 1059.31 482.963 1054.26 473.347C1049.21 463.73 1049.53 463.571 1044.48 453.955C1040.98 447.282 1039.63 445.383 1037.46 441.634Z" stroke="#FDF8EE" stroke-width="3.97778" stroke-miterlimit="10"/>
<path d="M292.577 1019.77C293.363 1015.98 292.866 1012.7 296.048 1006.66C301.109 997.031 302.223 997.618 307.275 988.001C312.337 978.385 311.014 977.689 316.076 968.063C321.128 958.456 322.301 959.073 327.363 949.457C332.415 939.84 331.649 939.433 336.701 929.816C341.752 920.2 341.603 920.13 346.655 910.504C351.717 900.888 353.566 901.862 358.628 892.246C363.68 882.64 364.873 883.256 369.925 873.65C374.977 864.024 371.964 862.453 377.025 852.826C382.077 843.21 383.519 843.976 388.571 834.35C393.633 824.733 393.692 824.763 398.744 815.157C403.796 805.531 403.129 805.183 408.181 795.566C413.243 785.96 414.128 786.418 419.18 776.811C424.242 767.185 425.246 767.722 430.308 758.116C435.359 748.499 434.514 748.052 439.566 738.446C444.628 728.819 443.206 728.073 448.257 718.467C453.309 708.851 455.547 710.034 460.598 700.408C465.65 690.802 465.083 690.503 470.135 680.897C475.187 671.281 474.531 670.933 479.582 661.316C484.634 651.71 482.814 650.755 487.866 641.139C492.918 631.533 495.543 632.905 500.595 623.299C505.647 613.693 505.159 613.424 510.211 603.818C515.253 594.201 515.571 594.361 520.623 584.754C525.675 575.128 525.844 575.227 530.906 565.611C535.947 555.995 529.354 545.503 540.214 545.513C551.083 545.523 543.684 556.423 548.746 566.049C553.798 575.675 556.721 574.144 561.773 583.77C566.835 593.386 565.502 594.082 570.554 603.698C575.616 613.325 576.57 612.827 581.632 622.444C586.684 632.06 585.729 632.557 590.781 642.183C595.843 651.79 594.52 652.486 599.572 662.102C604.624 671.728 604.475 671.798 609.526 681.414C614.588 691.03 617.015 689.748 622.066 699.364C627.118 708.99 626.73 709.189 631.782 718.805C636.844 728.422 636.754 728.461 641.816 738.088C646.868 747.694 647.206 747.515 652.258 757.141C657.319 766.757 655.39 767.772 660.452 777.378C665.504 786.994 666.16 786.656 671.212 796.272C676.263 805.879 677.347 805.312 682.399 814.938C687.451 824.544 685.621 825.509 690.673 835.135C695.725 844.742 696.838 844.165 701.89 853.771C706.942 863.387 705.848 863.974 710.9 873.581C715.952 883.197 718.219 881.994 723.271 891.61C728.323 901.226 727.666 901.564 732.718 911.18C737.77 920.787 735.622 921.93 740.674 931.537C745.725 941.153 748.241 939.82 753.293 949.437C758.345 959.043 756.883 959.819 761.935 969.425C766.987 979.031 767.534 978.753 772.595 988.359C777.647 997.976 777.329 998.145 782.371 1007.76C785.891 1014.44 787.641 1016.12 790.078 1019.77" stroke="#FDF8EE" stroke-width="3.97778" stroke-miterlimit="10"/>
<path d="M19.6914 603.43C19.7312 603.519 19.7809 603.609 19.8306 603.698C24.8923 613.325 25.8371 612.827 30.8988 622.444C35.9506 632.06 34.9959 632.557 40.0576 642.183C45.1094 651.79 43.7967 652.486 48.8485 662.102C53.9003 671.728 53.7412 671.798 58.7929 681.414C63.8547 691.03 66.2911 689.748 71.3428 699.364C76.3946 708.99 76.0068 709.189 81.0585 718.805C86.1203 728.421 86.0308 728.461 91.0925 738.087C96.1443 747.694 96.4824 747.515 101.534 757.141C106.596 766.757 104.657 767.772 109.718 777.378C114.77 786.994 115.436 786.656 120.488 796.272C125.54 805.879 126.614 805.312 131.666 814.938C136.728 824.544 134.898 825.509 139.94 835.135C145.001 844.742 146.105 844.165 151.157 853.771C156.209 863.387 155.115 863.974 160.167 873.58C165.218 883.197 167.486 881.993 172.537 891.61C177.589 901.226 176.953 901.564 182.005 911.18C187.056 920.787 184.898 921.93 189.95 931.537C195.002 941.153 197.518 939.82 202.58 949.437C207.621 959.043 206.16 959.819 211.211 969.425C216.263 979.031 216.81 978.753 221.862 988.359C226.914 997.975 226.595 998.145 231.647 1007.76C235.158 1014.44 236.918 1016.12 239.344 1019.77" stroke="#FDF8EE" stroke-width="3.97778" stroke-miterlimit="10"/>
<path d="M839.023 1019.77C839.809 1015.98 839.312 1012.7 842.494 1006.66C847.556 997.031 848.67 997.618 853.721 988.001C858.783 978.385 857.46 977.689 862.522 968.063C867.574 958.456 868.757 959.073 873.819 949.457C878.861 939.84 878.105 939.433 883.157 929.816C888.209 920.2 888.05 920.13 893.111 910.504C898.163 900.888 900.013 901.862 905.074 892.246C910.126 882.64 911.319 883.256 916.371 873.65C921.423 864.024 918.42 862.453 923.482 852.826C928.533 843.21 929.975 843.976 935.017 834.35C940.079 824.733 940.139 824.763 945.19 815.157C950.242 805.531 949.586 805.183 954.638 795.566C959.689 785.96 960.574 786.417 965.626 776.811C970.688 767.185 971.702 767.722 976.764 758.116C981.816 748.499 980.96 748.052 986.012 738.445C991.074 728.819 989.652 728.073 994.704 718.467C999.755 708.851 1001.99 710.034 1007.04 700.408C1012.1 690.802 1011.53 690.503 1016.58 680.897C1021.63 671.281 1020.98 670.933 1026.03 661.316C1031.08 651.71 1029.26 650.755 1034.31 641.139C1035.47 638.941 1036.5 637.32 1037.45 636.008" stroke="#FDF8EE" stroke-width="3.97778" stroke-miterlimit="10"/>
<path d="M791.56 2C791.271 2.47733 790.993 2.99444 790.704 3.54139C785.643 13.1577 784.956 12.7997 779.895 22.4259C774.843 32.0422 775.36 32.3206 770.318 41.9369C765.266 51.5631 764.59 51.215 759.538 60.8313C754.487 70.4575 755.412 70.9349 750.36 80.5611C745.298 90.1674 743.001 88.9641 737.949 98.5804C732.887 108.197 734.23 108.893 729.168 118.509C724.116 128.125 725.17 128.682 720.119 138.298C715.067 147.905 712.322 146.473 707.271 156.089C702.219 165.705 701.881 165.536 696.829 175.143C691.767 184.769 694.164 186.022 689.112 195.638C684.06 205.254 682.927 204.658 677.875 214.284C672.823 223.89 672.465 223.701 667.403 233.318C662.351 242.944 661.407 242.437 656.365 252.063C651.313 261.669 652.566 262.335 647.514 271.952C642.453 281.568 643.387 282.045 638.336 291.662C634.961 298.072 631.587 304.48 628.212 310.884C623.16 320.5 623.787 320.829 618.735 330.435C613.683 340.051 611.535 338.928 606.484 348.544C601.432 358.15 601.859 358.369 596.808 367.985C591.756 377.601 592.929 378.218 587.878 387.834C582.826 397.441 581.642 396.824 576.591 406.42C573.223 412.831 569.862 419.245 566.507 425.663C561.455 435.279 563.852 436.532 558.8 446.158C553.748 455.765 553.231 455.506 548.189 465.113C543.138 474.729 547.762 482.764 536.902 482.754C526.033 482.754 531.055 474.52 526.003 464.894C520.942 455.268 520.375 455.556 515.313 445.94C510.261 436.313 511.455 435.697 506.403 426.071C501.341 416.454 499.75 417.29 494.698 407.664C489.636 398.047 492.162 396.725 487.111 387.108C482.049 377.492 481.989 377.522 476.927 367.906C471.876 358.299 470.981 358.757 465.929 349.15C460.887 339.534 461.782 339.057 456.73 329.441C451.678 319.824 450.346 320.53 445.294 310.904C440.242 301.278 441.505 300.622 436.454 291.005C431.392 281.389 429.184 282.553 424.132 272.936C419.081 263.31 421.835 261.858 416.783 252.252C411.742 242.626 410.658 243.202 405.606 233.586C400.554 223.97 400.375 224.059 395.313 214.443C390.262 204.827 388.76 205.612 383.708 195.996C378.656 186.39 380.974 185.167 375.922 175.56C370.87 165.934 370.651 166.053 365.599 156.437C360.548 146.831 359.235 147.517 354.183 137.901C349.131 128.284 349.42 128.135 344.368 118.529C339.316 108.913 341.424 107.799 336.373 98.1926C331.321 88.5763 330.595 88.9641 325.543 79.3478C320.491 69.7415 319.129 70.4575 314.077 60.8512C309.026 51.2349 308.419 51.5531 303.367 41.9369C298.315 32.3305 299.648 31.6245 294.596 22.0082C289.544 12.3919 290.708 11.7853 285.646 2.16906C285.616 2.10939 285.586 2.05967 285.557 2" stroke="#FDF8EE" stroke-width="3.97778" stroke-miterlimit="10"/>
<path d="M244.157 2C243.859 2.47733 243.571 2.99444 243.282 3.54139C238.23 13.1577 237.534 12.7997 232.473 22.4259C227.421 32.0422 227.958 32.3206 222.906 41.9369C217.844 51.5631 217.178 51.215 212.116 60.8313C207.074 70.4575 207.989 70.9349 202.938 80.5611C197.896 90.1674 195.579 88.9641 190.527 98.5804C185.475 108.197 186.808 108.893 181.756 118.509C176.704 128.125 177.758 128.682 172.706 138.298C167.655 147.905 164.91 146.473 159.858 156.089C154.797 165.705 154.468 165.536 149.407 175.143C144.355 184.769 146.752 186.022 141.69 195.638C136.638 205.254 135.514 204.658 130.453 214.284C125.401 223.89 125.043 223.701 119.991 233.318C114.939 242.944 114.004 242.437 108.953 252.063C103.891 261.669 105.144 262.335 100.092 271.952C95.0404 281.568 95.9653 282.045 90.9135 291.662C85.8617 301.278 85.8518 301.268 80.8 310.884C75.7482 320.501 76.3747 320.829 71.3229 330.435C66.2712 340.051 64.1232 338.928 59.0714 348.544C54.0196 358.15 54.4373 358.369 49.3954 367.985C44.3437 377.602 45.5171 378.218 40.4653 387.834C35.4136 397.441 34.2302 396.824 29.1784 406.42C24.3355 415.639 24.1465 416.027 19.6914 424.519" stroke="#FDF8EE" stroke-width="3.97778" stroke-miterlimit="10"/>
<path d="M1037.45 388.262C1037.27 387.884 1037.08 387.496 1036.87 387.108C1031.82 377.492 1031.75 377.522 1026.69 367.906C1021.64 358.299 1020.75 358.757 1015.7 349.15C1010.63 339.534 1011.54 339.057 1006.49 329.441C1001.44 319.824 1000.11 320.53 995.061 310.904C989.999 301.278 991.272 300.622 986.21 291.005C981.159 281.389 978.941 282.553 973.889 272.936C968.838 263.31 971.602 261.858 966.54 252.252C961.489 242.626 960.415 243.202 955.353 233.586C950.311 223.97 950.132 224.059 945.08 214.443C940.018 204.827 938.527 205.612 933.465 195.996C928.413 186.39 930.73 185.167 925.679 175.56C920.627 165.934 920.418 166.053 915.366 156.437C910.304 146.831 909.002 147.517 903.95 137.901C898.898 128.284 899.187 128.135 894.135 118.529C889.083 108.913 891.191 107.799 886.14 98.1926C881.088 88.5763 880.352 88.9641 875.3 79.3479C870.248 69.7415 868.886 70.4575 863.834 60.8512C858.782 51.2349 858.176 51.5531 853.124 41.9369C848.072 32.3305 849.415 31.6245 844.363 22.0082C839.301 12.3919 840.465 11.7853 835.413 2.16906C835.383 2.10939 835.353 2.05967 835.313 2" stroke="#FDF8EE" stroke-width="3.97778" stroke-miterlimit="10"/>
<path d="M285.557 2H791.56" stroke="#FDF8EE" stroke-width="3.97778" stroke-miterlimit="10"/>
<path d="M19.6914 424.519V2H244.157" stroke="#FDF8EE" stroke-width="3.97778" stroke-miterlimit="10"/>
<path d="M239.344 1019.77H19.6914V603.43" stroke="#FDF8EE" stroke-width="3.97778" stroke-miterlimit="10"/>
<path d="M790.078 1019.77H292.577" stroke="#FDF8EE" stroke-width="3.97778" stroke-miterlimit="10"/>
<path d="M1037.45 636.008V1019.77H839.023" stroke="#FDF8EE" stroke-width="3.97778" stroke-miterlimit="10"/>
<path d="M835.313 2H1037.45V388.262" stroke="#FDF8EE" stroke-width="3.97778" stroke-miterlimit="10"/>
</svg>
